%TF.GenerationSoftware,KiCad,Pcbnew,(6.0.4)*%
%TF.CreationDate,2022-05-14T14:59:48+08:00*%
%TF.ProjectId,51,35312e6b-6963-4616-945f-706362585858,rev?*%
%TF.SameCoordinates,Original*%
%TF.FileFunction,Legend,Bot*%
%TF.FilePolarity,Positive*%
%FSLAX46Y46*%
G04 Gerber Fmt 4.6, Leading zero omitted, Abs format (unit mm)*
G04 Created by KiCad (PCBNEW (6.0.4)) date 2022-05-14 14:59:48*
%MOMM*%
%LPD*%
G01*
G04 APERTURE LIST*
%ADD10C,0.150000*%
G04 APERTURE END LIST*
D10*
X112142857Y-109452380D02*
X111571428Y-109452380D01*
X111857142Y-110452380D02*
X111857142Y-109452380D01*
X111047619Y-109976190D02*
X111047619Y-110452380D01*
X111380952Y-109452380D02*
X111047619Y-109976190D01*
X110714285Y-109452380D01*
X110047619Y-109928571D02*
X110380952Y-109928571D01*
X110380952Y-110452380D02*
X110380952Y-109452380D01*
X109904761Y-109452380D01*
X109761904Y-110547619D02*
X109000000Y-110547619D01*
X108904761Y-109452380D02*
X108571428Y-110452380D01*
X108238095Y-109452380D01*
X107714285Y-109452380D02*
X107619047Y-109452380D01*
X107523809Y-109500000D01*
X107476190Y-109547619D01*
X107428571Y-109642857D01*
X107380952Y-109833333D01*
X107380952Y-110071428D01*
X107428571Y-110261904D01*
X107476190Y-110357142D01*
X107523809Y-110404761D01*
X107619047Y-110452380D01*
X107714285Y-110452380D01*
X107809523Y-110404761D01*
X107857142Y-110357142D01*
X107904761Y-110261904D01*
X107952380Y-110071428D01*
X107952380Y-109833333D01*
X107904761Y-109642857D01*
X107857142Y-109547619D01*
X107809523Y-109500000D01*
X107714285Y-109452380D01*
X106952380Y-110357142D02*
X106904761Y-110404761D01*
X106952380Y-110452380D01*
X107000000Y-110404761D01*
X106952380Y-110357142D01*
X106952380Y-110452380D01*
X105952380Y-110452380D02*
X106523809Y-110452380D01*
X106238095Y-110452380D02*
X106238095Y-109452380D01*
X106333333Y-109595238D01*
X106428571Y-109690476D01*
X106523809Y-109738095D01*
X113619047Y-111452380D02*
X113619047Y-112166666D01*
X113666666Y-112309523D01*
X113761904Y-112404761D01*
X113904761Y-112452380D01*
X114000000Y-112452380D01*
X112666666Y-112452380D02*
X113142857Y-112452380D01*
X113142857Y-111452380D01*
X111761904Y-112357142D02*
X111809523Y-112404761D01*
X111952380Y-112452380D01*
X112047619Y-112452380D01*
X112190476Y-112404761D01*
X112285714Y-112309523D01*
X112333333Y-112214285D01*
X112380952Y-112023809D01*
X112380952Y-111880952D01*
X112333333Y-111690476D01*
X112285714Y-111595238D01*
X112190476Y-111500000D01*
X112047619Y-111452380D01*
X111952380Y-111452380D01*
X111809523Y-111500000D01*
X111761904Y-111547619D01*
X111047619Y-111452380D02*
X111047619Y-112166666D01*
X111095238Y-112309523D01*
X111190476Y-112404761D01*
X111333333Y-112452380D01*
X111428571Y-112452380D01*
X110095238Y-112452380D02*
X110571428Y-112452380D01*
X110571428Y-111452380D01*
X109190476Y-112357142D02*
X109238095Y-112404761D01*
X109380952Y-112452380D01*
X109476190Y-112452380D01*
X109619047Y-112404761D01*
X109714285Y-112309523D01*
X109761904Y-112214285D01*
X109809523Y-112023809D01*
X109809523Y-111880952D01*
X109761904Y-111690476D01*
X109714285Y-111595238D01*
X109619047Y-111500000D01*
X109476190Y-111452380D01*
X109380952Y-111452380D01*
X109238095Y-111500000D01*
X109190476Y-111547619D01*
X108476190Y-111452380D02*
X108476190Y-112166666D01*
X108523809Y-112309523D01*
X108619047Y-112404761D01*
X108761904Y-112452380D01*
X108857142Y-112452380D01*
X107523809Y-112452380D02*
X108000000Y-112452380D01*
X108000000Y-111452380D01*
X106619047Y-112357142D02*
X106666666Y-112404761D01*
X106809523Y-112452380D01*
X106904761Y-112452380D01*
X107047619Y-112404761D01*
X107142857Y-112309523D01*
X107190476Y-112214285D01*
X107238095Y-112023809D01*
X107238095Y-111880952D01*
X107190476Y-111690476D01*
X107142857Y-111595238D01*
X107047619Y-111500000D01*
X106904761Y-111452380D01*
X106809523Y-111452380D01*
X106666666Y-111500000D01*
X106619047Y-111547619D01*
X105904761Y-111452380D02*
X105904761Y-112166666D01*
X105952380Y-112309523D01*
X106047619Y-112404761D01*
X106190476Y-112452380D01*
X106285714Y-112452380D01*
X104952380Y-112452380D02*
X105428571Y-112452380D01*
X105428571Y-111452380D01*
X104047619Y-112357142D02*
X104095238Y-112404761D01*
X104238095Y-112452380D01*
X104333333Y-112452380D01*
X104476190Y-112404761D01*
X104571428Y-112309523D01*
X104619047Y-112214285D01*
X104666666Y-112023809D01*
X104666666Y-111880952D01*
X104619047Y-111690476D01*
X104571428Y-111595238D01*
X104476190Y-111500000D01*
X104333333Y-111452380D01*
X104238095Y-111452380D01*
X104095238Y-111500000D01*
X104047619Y-111547619D01*
M02*
