%TF.GenerationSoftware,KiCad,Pcbnew,(6.0.4)*%
%TF.CreationDate,2022-05-14T14:59:47+08:00*%
%TF.ProjectId,51,35312e6b-6963-4616-945f-706362585858,rev?*%
%TF.SameCoordinates,Original*%
%TF.FileFunction,Copper,L2,Bot*%
%TF.FilePolarity,Positive*%
%FSLAX46Y46*%
G04 Gerber Fmt 4.6, Leading zero omitted, Abs format (unit mm)*
G04 Created by KiCad (PCBNEW (6.0.4)) date 2022-05-14 14:59:47*
%MOMM*%
%LPD*%
G01*
G04 APERTURE LIST*
%TA.AperFunction,ComponentPad*%
%ADD10O,1.600000X1.000000*%
%TD*%
%TA.AperFunction,ComponentPad*%
%ADD11O,2.100000X1.000000*%
%TD*%
%TA.AperFunction,ComponentPad*%
%ADD12R,1.700000X1.700000*%
%TD*%
%TA.AperFunction,ComponentPad*%
%ADD13O,1.700000X1.700000*%
%TD*%
%TA.AperFunction,ComponentPad*%
%ADD14C,1.500000*%
%TD*%
%TA.AperFunction,ViaPad*%
%ADD15C,0.800000*%
%TD*%
%TA.AperFunction,Conductor*%
%ADD16C,0.381000*%
%TD*%
%TA.AperFunction,Conductor*%
%ADD17C,1.016000*%
%TD*%
%TA.AperFunction,Conductor*%
%ADD18C,0.254000*%
%TD*%
G04 APERTURE END LIST*
D10*
%TO.P,USBC1,S1,SHIELD*%
%TO.N,unconnected-(USBC1-PadS1)*%
X167310000Y-101580000D03*
D11*
X163130000Y-110220000D03*
X163130000Y-101580000D03*
D10*
X167310000Y-110220000D03*
%TD*%
D12*
%TO.P,J5,1,Pin_1*%
%TO.N,/P1.0*%
X103275000Y-117475000D03*
D13*
%TO.P,J5,2,Pin_2*%
%TO.N,GND*%
X103275000Y-114935000D03*
%TO.P,J5,3,Pin_3*%
%TO.N,/P1.1*%
X105815000Y-117475000D03*
%TO.P,J5,4,Pin_4*%
%TO.N,GND*%
X105815000Y-114935000D03*
%TO.P,J5,5,Pin_5*%
%TO.N,/P1.2*%
X108355000Y-117475000D03*
%TO.P,J5,6,Pin_6*%
%TO.N,GND*%
X108355000Y-114935000D03*
%TO.P,J5,7,Pin_7*%
%TO.N,/P1.3*%
X110895000Y-117475000D03*
%TO.P,J5,8,Pin_8*%
%TO.N,GND*%
X110895000Y-114935000D03*
%TO.P,J5,9,Pin_9*%
%TO.N,/P1.4*%
X113435000Y-117475000D03*
%TO.P,J5,10,Pin_10*%
%TO.N,GND*%
X113435000Y-114935000D03*
%TO.P,J5,11,Pin_11*%
%TO.N,/P1.5*%
X115975000Y-117475000D03*
%TO.P,J5,12,Pin_12*%
%TO.N,GND*%
X115975000Y-114935000D03*
%TO.P,J5,13,Pin_13*%
%TO.N,/P1.6*%
X118515000Y-117475000D03*
%TO.P,J5,14,Pin_14*%
%TO.N,GND*%
X118515000Y-114935000D03*
%TO.P,J5,15,Pin_15*%
%TO.N,/P1.7*%
X121055000Y-117475000D03*
%TO.P,J5,16,Pin_16*%
%TO.N,GND*%
X121055000Y-114935000D03*
%TD*%
D12*
%TO.P,J7,1,Pin_1*%
%TO.N,/P3.0*%
X124825000Y-117475000D03*
D13*
%TO.P,J7,2,Pin_2*%
%TO.N,GND*%
X124825000Y-114935000D03*
%TO.P,J7,3,Pin_3*%
%TO.N,/P3.1*%
X127365000Y-117475000D03*
%TO.P,J7,4,Pin_4*%
%TO.N,GND*%
X127365000Y-114935000D03*
%TO.P,J7,5,Pin_5*%
%TO.N,/P3.2*%
X129905000Y-117475000D03*
%TO.P,J7,6,Pin_6*%
%TO.N,GND*%
X129905000Y-114935000D03*
%TO.P,J7,7,Pin_7*%
%TO.N,/P3.3*%
X132445000Y-117475000D03*
%TO.P,J7,8,Pin_8*%
%TO.N,GND*%
X132445000Y-114935000D03*
%TO.P,J7,9,Pin_9*%
%TO.N,/P3.4*%
X134985000Y-117475000D03*
%TO.P,J7,10,Pin_10*%
%TO.N,GND*%
X134985000Y-114935000D03*
%TO.P,J7,11,Pin_11*%
%TO.N,/P3.5*%
X137525000Y-117475000D03*
%TO.P,J7,12,Pin_12*%
%TO.N,GND*%
X137525000Y-114935000D03*
%TO.P,J7,13,Pin_13*%
%TO.N,/LED2*%
X140065000Y-117475000D03*
%TO.P,J7,14,Pin_14*%
%TO.N,GND*%
X140065000Y-114935000D03*
%TO.P,J7,15,Pin_15*%
%TO.N,/LED1*%
X142605000Y-117475000D03*
%TO.P,J7,16,Pin_16*%
%TO.N,GND*%
X142605000Y-114935000D03*
%TD*%
D12*
%TO.P,J1,1,Pin_1*%
%TO.N,+5V*%
X158800000Y-117350000D03*
D13*
%TO.P,J1,2,Pin_2*%
%TO.N,GND*%
X156260000Y-117350000D03*
%TO.P,J1,3,Pin_3*%
%TO.N,/P3.1*%
X153720000Y-117350000D03*
%TO.P,J1,4,Pin_4*%
%TO.N,/P3.0*%
X151180000Y-117350000D03*
%TD*%
D14*
%TO.P,Y1,1,1*%
%TO.N,/X1*%
X132650000Y-90650000D03*
%TO.P,Y1,2,2*%
%TO.N,/X2*%
X132650000Y-95550000D03*
%TD*%
D12*
%TO.P,J6,1,Pin_1*%
%TO.N,GND*%
X123550000Y-69500000D03*
D13*
%TO.P,J6,2,Pin_2*%
%TO.N,/P2.7*%
X123550000Y-66960000D03*
%TO.P,J6,3,Pin_3*%
%TO.N,GND*%
X126090000Y-69500000D03*
%TO.P,J6,4,Pin_4*%
%TO.N,/P2.6*%
X126090000Y-66960000D03*
%TO.P,J6,5,Pin_5*%
%TO.N,GND*%
X128630000Y-69500000D03*
%TO.P,J6,6,Pin_6*%
%TO.N,/P2.5*%
X128630000Y-66960000D03*
%TO.P,J6,7,Pin_7*%
%TO.N,GND*%
X131170000Y-69500000D03*
%TO.P,J6,8,Pin_8*%
%TO.N,/P2.4*%
X131170000Y-66960000D03*
%TO.P,J6,9,Pin_9*%
%TO.N,GND*%
X133710000Y-69500000D03*
%TO.P,J6,10,Pin_10*%
%TO.N,/P2.3*%
X133710000Y-66960000D03*
%TO.P,J6,11,Pin_11*%
%TO.N,GND*%
X136250000Y-69500000D03*
%TO.P,J6,12,Pin_12*%
%TO.N,/P2.2*%
X136250000Y-66960000D03*
%TO.P,J6,13,Pin_13*%
%TO.N,GND*%
X138790000Y-69500000D03*
%TO.P,J6,14,Pin_14*%
%TO.N,/KEY1*%
X138790000Y-66960000D03*
%TO.P,J6,15,Pin_15*%
%TO.N,GND*%
X141330000Y-69500000D03*
%TO.P,J6,16,Pin_16*%
%TO.N,/KEY2*%
X141330000Y-66960000D03*
%TD*%
D12*
%TO.P,J4,1,Pin_1*%
%TO.N,GND*%
X102075000Y-69525000D03*
D13*
%TO.P,J4,2,Pin_2*%
%TO.N,/P0.0*%
X102075000Y-66985000D03*
%TO.P,J4,3,Pin_3*%
%TO.N,GND*%
X104615000Y-69525000D03*
%TO.P,J4,4,Pin_4*%
%TO.N,/P0.1*%
X104615000Y-66985000D03*
%TO.P,J4,5,Pin_5*%
%TO.N,GND*%
X107155000Y-69525000D03*
%TO.P,J4,6,Pin_6*%
%TO.N,/P0.2*%
X107155000Y-66985000D03*
%TO.P,J4,7,Pin_7*%
%TO.N,GND*%
X109695000Y-69525000D03*
%TO.P,J4,8,Pin_8*%
%TO.N,/P0.3*%
X109695000Y-66985000D03*
%TO.P,J4,9,Pin_9*%
%TO.N,GND*%
X112235000Y-69525000D03*
%TO.P,J4,10,Pin_10*%
%TO.N,/P0.4*%
X112235000Y-66985000D03*
%TO.P,J4,11,Pin_11*%
%TO.N,GND*%
X114775000Y-69525000D03*
%TO.P,J4,12,Pin_12*%
%TO.N,/P0.5*%
X114775000Y-66985000D03*
%TO.P,J4,13,Pin_13*%
%TO.N,GND*%
X117315000Y-69525000D03*
%TO.P,J4,14,Pin_14*%
%TO.N,/P0.6*%
X117315000Y-66985000D03*
%TO.P,J4,15,Pin_15*%
%TO.N,GND*%
X119855000Y-69525000D03*
%TO.P,J4,16,Pin_16*%
%TO.N,/P0.7*%
X119855000Y-66985000D03*
%TD*%
D12*
%TO.P,J2,1,Pin_1*%
%TO.N,+5V*%
X92750000Y-88740000D03*
D13*
%TO.P,J2,2,Pin_2*%
%TO.N,GND*%
X92750000Y-86200000D03*
%TO.P,J2,3,Pin_3*%
%TO.N,+5V*%
X92750000Y-83660000D03*
%TO.P,J2,4,Pin_4*%
%TO.N,GND*%
X92750000Y-81120000D03*
%TD*%
D12*
%TO.P,J9,1,Pin_1*%
%TO.N,+5V*%
X100050000Y-88700000D03*
D13*
%TO.P,J9,2,Pin_2*%
%TO.N,GND*%
X100050000Y-86160000D03*
%TO.P,J9,3,Pin_3*%
%TO.N,+5V*%
X100050000Y-83620000D03*
%TO.P,J9,4,Pin_4*%
%TO.N,GND*%
X100050000Y-81080000D03*
%TD*%
D12*
%TO.P,J3,1,Pin_1*%
%TO.N,/P4.3*%
X95275000Y-109625000D03*
D13*
%TO.P,J3,2,Pin_2*%
%TO.N,GND*%
X92735000Y-109625000D03*
%TO.P,J3,3,Pin_3*%
%TO.N,/P4.2*%
X95275000Y-107085000D03*
%TO.P,J3,4,Pin_4*%
%TO.N,GND*%
X92735000Y-107085000D03*
%TO.P,J3,5,Pin_5*%
%TO.N,/P4.0*%
X95275000Y-104545000D03*
%TO.P,J3,6,Pin_6*%
%TO.N,GND*%
X92735000Y-104545000D03*
%TO.P,J3,7,Pin_7*%
%TO.N,/P4.4*%
X95275000Y-102005000D03*
%TO.P,J3,8,Pin_8*%
%TO.N,GND*%
X92735000Y-102005000D03*
%TO.P,J3,9,Pin_9*%
%TO.N,/P4.5*%
X95275000Y-99465000D03*
%TO.P,J3,10,Pin_10*%
%TO.N,GND*%
X92735000Y-99465000D03*
%TO.P,J3,11,Pin_11*%
%TO.N,/P4.1*%
X95275000Y-96925000D03*
%TO.P,J3,12,Pin_12*%
%TO.N,GND*%
X92735000Y-96925000D03*
%TO.P,J3,13,Pin_13*%
%TO.N,/P4.6*%
X95275000Y-94385000D03*
%TO.P,J3,14,Pin_14*%
%TO.N,GND*%
X92735000Y-94385000D03*
%TD*%
D12*
%TO.P,J8,1,Pin_1*%
%TO.N,+5V*%
X96350000Y-88700000D03*
D13*
%TO.P,J8,2,Pin_2*%
%TO.N,GND*%
X96350000Y-86160000D03*
%TO.P,J8,3,Pin_3*%
%TO.N,+5V*%
X96350000Y-83620000D03*
%TO.P,J8,4,Pin_4*%
%TO.N,GND*%
X96350000Y-81080000D03*
%TD*%
D15*
%TO.N,GND*%
X105000000Y-76000000D03*
X140000000Y-74000000D03*
X95000000Y-72000000D03*
X167000000Y-99000000D03*
X104000000Y-82000000D03*
X146800000Y-100400000D03*
X141000000Y-107000000D03*
X129000000Y-100000000D03*
X139000000Y-108000000D03*
X132400000Y-105800000D03*
X133000000Y-76000000D03*
X153000000Y-82500000D03*
X137000000Y-105000000D03*
X95000000Y-77000000D03*
X120000000Y-78000000D03*
X164000000Y-117000000D03*
X141000000Y-101000000D03*
X131000000Y-77000000D03*
X132000000Y-78000000D03*
X136000000Y-107000000D03*
X145000000Y-81000000D03*
X117000000Y-77000000D03*
X164000000Y-70000000D03*
X145000000Y-79000000D03*
X140000000Y-72000000D03*
X140000000Y-76000000D03*
X128000000Y-107000000D03*
X136000000Y-77000000D03*
X104000000Y-79000000D03*
X128000000Y-101000000D03*
X141000000Y-103000000D03*
X166000000Y-114000000D03*
X165000000Y-97000000D03*
X105000000Y-84000000D03*
X139000000Y-80000000D03*
X102800000Y-91800000D03*
X137000000Y-108000000D03*
X93000000Y-68000000D03*
X134000000Y-74000000D03*
X98000000Y-92000000D03*
X99000000Y-112000000D03*
X94000000Y-74000000D03*
X139000000Y-96000000D03*
X142000000Y-76000000D03*
X164000000Y-99000000D03*
X132000000Y-74000000D03*
X127000000Y-99000000D03*
X146000000Y-69000000D03*
X142000000Y-111000000D03*
X140000000Y-78000000D03*
X123000000Y-77000000D03*
X136000000Y-75000000D03*
X145000000Y-76000000D03*
X166000000Y-70000000D03*
X119000000Y-76000000D03*
X96000000Y-118000000D03*
X147000000Y-71000000D03*
X104000000Y-86000000D03*
X121000000Y-76000000D03*
X167000000Y-68000000D03*
X139000000Y-106000000D03*
X98000000Y-76000000D03*
X103000000Y-75000000D03*
X154100000Y-94800000D03*
X167000000Y-117000000D03*
X102000000Y-78000000D03*
X143000000Y-74000000D03*
X165000000Y-115000000D03*
X130000000Y-108000000D03*
X93000000Y-76000000D03*
X148000000Y-70000000D03*
X123000000Y-74000000D03*
X148000000Y-75500000D03*
X154049500Y-89000000D03*
X138000000Y-74000000D03*
X141000000Y-109000000D03*
X131000000Y-75000000D03*
X149400000Y-100400000D03*
X147000000Y-79000000D03*
X117000000Y-74000000D03*
X141000000Y-105000000D03*
X120000000Y-74000000D03*
X93000000Y-71000000D03*
X93000000Y-117000000D03*
X93000000Y-115000000D03*
X161600000Y-69700000D03*
X138000000Y-76000000D03*
X136600000Y-85000000D03*
X167000000Y-96000000D03*
X97000000Y-73000000D03*
X102000000Y-111000000D03*
X143000000Y-78000000D03*
X97000000Y-70000000D03*
X95000000Y-116000000D03*
X140700000Y-85000000D03*
X164000000Y-68000000D03*
X130000000Y-106000000D03*
X134000000Y-78000000D03*
X96000000Y-117000000D03*
X143000000Y-105000000D03*
X143000000Y-81000000D03*
X142000000Y-72000000D03*
X139000000Y-104000000D03*
X143000000Y-108000000D03*
X141000000Y-81000000D03*
X138000000Y-78000000D03*
X100000000Y-92000000D03*
%TO.N,/KEY1*%
X155100000Y-74600000D03*
%TO.N,+5V*%
X139000000Y-83400000D03*
X124100000Y-80200000D03*
X111900000Y-91900000D03*
X158800000Y-93800000D03*
%TO.N,/RST*%
X114500000Y-102900000D03*
X153000000Y-86300000D03*
%TO.N,Net-(D1-Pad1)*%
X153100000Y-101800000D03*
X154000000Y-109000000D03*
%TO.N,/P4.3*%
X116026500Y-105000000D03*
%TO.N,/P4.0*%
X118500000Y-94800000D03*
%TO.N,/P4.4*%
X117700000Y-92700000D03*
%TO.N,/P4.5*%
X116900000Y-91800000D03*
%TO.N,/P4.1*%
X116100000Y-91000000D03*
%TO.N,/P4.6*%
X115252424Y-89870265D03*
%TD*%
D16*
%TO.N,GND*%
X160600000Y-81800000D02*
X159900000Y-82500000D01*
D17*
X100050000Y-86160000D02*
X101252081Y-86160000D01*
X100010000Y-86200000D02*
X100050000Y-86160000D01*
X100010000Y-81120000D02*
X100050000Y-81080000D01*
D16*
X154049500Y-89000000D02*
X154049500Y-94749500D01*
D17*
X92750000Y-86200000D02*
X100010000Y-86200000D01*
D16*
X157500011Y-118590011D02*
X156260000Y-117350000D01*
D17*
X103275000Y-114935000D02*
X96842919Y-114935000D01*
X132445000Y-114935000D02*
X132445000Y-105845000D01*
X101252081Y-86160000D02*
X102800000Y-87707919D01*
X96842919Y-114935000D02*
X92735000Y-110827081D01*
X92735000Y-110827081D02*
X92735000Y-109625000D01*
X91192489Y-87407511D02*
X92400000Y-86200000D01*
X132445000Y-105845000D02*
X132400000Y-105800000D01*
D16*
X154049500Y-94749500D02*
X154100000Y-94800000D01*
X161600000Y-69700000D02*
X161600000Y-80800000D01*
D17*
X140700000Y-85000000D02*
X136600000Y-85000000D01*
X102800000Y-87707919D02*
X102800000Y-91800000D01*
X92735000Y-109625000D02*
X92735000Y-94385000D01*
X91192489Y-84642489D02*
X91192489Y-82677511D01*
X141305000Y-69525000D02*
X141330000Y-69500000D01*
X92750000Y-81120000D02*
X100010000Y-81120000D01*
X100050000Y-71550000D02*
X102075000Y-69525000D01*
X100050000Y-81080000D02*
X100050000Y-71550000D01*
X92735000Y-94385000D02*
X91192489Y-92842489D01*
X146800000Y-100400000D02*
X149400000Y-100400000D01*
X142000000Y-69500000D02*
X148000000Y-75500000D01*
X141330000Y-69500000D02*
X142000000Y-69500000D01*
X102075000Y-69525000D02*
X141305000Y-69525000D01*
X91192489Y-92842489D02*
X91192489Y-87407511D01*
X91192489Y-82677511D02*
X92750000Y-81120000D01*
X142605000Y-114935000D02*
X103275000Y-114935000D01*
X92750000Y-86200000D02*
X91192489Y-84642489D01*
D16*
X161600000Y-80800000D02*
X160600000Y-81800000D01*
X164000000Y-117000000D02*
X162409989Y-118590011D01*
D17*
X92400000Y-86200000D02*
X92750000Y-86200000D01*
D16*
X162409989Y-118590011D02*
X157500011Y-118590011D01*
X159900000Y-82500000D02*
X153000000Y-82500000D01*
D18*
%TO.N,/KEY1*%
X154183489Y-65783489D02*
X155100000Y-66700000D01*
X155100000Y-66700000D02*
X155100000Y-74600000D01*
X138790000Y-66960000D02*
X139966511Y-65783489D01*
X139966511Y-65783489D02*
X154183489Y-65783489D01*
D16*
%TO.N,+5V*%
X135800000Y-80200000D02*
X139000000Y-83400000D01*
X124100000Y-84700000D02*
X120000000Y-88800000D01*
X120000000Y-88800000D02*
X115000000Y-88800000D01*
X124100000Y-80200000D02*
X124100000Y-84700000D01*
X124100000Y-80200000D02*
X135800000Y-80200000D01*
X158800000Y-117350000D02*
X158800000Y-93800000D01*
X115000000Y-88800000D02*
X111900000Y-91900000D01*
%TO.N,/RST*%
X152100000Y-86300000D02*
X134400000Y-104000000D01*
X115600000Y-104000000D02*
X114500000Y-102900000D01*
X134400000Y-104000000D02*
X115600000Y-104000000D01*
X153000000Y-86300000D02*
X152100000Y-86300000D01*
%TO.N,Net-(D1-Pad1)*%
X153100000Y-101800000D02*
X154000000Y-102700000D01*
X154000000Y-102700000D02*
X154000000Y-109000000D01*
D18*
%TO.N,/P3.0*%
X151180000Y-117350000D02*
X150128489Y-116298489D01*
X150128489Y-116298489D02*
X126001511Y-116298489D01*
X126001511Y-116298489D02*
X124825000Y-117475000D01*
%TO.N,/P3.1*%
X152418489Y-118651511D02*
X128541511Y-118651511D01*
X128541511Y-118651511D02*
X127365000Y-117475000D01*
X153720000Y-117350000D02*
X152418489Y-118651511D01*
D16*
%TO.N,/P4.3*%
X95275000Y-109625000D02*
X111401500Y-109625000D01*
X111401500Y-109625000D02*
X116026500Y-105000000D01*
%TO.N,/P4.0*%
X95275000Y-104545000D02*
X108755000Y-104545000D01*
X108755000Y-104545000D02*
X118500000Y-94800000D01*
%TO.N,/P4.4*%
X117700000Y-92700000D02*
X108395000Y-102005000D01*
X108395000Y-102005000D02*
X95275000Y-102005000D01*
%TO.N,/P4.5*%
X109235000Y-99465000D02*
X116900000Y-91800000D01*
X95275000Y-99465000D02*
X109235000Y-99465000D01*
%TO.N,/P4.1*%
X116100000Y-91000000D02*
X110175000Y-96925000D01*
X110175000Y-96925000D02*
X95275000Y-96925000D01*
%TO.N,/P4.6*%
X110715000Y-94385000D02*
X95275000Y-94385000D01*
X115252424Y-89870265D02*
X115229735Y-89870265D01*
X115229735Y-89870265D02*
X110715000Y-94385000D01*
%TD*%
%TA.AperFunction,Conductor*%
%TO.N,GND*%
G36*
X101522300Y-65528502D02*
G01*
X101568793Y-65582158D01*
X101578897Y-65652432D01*
X101549403Y-65717012D01*
X101512359Y-65746263D01*
X101348607Y-65831507D01*
X101344474Y-65834610D01*
X101344471Y-65834612D01*
X101174100Y-65962530D01*
X101169965Y-65965635D01*
X101166393Y-65969373D01*
X101039520Y-66102138D01*
X101015629Y-66127138D01*
X100889743Y-66311680D01*
X100852733Y-66391412D01*
X100800127Y-66504743D01*
X100795688Y-66514305D01*
X100735989Y-66729570D01*
X100712251Y-66951695D01*
X100712548Y-66956848D01*
X100712548Y-66956851D01*
X100723960Y-67154767D01*
X100725110Y-67174715D01*
X100726247Y-67179761D01*
X100726248Y-67179767D01*
X100740485Y-67242939D01*
X100774222Y-67392639D01*
X100858266Y-67599616D01*
X100896542Y-67662077D01*
X100972291Y-67785688D01*
X100974987Y-67790088D01*
X101121250Y-67958938D01*
X101125225Y-67962238D01*
X101125231Y-67962244D01*
X101130425Y-67966556D01*
X101170059Y-68025460D01*
X101171555Y-68096441D01*
X101134439Y-68156962D01*
X101094168Y-68181480D01*
X100986946Y-68221676D01*
X100971351Y-68230214D01*
X100869276Y-68306715D01*
X100856715Y-68319276D01*
X100780214Y-68421351D01*
X100771676Y-68436946D01*
X100726522Y-68557394D01*
X100722895Y-68572649D01*
X100717369Y-68623514D01*
X100717000Y-68630328D01*
X100717000Y-69252885D01*
X100721475Y-69268124D01*
X100722865Y-69269329D01*
X100730548Y-69271000D01*
X121173344Y-69271000D01*
X121186875Y-69267027D01*
X121188180Y-69257947D01*
X121146214Y-69090875D01*
X121142894Y-69081124D01*
X121057972Y-68885814D01*
X121053105Y-68876739D01*
X120937426Y-68697926D01*
X120931136Y-68689757D01*
X120787806Y-68532240D01*
X120780273Y-68525215D01*
X120613139Y-68393222D01*
X120604556Y-68387520D01*
X120567602Y-68367120D01*
X120517631Y-68316687D01*
X120502859Y-68247245D01*
X120527975Y-68180839D01*
X120555327Y-68154232D01*
X120603635Y-68119774D01*
X120734860Y-68026173D01*
X120759323Y-68001796D01*
X120889435Y-67872137D01*
X120893096Y-67868489D01*
X120952594Y-67785689D01*
X121020435Y-67691277D01*
X121023453Y-67687077D01*
X121038102Y-67657438D01*
X121120136Y-67491453D01*
X121120137Y-67491451D01*
X121122430Y-67486811D01*
X121187370Y-67273069D01*
X121216529Y-67051590D01*
X121218156Y-66985000D01*
X121199852Y-66762361D01*
X121145431Y-66545702D01*
X121056354Y-66340840D01*
X120935014Y-66153277D01*
X120784670Y-65988051D01*
X120780619Y-65984852D01*
X120780615Y-65984848D01*
X120613414Y-65852800D01*
X120613410Y-65852798D01*
X120609359Y-65849598D01*
X120572260Y-65829118D01*
X120419533Y-65744809D01*
X120369562Y-65694376D01*
X120354790Y-65624933D01*
X120379906Y-65558528D01*
X120436937Y-65516243D01*
X120480426Y-65508500D01*
X122881154Y-65508500D01*
X122949275Y-65528502D01*
X122995768Y-65582158D01*
X123005872Y-65652432D01*
X122976378Y-65717012D01*
X122939336Y-65746262D01*
X122823607Y-65806507D01*
X122819474Y-65809610D01*
X122819471Y-65809612D01*
X122766215Y-65849598D01*
X122644965Y-65940635D01*
X122490629Y-66102138D01*
X122364743Y-66286680D01*
X122350959Y-66316375D01*
X122303016Y-66419661D01*
X122270688Y-66489305D01*
X122210989Y-66704570D01*
X122187251Y-66926695D01*
X122187548Y-66931848D01*
X122187548Y-66931851D01*
X122199812Y-67144547D01*
X122200110Y-67149715D01*
X122201247Y-67154761D01*
X122201248Y-67154767D01*
X122221119Y-67242939D01*
X122249222Y-67367639D01*
X122333266Y-67574616D01*
X122376310Y-67644857D01*
X122447291Y-67760688D01*
X122449987Y-67765088D01*
X122596250Y-67933938D01*
X122600225Y-67937238D01*
X122600231Y-67937244D01*
X122605425Y-67941556D01*
X122645059Y-68000460D01*
X122646555Y-68071441D01*
X122609439Y-68131962D01*
X122569168Y-68156480D01*
X122461946Y-68196676D01*
X122446351Y-68205214D01*
X122344276Y-68281715D01*
X122331715Y-68294276D01*
X122255214Y-68396351D01*
X122246676Y-68411946D01*
X122201522Y-68532394D01*
X122197895Y-68547649D01*
X122192369Y-68598514D01*
X122192000Y-68605328D01*
X122192000Y-69227885D01*
X122196475Y-69243124D01*
X122197865Y-69244329D01*
X122205548Y-69246000D01*
X142648344Y-69246000D01*
X142661875Y-69242027D01*
X142663180Y-69232947D01*
X142621214Y-69065875D01*
X142617894Y-69056124D01*
X142532972Y-68860814D01*
X142528105Y-68851739D01*
X142412426Y-68672926D01*
X142406136Y-68664757D01*
X142262806Y-68507240D01*
X142255273Y-68500215D01*
X142088139Y-68368222D01*
X142079556Y-68362520D01*
X142042602Y-68342120D01*
X141992631Y-68291687D01*
X141977859Y-68222245D01*
X142002975Y-68155839D01*
X142030327Y-68129232D01*
X142076298Y-68096441D01*
X142209860Y-68001173D01*
X142234323Y-67976796D01*
X142364435Y-67847137D01*
X142368096Y-67843489D01*
X142403665Y-67793990D01*
X142495435Y-67666277D01*
X142498453Y-67662077D01*
X142519320Y-67619857D01*
X142595136Y-67466453D01*
X142595137Y-67466451D01*
X142597430Y-67461811D01*
X142653269Y-67278023D01*
X142660865Y-67253023D01*
X142660865Y-67253021D01*
X142662370Y-67248069D01*
X142691529Y-67026590D01*
X142693156Y-66960000D01*
X142674852Y-66737361D01*
X142667906Y-66709707D01*
X142634242Y-66575684D01*
X142637046Y-66504743D01*
X142677759Y-66446580D01*
X142743455Y-66419661D01*
X142756446Y-66418989D01*
X153868067Y-66418989D01*
X153936188Y-66438991D01*
X153957162Y-66455894D01*
X154427595Y-66926327D01*
X154461621Y-66988639D01*
X154464500Y-67015422D01*
X154464500Y-73899697D01*
X154444498Y-73967818D01*
X154432136Y-73984006D01*
X154360960Y-74063056D01*
X154265473Y-74228444D01*
X154206458Y-74410072D01*
X154186496Y-74600000D01*
X154206458Y-74789928D01*
X154265473Y-74971556D01*
X154360960Y-75136944D01*
X154488747Y-75278866D01*
X154643248Y-75391118D01*
X154649276Y-75393802D01*
X154649278Y-75393803D01*
X154811681Y-75466109D01*
X154817712Y-75468794D01*
X154911112Y-75488647D01*
X154998056Y-75507128D01*
X154998061Y-75507128D01*
X155004513Y-75508500D01*
X155195487Y-75508500D01*
X155201939Y-75507128D01*
X155201944Y-75507128D01*
X155288888Y-75488647D01*
X155382288Y-75468794D01*
X155388319Y-75466109D01*
X155550722Y-75393803D01*
X155550724Y-75393802D01*
X155556752Y-75391118D01*
X155711253Y-75278866D01*
X155839040Y-75136944D01*
X155934527Y-74971556D01*
X155993542Y-74789928D01*
X156013504Y-74600000D01*
X155993542Y-74410072D01*
X155934527Y-74228444D01*
X155839040Y-74063056D01*
X155767864Y-73984007D01*
X155737146Y-73920000D01*
X155735500Y-73899697D01*
X155735500Y-66779020D01*
X155736029Y-66767791D01*
X155737708Y-66760281D01*
X155736119Y-66709707D01*
X155735562Y-66692002D01*
X155735500Y-66688044D01*
X155735500Y-66660017D01*
X155734989Y-66655971D01*
X155734057Y-66644136D01*
X155732913Y-66607722D01*
X155732664Y-66599795D01*
X155726987Y-66580254D01*
X155722978Y-66560894D01*
X155721421Y-66548566D01*
X155721420Y-66548563D01*
X155720427Y-66540701D01*
X155717510Y-66533335D01*
X155717509Y-66533329D01*
X155704091Y-66499439D01*
X155700246Y-66488210D01*
X155695364Y-66471406D01*
X155687869Y-66445607D01*
X155683836Y-66438788D01*
X155683834Y-66438783D01*
X155677510Y-66428091D01*
X155668813Y-66410341D01*
X155661319Y-66391412D01*
X155635240Y-66355517D01*
X155628722Y-66345595D01*
X155610170Y-66314224D01*
X155610166Y-66314219D01*
X155606134Y-66307401D01*
X155591747Y-66293014D01*
X155578906Y-66277980D01*
X155571602Y-66267927D01*
X155566942Y-66261513D01*
X155532750Y-66233227D01*
X155523971Y-66225238D01*
X155022328Y-65723595D01*
X154988302Y-65661283D01*
X154993367Y-65590468D01*
X155035914Y-65533632D01*
X155102434Y-65508821D01*
X155111423Y-65508500D01*
X169365500Y-65508500D01*
X169433621Y-65528502D01*
X169480114Y-65582158D01*
X169491500Y-65634500D01*
X169491500Y-76173610D01*
X169471498Y-76241731D01*
X169417842Y-76288224D01*
X169347568Y-76298328D01*
X169282988Y-76268834D01*
X169247250Y-76217118D01*
X169198140Y-76083641D01*
X169198139Y-76083639D01*
X169195937Y-76077654D01*
X169093326Y-75912160D01*
X168959534Y-75770678D01*
X168800025Y-75658989D01*
X168752013Y-75638212D01*
X168627175Y-75584190D01*
X168627171Y-75584189D01*
X168621316Y-75581655D01*
X168615069Y-75580350D01*
X168615066Y-75580349D01*
X168435443Y-75542824D01*
X168435438Y-75542823D01*
X168430707Y-75541835D01*
X168424315Y-75541500D01*
X168281337Y-75541500D01*
X168212049Y-75548538D01*
X168142622Y-75555590D01*
X168142621Y-75555590D01*
X168136273Y-75556235D01*
X168079939Y-75573889D01*
X167956549Y-75612556D01*
X167956544Y-75612558D01*
X167950459Y-75614465D01*
X167874713Y-75656452D01*
X167785729Y-75705777D01*
X167785726Y-75705779D01*
X167780150Y-75708870D01*
X167775309Y-75713019D01*
X167775305Y-75713022D01*
X167712311Y-75767015D01*
X167632302Y-75835591D01*
X167512954Y-75989453D01*
X167510138Y-75995176D01*
X167510136Y-75995179D01*
X167429800Y-76158444D01*
X167426982Y-76164171D01*
X167425373Y-76170349D01*
X167425372Y-76170351D01*
X167392037Y-76298328D01*
X167377898Y-76352607D01*
X167367707Y-76547064D01*
X167396825Y-76739599D01*
X167399028Y-76745585D01*
X167399029Y-76745591D01*
X167461860Y-76916360D01*
X167461862Y-76916365D01*
X167464063Y-76922346D01*
X167566674Y-77087840D01*
X167700466Y-77229322D01*
X167859975Y-77341011D01*
X167865838Y-77343548D01*
X168032825Y-77415810D01*
X168032829Y-77415811D01*
X168038684Y-77418345D01*
X168044931Y-77419650D01*
X168044934Y-77419651D01*
X168224557Y-77457176D01*
X168224562Y-77457177D01*
X168229293Y-77458165D01*
X168235685Y-77458500D01*
X168378663Y-77458500D01*
X168447951Y-77451462D01*
X168517378Y-77444410D01*
X168517379Y-77444410D01*
X168523727Y-77443765D01*
X168604843Y-77418345D01*
X168703451Y-77387444D01*
X168703456Y-77387442D01*
X168709541Y-77385535D01*
X168796475Y-77337346D01*
X168874271Y-77294223D01*
X168874274Y-77294221D01*
X168879850Y-77291130D01*
X168884691Y-77286981D01*
X168884695Y-77286978D01*
X169022855Y-77168560D01*
X169027698Y-77164409D01*
X169147046Y-77010547D01*
X169187779Y-76927768D01*
X169230200Y-76841556D01*
X169233018Y-76835829D01*
X169243569Y-76795323D01*
X169280096Y-76734444D01*
X169343738Y-76702977D01*
X169414290Y-76710914D01*
X169469351Y-76755733D01*
X169491500Y-76827084D01*
X169491500Y-79173610D01*
X169471498Y-79241731D01*
X169417842Y-79288224D01*
X169347568Y-79298328D01*
X169282988Y-79268834D01*
X169247250Y-79217118D01*
X169198140Y-79083641D01*
X169198139Y-79083639D01*
X169195937Y-79077654D01*
X169093326Y-78912160D01*
X168959534Y-78770678D01*
X168800025Y-78658989D01*
X168752013Y-78638212D01*
X168627175Y-78584190D01*
X168627171Y-78584189D01*
X168621316Y-78581655D01*
X168615069Y-78580350D01*
X168615066Y-78580349D01*
X168435443Y-78542824D01*
X168435438Y-78542823D01*
X168430707Y-78541835D01*
X168424315Y-78541500D01*
X168281337Y-78541500D01*
X168212049Y-78548538D01*
X168142622Y-78555590D01*
X168142621Y-78555590D01*
X168136273Y-78556235D01*
X168079939Y-78573889D01*
X167956549Y-78612556D01*
X167956544Y-78612558D01*
X167950459Y-78614465D01*
X167874713Y-78656452D01*
X167785729Y-78705777D01*
X167785726Y-78705779D01*
X167780150Y-78708870D01*
X167775309Y-78713019D01*
X167775305Y-78713022D01*
X167712311Y-78767015D01*
X167632302Y-78835591D01*
X167512954Y-78989453D01*
X167510138Y-78995176D01*
X167510136Y-78995179D01*
X167429800Y-79158444D01*
X167426982Y-79164171D01*
X167425373Y-79170349D01*
X167425372Y-79170351D01*
X167383473Y-79331206D01*
X167377898Y-79352607D01*
X167374949Y-79408882D01*
X167368538Y-79531213D01*
X167367707Y-79547064D01*
X167396825Y-79739599D01*
X167399028Y-79745585D01*
X167399029Y-79745591D01*
X167461860Y-79916360D01*
X167461862Y-79916365D01*
X167464063Y-79922346D01*
X167566674Y-80087840D01*
X167700466Y-80229322D01*
X167705696Y-80232984D01*
X167705697Y-80232985D01*
X167753886Y-80266727D01*
X167859975Y-80341011D01*
X167865838Y-80343548D01*
X168032825Y-80415810D01*
X168032829Y-80415811D01*
X168038684Y-80418345D01*
X168044931Y-80419650D01*
X168044934Y-80419651D01*
X168224557Y-80457176D01*
X168224562Y-80457177D01*
X168229293Y-80458165D01*
X168235685Y-80458500D01*
X168378663Y-80458500D01*
X168447951Y-80451462D01*
X168517378Y-80444410D01*
X168517379Y-80444410D01*
X168523727Y-80443765D01*
X168604843Y-80418345D01*
X168703451Y-80387444D01*
X168703456Y-80387442D01*
X168709541Y-80385535D01*
X168796475Y-80337346D01*
X168874271Y-80294223D01*
X168874274Y-80294221D01*
X168879850Y-80291130D01*
X168884691Y-80286981D01*
X168884695Y-80286978D01*
X169022855Y-80168560D01*
X169027698Y-80164409D01*
X169061979Y-80120215D01*
X169143131Y-80015594D01*
X169147046Y-80010547D01*
X169158032Y-79988222D01*
X169230200Y-79841556D01*
X169233018Y-79835829D01*
X169236433Y-79822721D01*
X169243569Y-79795323D01*
X169280096Y-79734444D01*
X169343738Y-79702977D01*
X169414290Y-79710914D01*
X169469351Y-79755733D01*
X169491500Y-79827084D01*
X169491500Y-119365500D01*
X169471498Y-119433621D01*
X169417842Y-119480114D01*
X169365500Y-119491500D01*
X152690401Y-119491500D01*
X152622280Y-119471498D01*
X152575787Y-119417842D01*
X152565683Y-119347568D01*
X152595177Y-119282988D01*
X152655249Y-119244503D01*
X152659700Y-119243210D01*
X152672882Y-119239380D01*
X152679709Y-119235342D01*
X152679712Y-119235341D01*
X152690395Y-119229023D01*
X152708153Y-119220323D01*
X152719704Y-119215750D01*
X152719710Y-119215746D01*
X152727077Y-119212830D01*
X152736466Y-119206009D01*
X152762977Y-119186747D01*
X152772899Y-119180230D01*
X152804257Y-119161685D01*
X152804261Y-119161682D01*
X152811087Y-119157645D01*
X152825471Y-119143261D01*
X152840505Y-119130420D01*
X152850562Y-119123113D01*
X152856976Y-119118453D01*
X152885262Y-119084261D01*
X152893252Y-119075480D01*
X153266901Y-118701832D01*
X153329213Y-118667807D01*
X153381117Y-118667458D01*
X153558597Y-118703567D01*
X153563772Y-118703757D01*
X153563774Y-118703757D01*
X153776673Y-118711564D01*
X153776677Y-118711564D01*
X153781837Y-118711753D01*
X153786957Y-118711097D01*
X153786959Y-118711097D01*
X153998288Y-118684025D01*
X153998289Y-118684025D01*
X154003416Y-118683368D01*
X154008366Y-118681883D01*
X154212429Y-118620661D01*
X154212434Y-118620659D01*
X154217384Y-118619174D01*
X154417994Y-118520896D01*
X154599860Y-118391173D01*
X154632659Y-118358489D01*
X154743400Y-118248134D01*
X154758096Y-118233489D01*
X154888453Y-118052077D01*
X154889640Y-118052930D01*
X154936960Y-118009362D01*
X155006897Y-117997145D01*
X155072338Y-118024678D01*
X155100166Y-118056511D01*
X155157694Y-118150388D01*
X155163777Y-118158699D01*
X155303213Y-118319667D01*
X155310580Y-118326883D01*
X155474434Y-118462916D01*
X155482881Y-118468831D01*
X155666756Y-118576279D01*
X155676042Y-118580729D01*
X155875001Y-118656703D01*
X155884899Y-118659579D01*
X155988250Y-118680606D01*
X156002299Y-118679410D01*
X156006000Y-118669065D01*
X156006000Y-118668517D01*
X156514000Y-118668517D01*
X156518064Y-118682359D01*
X156531478Y-118684393D01*
X156538184Y-118683534D01*
X156548262Y-118681392D01*
X156752255Y-118620191D01*
X156761842Y-118616433D01*
X156953095Y-118522739D01*
X156961945Y-118517464D01*
X157135328Y-118393792D01*
X157143193Y-118387145D01*
X157247897Y-118282805D01*
X157310268Y-118248889D01*
X157381075Y-118254077D01*
X157437837Y-118296723D01*
X157454819Y-118327826D01*
X157499385Y-118446705D01*
X157586739Y-118563261D01*
X157703295Y-118650615D01*
X157839684Y-118701745D01*
X157901866Y-118708500D01*
X159698134Y-118708500D01*
X159760316Y-118701745D01*
X159896705Y-118650615D01*
X160013261Y-118563261D01*
X160100615Y-118446705D01*
X160151745Y-118310316D01*
X160158500Y-118248134D01*
X160158500Y-116451866D01*
X160151745Y-116389684D01*
X160100615Y-116253295D01*
X160013261Y-116136739D01*
X159896705Y-116049385D01*
X159760316Y-115998255D01*
X159698134Y-115991500D01*
X159625000Y-115991500D01*
X159556879Y-115971498D01*
X159510386Y-115917842D01*
X159499000Y-115865500D01*
X159499000Y-110212925D01*
X161566645Y-110212925D01*
X161584570Y-110409888D01*
X161586308Y-110415794D01*
X161586309Y-110415798D01*
X161590387Y-110429653D01*
X161640410Y-110599619D01*
X161643263Y-110605077D01*
X161643265Y-110605081D01*
X161673098Y-110662145D01*
X161732040Y-110774890D01*
X161855968Y-110929025D01*
X161860692Y-110932989D01*
X161862587Y-110934579D01*
X162007474Y-111056154D01*
X162012872Y-111059121D01*
X162012877Y-111059125D01*
X162156180Y-111137905D01*
X162180787Y-111151433D01*
X162186654Y-111153294D01*
X162186656Y-111153295D01*
X162363436Y-111209373D01*
X162369306Y-111211235D01*
X162523227Y-111228500D01*
X163729769Y-111228500D01*
X163732825Y-111228200D01*
X163732832Y-111228200D01*
X163791340Y-111222463D01*
X163876833Y-111214080D01*
X163882734Y-111212298D01*
X163882736Y-111212298D01*
X163956053Y-111190162D01*
X164066169Y-111156916D01*
X164240796Y-111064066D01*
X164327062Y-110993709D01*
X164389287Y-110942960D01*
X164389290Y-110942957D01*
X164394062Y-110939065D01*
X164399089Y-110932989D01*
X164516201Y-110791425D01*
X164516203Y-110791421D01*
X164520130Y-110786675D01*
X164614198Y-110612701D01*
X164672682Y-110423768D01*
X164683928Y-110316772D01*
X164692711Y-110233204D01*
X164692711Y-110233202D01*
X164693355Y-110227075D01*
X164692067Y-110212925D01*
X165996645Y-110212925D01*
X166014570Y-110409888D01*
X166016308Y-110415794D01*
X166016309Y-110415798D01*
X166020387Y-110429653D01*
X166070410Y-110599619D01*
X166073263Y-110605077D01*
X166073265Y-110605081D01*
X166103098Y-110662145D01*
X166162040Y-110774890D01*
X166285968Y-110929025D01*
X166290692Y-110932989D01*
X166292587Y-110934579D01*
X166437474Y-111056154D01*
X166442872Y-111059121D01*
X166442877Y-111059125D01*
X166586180Y-111137905D01*
X166610787Y-111151433D01*
X166616654Y-111153294D01*
X166616656Y-111153295D01*
X166793436Y-111209373D01*
X166799306Y-111211235D01*
X166953227Y-111228500D01*
X167659769Y-111228500D01*
X167662825Y-111228200D01*
X167662832Y-111228200D01*
X167721340Y-111222463D01*
X167806833Y-111214080D01*
X167812734Y-111212298D01*
X167812736Y-111212298D01*
X167886053Y-111190162D01*
X167996169Y-111156916D01*
X168170796Y-111064066D01*
X168257062Y-110993709D01*
X168319287Y-110942960D01*
X168319290Y-110942957D01*
X168324062Y-110939065D01*
X168329089Y-110932989D01*
X168446201Y-110791425D01*
X168446203Y-110791421D01*
X168450130Y-110786675D01*
X168544198Y-110612701D01*
X168602682Y-110423768D01*
X168613928Y-110316772D01*
X168622711Y-110233204D01*
X168622711Y-110233202D01*
X168623355Y-110227075D01*
X168612456Y-110107312D01*
X168605989Y-110036251D01*
X168605988Y-110036248D01*
X168605430Y-110030112D01*
X168549590Y-109840381D01*
X168539919Y-109821881D01*
X168499280Y-109744147D01*
X168457960Y-109665110D01*
X168334032Y-109510975D01*
X168327727Y-109505684D01*
X168258067Y-109447233D01*
X168182526Y-109383846D01*
X168177128Y-109380879D01*
X168177123Y-109380875D01*
X168014608Y-109291533D01*
X168014609Y-109291533D01*
X168009213Y-109288567D01*
X168003346Y-109286706D01*
X168003344Y-109286705D01*
X167826564Y-109230627D01*
X167826563Y-109230627D01*
X167820694Y-109228765D01*
X167666773Y-109211500D01*
X166960231Y-109211500D01*
X166957175Y-109211800D01*
X166957168Y-109211800D01*
X166898660Y-109217537D01*
X166813167Y-109225920D01*
X166807266Y-109227702D01*
X166807264Y-109227702D01*
X166733947Y-109249838D01*
X166623831Y-109283084D01*
X166449204Y-109375934D01*
X166362938Y-109446291D01*
X166300713Y-109497040D01*
X166300710Y-109497043D01*
X166295938Y-109500935D01*
X166292011Y-109505682D01*
X166292009Y-109505684D01*
X166173799Y-109648575D01*
X166173797Y-109648579D01*
X166169870Y-109653325D01*
X166075802Y-109827299D01*
X166017318Y-110016232D01*
X166016674Y-110022357D01*
X166016674Y-110022358D01*
X165998978Y-110190731D01*
X165996645Y-110212925D01*
X164692067Y-110212925D01*
X164682456Y-110107312D01*
X164675989Y-110036251D01*
X164675988Y-110036248D01*
X164675430Y-110030112D01*
X164619590Y-109840381D01*
X164609919Y-109821881D01*
X164569280Y-109744147D01*
X164527960Y-109665110D01*
X164404032Y-109510975D01*
X164328066Y-109447232D01*
X164288741Y-109388123D01*
X164287615Y-109317136D01*
X164304847Y-109279889D01*
X164366442Y-109189255D01*
X164370277Y-109183612D01*
X164437530Y-109015466D01*
X164438644Y-109008738D01*
X164438645Y-109008734D01*
X164465993Y-108843539D01*
X164465993Y-108843536D01*
X164467108Y-108836802D01*
X164466052Y-108816635D01*
X164457987Y-108662766D01*
X164457630Y-108655953D01*
X164455284Y-108647433D01*
X164411352Y-108487941D01*
X164409539Y-108481359D01*
X164325078Y-108321164D01*
X164320673Y-108315951D01*
X164320670Y-108315947D01*
X164212594Y-108188057D01*
X164212590Y-108188053D01*
X164208187Y-108182843D01*
X164192378Y-108170756D01*
X164069743Y-108076994D01*
X164069739Y-108076991D01*
X164064322Y-108072850D01*
X163959186Y-108023825D01*
X163906369Y-107999195D01*
X163906366Y-107999194D01*
X163900192Y-107996315D01*
X163893544Y-107994829D01*
X163893541Y-107994828D01*
X163766184Y-107966361D01*
X163723457Y-107956810D01*
X163717912Y-107956500D01*
X163584756Y-107956500D01*
X163449963Y-107971143D01*
X163366609Y-107999195D01*
X163284796Y-108026728D01*
X163284794Y-108026729D01*
X163278325Y-108028906D01*
X163123095Y-108122177D01*
X163118138Y-108126865D01*
X163118135Y-108126867D01*
X162996473Y-108241918D01*
X162991515Y-108246607D01*
X162987683Y-108252245D01*
X162987680Y-108252249D01*
X162910427Y-108365923D01*
X162889723Y-108396388D01*
X162822470Y-108564534D01*
X162821356Y-108571262D01*
X162821355Y-108571266D01*
X162795259Y-108728898D01*
X162792892Y-108743198D01*
X162793249Y-108750015D01*
X162793249Y-108750019D01*
X162798151Y-108843539D01*
X162802370Y-108924047D01*
X162804181Y-108930620D01*
X162804181Y-108930623D01*
X162837625Y-109052040D01*
X162836431Y-109123027D01*
X162797048Y-109182099D01*
X162731981Y-109210501D01*
X162716149Y-109211500D01*
X162530231Y-109211500D01*
X162527175Y-109211800D01*
X162527168Y-109211800D01*
X162468660Y-109217537D01*
X162383167Y-109225920D01*
X162377266Y-109227702D01*
X162377264Y-109227702D01*
X162303947Y-109249838D01*
X162193831Y-109283084D01*
X162019204Y-109375934D01*
X161932938Y-109446291D01*
X161870713Y-109497040D01*
X161870710Y-109497043D01*
X161865938Y-109500935D01*
X161862011Y-109505682D01*
X161862009Y-109505684D01*
X161743799Y-109648575D01*
X161743797Y-109648579D01*
X161739870Y-109653325D01*
X161645802Y-109827299D01*
X161587318Y-110016232D01*
X161586674Y-110022357D01*
X161586674Y-110022358D01*
X161568978Y-110190731D01*
X161566645Y-110212925D01*
X159499000Y-110212925D01*
X159499000Y-101572925D01*
X161566645Y-101572925D01*
X161567204Y-101579065D01*
X161581776Y-101739183D01*
X161584570Y-101769888D01*
X161640410Y-101959619D01*
X161643263Y-101965077D01*
X161643265Y-101965081D01*
X161652824Y-101983365D01*
X161732040Y-102134890D01*
X161855968Y-102289025D01*
X161860692Y-102292989D01*
X161867933Y-102299065D01*
X162007474Y-102416154D01*
X162012872Y-102419121D01*
X162012877Y-102419125D01*
X162136911Y-102487312D01*
X162180787Y-102511433D01*
X162186654Y-102513294D01*
X162186656Y-102513295D01*
X162293554Y-102547205D01*
X162369306Y-102571235D01*
X162523227Y-102588500D01*
X162714777Y-102588500D01*
X162782898Y-102608502D01*
X162829391Y-102662158D01*
X162839495Y-102732432D01*
X162831766Y-102761292D01*
X162822470Y-102784534D01*
X162821356Y-102791262D01*
X162821355Y-102791266D01*
X162794007Y-102956461D01*
X162792892Y-102963198D01*
X162793249Y-102970015D01*
X162793249Y-102970019D01*
X162798151Y-103063539D01*
X162802370Y-103144047D01*
X162804181Y-103150620D01*
X162804181Y-103150623D01*
X162838213Y-103274174D01*
X162850461Y-103318641D01*
X162934922Y-103478836D01*
X162939327Y-103484049D01*
X162939330Y-103484053D01*
X163047406Y-103611943D01*
X163047410Y-103611947D01*
X163051813Y-103617157D01*
X163057237Y-103621304D01*
X163057238Y-103621305D01*
X163190257Y-103723006D01*
X163190261Y-103723009D01*
X163195678Y-103727150D01*
X163279226Y-103766109D01*
X163353631Y-103800805D01*
X163353634Y-103800806D01*
X163359808Y-103803685D01*
X163366456Y-103805171D01*
X163366459Y-103805172D01*
X163472421Y-103828857D01*
X163536543Y-103843190D01*
X163542088Y-103843500D01*
X163675244Y-103843500D01*
X163810037Y-103828857D01*
X163930133Y-103788440D01*
X163975204Y-103773272D01*
X163975206Y-103773271D01*
X163981675Y-103771094D01*
X163989972Y-103766109D01*
X164050014Y-103730032D01*
X164136905Y-103677823D01*
X164141862Y-103673135D01*
X164141865Y-103673133D01*
X164263527Y-103558082D01*
X164263529Y-103558080D01*
X164268485Y-103553393D01*
X164272317Y-103547755D01*
X164272320Y-103547751D01*
X164366442Y-103409255D01*
X164370277Y-103403612D01*
X164437530Y-103235466D01*
X164438644Y-103228738D01*
X164438645Y-103228734D01*
X164465993Y-103063539D01*
X164465993Y-103063536D01*
X164467108Y-103056802D01*
X164466709Y-103049171D01*
X164457987Y-102882766D01*
X164457630Y-102875953D01*
X164440483Y-102813699D01*
X164411352Y-102707941D01*
X164409539Y-102701359D01*
X164325078Y-102541164D01*
X164314871Y-102529085D01*
X164286178Y-102464147D01*
X164297148Y-102394003D01*
X164331471Y-102350113D01*
X164389287Y-102302960D01*
X164389290Y-102302957D01*
X164394062Y-102299065D01*
X164402368Y-102289025D01*
X164516201Y-102151425D01*
X164516203Y-102151421D01*
X164520130Y-102146675D01*
X164614198Y-101972701D01*
X164672682Y-101783768D01*
X164676596Y-101746525D01*
X164692711Y-101593204D01*
X164692711Y-101593202D01*
X164693355Y-101587075D01*
X164692067Y-101572925D01*
X165996645Y-101572925D01*
X165997204Y-101579065D01*
X166011776Y-101739183D01*
X166014570Y-101769888D01*
X166070410Y-101959619D01*
X166073263Y-101965077D01*
X166073265Y-101965081D01*
X166082824Y-101983365D01*
X166162040Y-102134890D01*
X166285968Y-102289025D01*
X166290692Y-102292989D01*
X166297933Y-102299065D01*
X166437474Y-102416154D01*
X166442872Y-102419121D01*
X166442877Y-102419125D01*
X166566911Y-102487312D01*
X166610787Y-102511433D01*
X166616654Y-102513294D01*
X166616656Y-102513295D01*
X166723554Y-102547205D01*
X166799306Y-102571235D01*
X166953227Y-102588500D01*
X167659769Y-102588500D01*
X167662825Y-102588200D01*
X167662832Y-102588200D01*
X167721340Y-102582463D01*
X167806833Y-102574080D01*
X167812734Y-102572298D01*
X167812736Y-102572298D01*
X167933135Y-102535947D01*
X167996169Y-102516916D01*
X168170796Y-102424066D01*
X168284629Y-102331226D01*
X168319287Y-102302960D01*
X168319290Y-102302957D01*
X168324062Y-102299065D01*
X168332368Y-102289025D01*
X168446201Y-102151425D01*
X168446203Y-102151421D01*
X168450130Y-102146675D01*
X168544198Y-101972701D01*
X168602682Y-101783768D01*
X168606596Y-101746525D01*
X168622711Y-101593204D01*
X168622711Y-101593202D01*
X168623355Y-101587075D01*
X168615847Y-101504576D01*
X168605989Y-101396251D01*
X168605988Y-101396248D01*
X168605430Y-101390112D01*
X168587047Y-101327649D01*
X168551330Y-101206294D01*
X168549590Y-101200381D01*
X168539919Y-101181881D01*
X168460813Y-101030568D01*
X168457960Y-101025110D01*
X168334032Y-100870975D01*
X168327727Y-100865684D01*
X168245114Y-100796364D01*
X168182526Y-100743846D01*
X168177128Y-100740879D01*
X168177123Y-100740875D01*
X168014608Y-100651533D01*
X168014609Y-100651533D01*
X168009213Y-100648567D01*
X168003346Y-100646706D01*
X168003344Y-100646705D01*
X167826564Y-100590627D01*
X167826563Y-100590627D01*
X167820694Y-100588765D01*
X167666773Y-100571500D01*
X166960231Y-100571500D01*
X166957175Y-100571800D01*
X166957168Y-100571800D01*
X166898660Y-100577537D01*
X166813167Y-100585920D01*
X166807266Y-100587702D01*
X166807264Y-100587702D01*
X166733947Y-100609838D01*
X166623831Y-100643084D01*
X166449204Y-100735934D01*
X166375110Y-100796364D01*
X166300713Y-100857040D01*
X166300710Y-100857043D01*
X166295938Y-100860935D01*
X166292011Y-100865682D01*
X166292009Y-100865684D01*
X166173799Y-101008575D01*
X166173797Y-101008579D01*
X166169870Y-101013325D01*
X166075802Y-101187299D01*
X166017318Y-101376232D01*
X165996645Y-101572925D01*
X164692067Y-101572925D01*
X164685847Y-101504576D01*
X164675989Y-101396251D01*
X164675988Y-101396248D01*
X164675430Y-101390112D01*
X164657047Y-101327649D01*
X164621330Y-101206294D01*
X164619590Y-101200381D01*
X164609919Y-101181881D01*
X164530813Y-101030568D01*
X164527960Y-101025110D01*
X164404032Y-100870975D01*
X164397727Y-100865684D01*
X164315114Y-100796364D01*
X164252526Y-100743846D01*
X164247128Y-100740879D01*
X164247123Y-100740875D01*
X164084608Y-100651533D01*
X164084609Y-100651533D01*
X164079213Y-100648567D01*
X164073346Y-100646706D01*
X164073344Y-100646705D01*
X163896564Y-100590627D01*
X163896563Y-100590627D01*
X163890694Y-100588765D01*
X163736773Y-100571500D01*
X162530231Y-100571500D01*
X162527175Y-100571800D01*
X162527168Y-100571800D01*
X162468660Y-100577537D01*
X162383167Y-100585920D01*
X162377266Y-100587702D01*
X162377264Y-100587702D01*
X162303947Y-100609838D01*
X162193831Y-100643084D01*
X162019204Y-100735934D01*
X161945110Y-100796364D01*
X161870713Y-100857040D01*
X161870710Y-100857043D01*
X161865938Y-100860935D01*
X161862011Y-100865682D01*
X161862009Y-100865684D01*
X161743799Y-101008575D01*
X161743797Y-101008579D01*
X161739870Y-101013325D01*
X161645802Y-101187299D01*
X161587318Y-101376232D01*
X161566645Y-101572925D01*
X159499000Y-101572925D01*
X159499000Y-94429779D01*
X159519002Y-94361658D01*
X159531359Y-94345475D01*
X159539040Y-94336944D01*
X159634527Y-94171556D01*
X159693542Y-93989928D01*
X159701966Y-93909783D01*
X159712814Y-93806565D01*
X159713504Y-93800000D01*
X159699420Y-93665998D01*
X159694232Y-93616635D01*
X159694232Y-93616633D01*
X159693542Y-93610072D01*
X159634527Y-93428444D01*
X159539040Y-93263056D01*
X159530186Y-93253222D01*
X159415675Y-93126045D01*
X159415674Y-93126044D01*
X159411253Y-93121134D01*
X159256752Y-93008882D01*
X159250724Y-93006198D01*
X159250722Y-93006197D01*
X159088319Y-92933891D01*
X159088318Y-92933891D01*
X159082288Y-92931206D01*
X158988888Y-92911353D01*
X158901944Y-92892872D01*
X158901939Y-92892872D01*
X158895487Y-92891500D01*
X158704513Y-92891500D01*
X158698061Y-92892872D01*
X158698056Y-92892872D01*
X158611113Y-92911353D01*
X158517712Y-92931206D01*
X158511682Y-92933891D01*
X158511681Y-92933891D01*
X158349278Y-93006197D01*
X158349276Y-93006198D01*
X158343248Y-93008882D01*
X158188747Y-93121134D01*
X158184326Y-93126044D01*
X158184325Y-93126045D01*
X158069815Y-93253222D01*
X158060960Y-93263056D01*
X157965473Y-93428444D01*
X157906458Y-93610072D01*
X157905768Y-93616633D01*
X157905768Y-93616635D01*
X157900580Y-93665998D01*
X157886496Y-93800000D01*
X157887186Y-93806565D01*
X157898035Y-93909783D01*
X157906458Y-93989928D01*
X157965473Y-94171556D01*
X158060960Y-94336944D01*
X158068637Y-94345470D01*
X158099353Y-94409476D01*
X158101000Y-94429779D01*
X158101000Y-115865500D01*
X158080998Y-115933621D01*
X158027342Y-115980114D01*
X157975000Y-115991500D01*
X157901866Y-115991500D01*
X157839684Y-115998255D01*
X157703295Y-116049385D01*
X157586739Y-116136739D01*
X157499385Y-116253295D01*
X157496233Y-116261703D01*
X157496232Y-116261705D01*
X157454722Y-116372433D01*
X157412081Y-116429198D01*
X157345519Y-116453898D01*
X157276170Y-116438691D01*
X157243546Y-116413004D01*
X157192799Y-116357234D01*
X157185273Y-116350215D01*
X157018139Y-116218222D01*
X157009552Y-116212517D01*
X156823117Y-116109599D01*
X156813705Y-116105369D01*
X156612959Y-116034280D01*
X156602988Y-116031646D01*
X156531837Y-116018972D01*
X156518540Y-116020432D01*
X156514000Y-116034989D01*
X156514000Y-118668517D01*
X156006000Y-118668517D01*
X156006000Y-116033102D01*
X156002082Y-116019758D01*
X155987806Y-116017771D01*
X155949324Y-116023660D01*
X155939288Y-116026051D01*
X155736868Y-116092212D01*
X155727359Y-116096209D01*
X155538463Y-116194542D01*
X155529738Y-116200036D01*
X155359433Y-116327905D01*
X155351726Y-116334748D01*
X155204590Y-116488717D01*
X155198109Y-116496722D01*
X155093498Y-116650074D01*
X155038587Y-116695076D01*
X154968062Y-116703247D01*
X154904315Y-116671993D01*
X154883618Y-116647509D01*
X154802822Y-116522617D01*
X154802820Y-116522614D01*
X154800014Y-116518277D01*
X154649670Y-116353051D01*
X154645619Y-116349852D01*
X154645615Y-116349848D01*
X154478414Y-116217800D01*
X154478410Y-116217798D01*
X154474359Y-116214598D01*
X154441854Y-116196654D01*
X154349807Y-116145842D01*
X154278789Y-116106638D01*
X154273920Y-116104914D01*
X154273916Y-116104912D01*
X154073087Y-116033795D01*
X154073083Y-116033794D01*
X154068212Y-116032069D01*
X154063119Y-116031162D01*
X154063116Y-116031161D01*
X153853373Y-115993800D01*
X153853367Y-115993799D01*
X153848284Y-115992894D01*
X153774452Y-115991992D01*
X153630081Y-115990228D01*
X153630079Y-115990228D01*
X153624911Y-115990165D01*
X153404091Y-116023955D01*
X153191756Y-116093357D01*
X153149863Y-116115165D01*
X153025757Y-116179771D01*
X152993607Y-116196507D01*
X152989474Y-116199610D01*
X152989471Y-116199612D01*
X152819100Y-116327530D01*
X152814965Y-116330635D01*
X152660629Y-116492138D01*
X152553201Y-116649621D01*
X152498293Y-116694621D01*
X152427768Y-116702792D01*
X152364021Y-116671538D01*
X152343324Y-116647054D01*
X152262822Y-116522617D01*
X152262820Y-116522614D01*
X152260014Y-116518277D01*
X152109670Y-116353051D01*
X152105619Y-116349852D01*
X152105615Y-116349848D01*
X151938414Y-116217800D01*
X151938410Y-116217798D01*
X151934359Y-116214598D01*
X151901854Y-116196654D01*
X151809807Y-116145842D01*
X151738789Y-116106638D01*
X151733920Y-116104914D01*
X151733916Y-116104912D01*
X151533087Y-116033795D01*
X151533083Y-116033794D01*
X151528212Y-116032069D01*
X151523119Y-116031162D01*
X151523116Y-116031161D01*
X151313373Y-115993800D01*
X151313367Y-115993799D01*
X151308284Y-115992894D01*
X151234452Y-115991992D01*
X151090081Y-115990228D01*
X151090079Y-115990228D01*
X151084911Y-115990165D01*
X150937627Y-116012703D01*
X150869200Y-116023173D01*
X150869197Y-116023174D01*
X150864091Y-116023955D01*
X150859178Y-116025561D01*
X150859173Y-116025562D01*
X150853665Y-116027362D01*
X150782701Y-116029513D01*
X150725426Y-115996692D01*
X150633735Y-115905001D01*
X150626164Y-115896682D01*
X150622042Y-115890186D01*
X150572223Y-115843403D01*
X150569382Y-115840649D01*
X150549583Y-115820850D01*
X150546458Y-115818426D01*
X150546449Y-115818418D01*
X150546363Y-115818352D01*
X150537338Y-115810644D01*
X150510774Y-115785699D01*
X150504995Y-115780272D01*
X150487158Y-115770466D01*
X150470642Y-115759616D01*
X150454556Y-115747139D01*
X150413823Y-115729513D01*
X150403175Y-115724296D01*
X150378298Y-115710620D01*
X150364292Y-115702920D01*
X150356617Y-115700949D01*
X150356611Y-115700947D01*
X150344578Y-115697858D01*
X150325876Y-115691455D01*
X150307197Y-115683372D01*
X150273361Y-115678013D01*
X150263362Y-115676429D01*
X150251749Y-115674024D01*
X150208771Y-115662989D01*
X150188424Y-115662989D01*
X150168713Y-115661438D01*
X150156439Y-115659494D01*
X150148610Y-115658254D01*
X150140718Y-115659000D01*
X150104433Y-115662430D01*
X150092575Y-115662989D01*
X143962910Y-115662989D01*
X143894789Y-115642987D01*
X143848296Y-115589331D01*
X143838192Y-115519057D01*
X143849953Y-115481162D01*
X143869670Y-115441267D01*
X143873469Y-115431672D01*
X143935377Y-115227910D01*
X143937555Y-115217837D01*
X143938986Y-115206962D01*
X143936775Y-115192778D01*
X143923617Y-115189000D01*
X123508225Y-115189000D01*
X123494694Y-115192973D01*
X123493257Y-115202966D01*
X123523565Y-115337446D01*
X123526645Y-115347275D01*
X123606770Y-115544603D01*
X123611413Y-115553794D01*
X123722694Y-115735388D01*
X123728777Y-115743699D01*
X123868213Y-115904667D01*
X123875577Y-115911879D01*
X123880522Y-115915985D01*
X123920156Y-115974889D01*
X123921653Y-116045870D01*
X123884537Y-116106392D01*
X123844264Y-116130910D01*
X123736705Y-116171232D01*
X123736704Y-116171233D01*
X123728295Y-116174385D01*
X123611739Y-116261739D01*
X123524385Y-116378295D01*
X123473255Y-116514684D01*
X123466500Y-116576866D01*
X123466500Y-118373134D01*
X123473255Y-118435316D01*
X123524385Y-118571705D01*
X123611739Y-118688261D01*
X123728295Y-118775615D01*
X123864684Y-118826745D01*
X123926866Y-118833500D01*
X125723134Y-118833500D01*
X125785316Y-118826745D01*
X125921705Y-118775615D01*
X126038261Y-118688261D01*
X126125615Y-118571705D01*
X126143972Y-118522739D01*
X126169598Y-118454382D01*
X126212240Y-118397618D01*
X126278802Y-118372918D01*
X126348150Y-118388126D01*
X126382817Y-118416114D01*
X126411250Y-118448938D01*
X126583126Y-118591632D01*
X126776000Y-118704338D01*
X126984692Y-118784030D01*
X126989760Y-118785061D01*
X126989763Y-118785062D01*
X127097008Y-118806881D01*
X127203597Y-118828567D01*
X127208772Y-118828757D01*
X127208774Y-118828757D01*
X127421673Y-118836564D01*
X127421677Y-118836564D01*
X127426837Y-118836753D01*
X127431957Y-118836097D01*
X127431959Y-118836097D01*
X127505414Y-118826687D01*
X127648416Y-118808368D01*
X127653369Y-118806882D01*
X127653374Y-118806881D01*
X127683017Y-118797987D01*
X127692651Y-118795097D01*
X127763646Y-118794679D01*
X127817954Y-118826687D01*
X128036261Y-119044994D01*
X128043837Y-119053320D01*
X128047958Y-119059814D01*
X128053733Y-119065237D01*
X128097776Y-119106596D01*
X128100618Y-119109351D01*
X128120417Y-119129150D01*
X128123542Y-119131574D01*
X128123551Y-119131582D01*
X128123637Y-119131648D01*
X128132662Y-119139356D01*
X128165005Y-119169728D01*
X128171949Y-119173546D01*
X128171951Y-119173547D01*
X128182840Y-119179533D01*
X128199358Y-119190384D01*
X128215444Y-119202861D01*
X128256177Y-119220487D01*
X128266825Y-119225704D01*
X128298760Y-119243261D01*
X128298765Y-119243263D01*
X128305708Y-119247080D01*
X128312081Y-119248716D01*
X128367583Y-119292023D01*
X128391059Y-119359026D01*
X128374583Y-119428085D01*
X128323387Y-119477273D01*
X128265225Y-119491500D01*
X90634500Y-119491500D01*
X90566379Y-119471498D01*
X90519886Y-119417842D01*
X90508500Y-119365500D01*
X90508500Y-118373134D01*
X101916500Y-118373134D01*
X101923255Y-118435316D01*
X101974385Y-118571705D01*
X102061739Y-118688261D01*
X102178295Y-118775615D01*
X102314684Y-118826745D01*
X102376866Y-118833500D01*
X104173134Y-118833500D01*
X104235316Y-118826745D01*
X104371705Y-118775615D01*
X104488261Y-118688261D01*
X104575615Y-118571705D01*
X104593972Y-118522739D01*
X104619598Y-118454382D01*
X104662240Y-118397618D01*
X104728802Y-118372918D01*
X104798150Y-118388126D01*
X104832817Y-118416114D01*
X104861250Y-118448938D01*
X105033126Y-118591632D01*
X105226000Y-118704338D01*
X105434692Y-118784030D01*
X105439760Y-118785061D01*
X105439763Y-118785062D01*
X105547008Y-118806881D01*
X105653597Y-118828567D01*
X105658772Y-118828757D01*
X105658774Y-118828757D01*
X105871673Y-118836564D01*
X105871677Y-118836564D01*
X105876837Y-118836753D01*
X105881957Y-118836097D01*
X105881959Y-118836097D01*
X106093288Y-118809025D01*
X106093289Y-118809025D01*
X106098416Y-118808368D01*
X106103366Y-118806883D01*
X106307429Y-118745661D01*
X106307434Y-118745659D01*
X106312384Y-118744174D01*
X106512994Y-118645896D01*
X106694860Y-118516173D01*
X106748304Y-118462916D01*
X106817669Y-118393792D01*
X106853096Y-118358489D01*
X106875130Y-118327826D01*
X106983453Y-118177077D01*
X106984776Y-118178028D01*
X107031645Y-118134857D01*
X107101580Y-118122625D01*
X107167026Y-118150144D01*
X107194875Y-118181994D01*
X107254987Y-118280088D01*
X107401250Y-118448938D01*
X107573126Y-118591632D01*
X107766000Y-118704338D01*
X107974692Y-118784030D01*
X107979760Y-118785061D01*
X107979763Y-118785062D01*
X108087008Y-118806881D01*
X108193597Y-118828567D01*
X108198772Y-118828757D01*
X108198774Y-118828757D01*
X108411673Y-118836564D01*
X108411677Y-118836564D01*
X108416837Y-118836753D01*
X108421957Y-118836097D01*
X108421959Y-118836097D01*
X108633288Y-118809025D01*
X108633289Y-118809025D01*
X108638416Y-118808368D01*
X108643366Y-118806883D01*
X108847429Y-118745661D01*
X108847434Y-118745659D01*
X108852384Y-118744174D01*
X109052994Y-118645896D01*
X109234860Y-118516173D01*
X109288304Y-118462916D01*
X109357669Y-118393792D01*
X109393096Y-118358489D01*
X109415130Y-118327826D01*
X109523453Y-118177077D01*
X109524776Y-118178028D01*
X109571645Y-118134857D01*
X109641580Y-118122625D01*
X109707026Y-118150144D01*
X109734875Y-118181994D01*
X109794987Y-118280088D01*
X109941250Y-118448938D01*
X110113126Y-118591632D01*
X110306000Y-118704338D01*
X110514692Y-118784030D01*
X110519760Y-118785061D01*
X110519763Y-118785062D01*
X110627008Y-118806881D01*
X110733597Y-118828567D01*
X110738772Y-118828757D01*
X110738774Y-118828757D01*
X110951673Y-118836564D01*
X110951677Y-118836564D01*
X110956837Y-118836753D01*
X110961957Y-118836097D01*
X110961959Y-118836097D01*
X111173288Y-118809025D01*
X111173289Y-118809025D01*
X111178416Y-118808368D01*
X111183366Y-118806883D01*
X111387429Y-118745661D01*
X111387434Y-118745659D01*
X111392384Y-118744174D01*
X111592994Y-118645896D01*
X111774860Y-118516173D01*
X111828304Y-118462916D01*
X111897669Y-118393792D01*
X111933096Y-118358489D01*
X111955130Y-118327826D01*
X112063453Y-118177077D01*
X112064776Y-118178028D01*
X112111645Y-118134857D01*
X112181580Y-118122625D01*
X112247026Y-118150144D01*
X112274875Y-118181994D01*
X112334987Y-118280088D01*
X112481250Y-118448938D01*
X112653126Y-118591632D01*
X112846000Y-118704338D01*
X113054692Y-118784030D01*
X113059760Y-118785061D01*
X113059763Y-118785062D01*
X113167008Y-118806881D01*
X113273597Y-118828567D01*
X113278772Y-118828757D01*
X113278774Y-118828757D01*
X113491673Y-118836564D01*
X113491677Y-118836564D01*
X113496837Y-118836753D01*
X113501957Y-118836097D01*
X113501959Y-118836097D01*
X113713288Y-118809025D01*
X113713289Y-118809025D01*
X113718416Y-118808368D01*
X113723366Y-118806883D01*
X113927429Y-118745661D01*
X113927434Y-118745659D01*
X113932384Y-118744174D01*
X114132994Y-118645896D01*
X114314860Y-118516173D01*
X114368304Y-118462916D01*
X114437669Y-118393792D01*
X114473096Y-118358489D01*
X114495130Y-118327826D01*
X114603453Y-118177077D01*
X114604776Y-118178028D01*
X114651645Y-118134857D01*
X114721580Y-118122625D01*
X114787026Y-118150144D01*
X114814875Y-118181994D01*
X114874987Y-118280088D01*
X115021250Y-118448938D01*
X115193126Y-118591632D01*
X115386000Y-118704338D01*
X115594692Y-118784030D01*
X115599760Y-118785061D01*
X115599763Y-118785062D01*
X115707008Y-118806881D01*
X115813597Y-118828567D01*
X115818772Y-118828757D01*
X115818774Y-118828757D01*
X116031673Y-118836564D01*
X116031677Y-118836564D01*
X116036837Y-118836753D01*
X116041957Y-118836097D01*
X116041959Y-118836097D01*
X116253288Y-118809025D01*
X116253289Y-118809025D01*
X116258416Y-118808368D01*
X116263366Y-118806883D01*
X116467429Y-118745661D01*
X116467434Y-118745659D01*
X116472384Y-118744174D01*
X116672994Y-118645896D01*
X116854860Y-118516173D01*
X116908304Y-118462916D01*
X116977669Y-118393792D01*
X117013096Y-118358489D01*
X117035130Y-118327826D01*
X117143453Y-118177077D01*
X117144776Y-118178028D01*
X117191645Y-118134857D01*
X117261580Y-118122625D01*
X117327026Y-118150144D01*
X117354875Y-118181994D01*
X117414987Y-118280088D01*
X117561250Y-118448938D01*
X117733126Y-118591632D01*
X117926000Y-118704338D01*
X118134692Y-118784030D01*
X118139760Y-118785061D01*
X118139763Y-118785062D01*
X118247008Y-118806881D01*
X118353597Y-118828567D01*
X118358772Y-118828757D01*
X118358774Y-118828757D01*
X118571673Y-118836564D01*
X118571677Y-118836564D01*
X118576837Y-118836753D01*
X118581957Y-118836097D01*
X118581959Y-118836097D01*
X118793288Y-118809025D01*
X118793289Y-118809025D01*
X118798416Y-118808368D01*
X118803366Y-118806883D01*
X119007429Y-118745661D01*
X119007434Y-118745659D01*
X119012384Y-118744174D01*
X119212994Y-118645896D01*
X119394860Y-118516173D01*
X119448304Y-118462916D01*
X119517669Y-118393792D01*
X119553096Y-118358489D01*
X119575130Y-118327826D01*
X119683453Y-118177077D01*
X119684776Y-118178028D01*
X119731645Y-118134857D01*
X119801580Y-118122625D01*
X119867026Y-118150144D01*
X119894875Y-118181994D01*
X119954987Y-118280088D01*
X120101250Y-118448938D01*
X120273126Y-118591632D01*
X120466000Y-118704338D01*
X120674692Y-118784030D01*
X120679760Y-118785061D01*
X120679763Y-118785062D01*
X120787008Y-118806881D01*
X120893597Y-118828567D01*
X120898772Y-118828757D01*
X120898774Y-118828757D01*
X121111673Y-118836564D01*
X121111677Y-118836564D01*
X121116837Y-118836753D01*
X121121957Y-118836097D01*
X121121959Y-118836097D01*
X121333288Y-118809025D01*
X121333289Y-118809025D01*
X121338416Y-118808368D01*
X121343366Y-118806883D01*
X121547429Y-118745661D01*
X121547434Y-118745659D01*
X121552384Y-118744174D01*
X121752994Y-118645896D01*
X121934860Y-118516173D01*
X121988304Y-118462916D01*
X122057669Y-118393792D01*
X122093096Y-118358489D01*
X122115130Y-118327826D01*
X122220435Y-118181277D01*
X122223453Y-118177077D01*
X122236644Y-118150388D01*
X122320136Y-117981453D01*
X122320137Y-117981451D01*
X122322430Y-117976811D01*
X122387370Y-117763069D01*
X122416529Y-117541590D01*
X122418156Y-117475000D01*
X122399852Y-117252361D01*
X122345431Y-117035702D01*
X122256354Y-116830840D01*
X122175488Y-116705840D01*
X122137822Y-116647617D01*
X122137820Y-116647614D01*
X122135014Y-116643277D01*
X121984670Y-116478051D01*
X121980619Y-116474852D01*
X121980615Y-116474848D01*
X121813414Y-116342800D01*
X121813410Y-116342798D01*
X121809359Y-116339598D01*
X121793123Y-116330635D01*
X121767569Y-116316529D01*
X121717598Y-116266097D01*
X121702826Y-116196654D01*
X121727942Y-116130248D01*
X121755294Y-116103641D01*
X121930328Y-115978792D01*
X121938200Y-115972139D01*
X122089052Y-115821812D01*
X122095730Y-115813965D01*
X122220003Y-115641020D01*
X122225313Y-115632183D01*
X122319670Y-115441267D01*
X122323469Y-115431672D01*
X122385377Y-115227910D01*
X122387555Y-115217837D01*
X122388986Y-115206962D01*
X122386775Y-115192778D01*
X122373617Y-115189000D01*
X101958225Y-115189000D01*
X101944694Y-115192973D01*
X101943257Y-115202966D01*
X101973565Y-115337446D01*
X101976645Y-115347275D01*
X102056770Y-115544603D01*
X102061413Y-115553794D01*
X102172694Y-115735388D01*
X102178777Y-115743699D01*
X102318213Y-115904667D01*
X102325577Y-115911879D01*
X102330522Y-115915985D01*
X102370156Y-115974889D01*
X102371653Y-116045870D01*
X102334537Y-116106392D01*
X102294264Y-116130910D01*
X102186705Y-116171232D01*
X102186704Y-116171233D01*
X102178295Y-116174385D01*
X102061739Y-116261739D01*
X101974385Y-116378295D01*
X101923255Y-116514684D01*
X101916500Y-116576866D01*
X101916500Y-118373134D01*
X90508500Y-118373134D01*
X90508500Y-114669183D01*
X101939389Y-114669183D01*
X101940912Y-114677607D01*
X101953292Y-114681000D01*
X103002885Y-114681000D01*
X103018124Y-114676525D01*
X103019329Y-114675135D01*
X103021000Y-114667452D01*
X103021000Y-114662885D01*
X103529000Y-114662885D01*
X103533475Y-114678124D01*
X103534865Y-114679329D01*
X103542548Y-114681000D01*
X105542885Y-114681000D01*
X105558124Y-114676525D01*
X105559329Y-114675135D01*
X105561000Y-114667452D01*
X105561000Y-114662885D01*
X106069000Y-114662885D01*
X106073475Y-114678124D01*
X106074865Y-114679329D01*
X106082548Y-114681000D01*
X108082885Y-114681000D01*
X108098124Y-114676525D01*
X108099329Y-114675135D01*
X108101000Y-114667452D01*
X108101000Y-114662885D01*
X108609000Y-114662885D01*
X108613475Y-114678124D01*
X108614865Y-114679329D01*
X108622548Y-114681000D01*
X110622885Y-114681000D01*
X110638124Y-114676525D01*
X110639329Y-114675135D01*
X110641000Y-114667452D01*
X110641000Y-114662885D01*
X111149000Y-114662885D01*
X111153475Y-114678124D01*
X111154865Y-114679329D01*
X111162548Y-114681000D01*
X113162885Y-114681000D01*
X113178124Y-114676525D01*
X113179329Y-114675135D01*
X113181000Y-114667452D01*
X113181000Y-114662885D01*
X113689000Y-114662885D01*
X113693475Y-114678124D01*
X113694865Y-114679329D01*
X113702548Y-114681000D01*
X115702885Y-114681000D01*
X115718124Y-114676525D01*
X115719329Y-114675135D01*
X115721000Y-114667452D01*
X115721000Y-114662885D01*
X116229000Y-114662885D01*
X116233475Y-114678124D01*
X116234865Y-114679329D01*
X116242548Y-114681000D01*
X118242885Y-114681000D01*
X118258124Y-114676525D01*
X118259329Y-114675135D01*
X118261000Y-114667452D01*
X118261000Y-114662885D01*
X118769000Y-114662885D01*
X118773475Y-114678124D01*
X118774865Y-114679329D01*
X118782548Y-114681000D01*
X120782885Y-114681000D01*
X120798124Y-114676525D01*
X120799329Y-114675135D01*
X120801000Y-114667452D01*
X120801000Y-114662885D01*
X121309000Y-114662885D01*
X121313475Y-114678124D01*
X121314865Y-114679329D01*
X121322548Y-114681000D01*
X122373344Y-114681000D01*
X122386875Y-114677027D01*
X122388002Y-114669183D01*
X123489389Y-114669183D01*
X123490912Y-114677607D01*
X123503292Y-114681000D01*
X124552885Y-114681000D01*
X124568124Y-114676525D01*
X124569329Y-114675135D01*
X124571000Y-114667452D01*
X124571000Y-114662885D01*
X125079000Y-114662885D01*
X125083475Y-114678124D01*
X125084865Y-114679329D01*
X125092548Y-114681000D01*
X127092885Y-114681000D01*
X127108124Y-114676525D01*
X127109329Y-114675135D01*
X127111000Y-114667452D01*
X127111000Y-114662885D01*
X127619000Y-114662885D01*
X127623475Y-114678124D01*
X127624865Y-114679329D01*
X127632548Y-114681000D01*
X129632885Y-114681000D01*
X129648124Y-114676525D01*
X129649329Y-114675135D01*
X129651000Y-114667452D01*
X129651000Y-114662885D01*
X130159000Y-114662885D01*
X130163475Y-114678124D01*
X130164865Y-114679329D01*
X130172548Y-114681000D01*
X132172885Y-114681000D01*
X132188124Y-114676525D01*
X132189329Y-114675135D01*
X132191000Y-114667452D01*
X132191000Y-114662885D01*
X132699000Y-114662885D01*
X132703475Y-114678124D01*
X132704865Y-114679329D01*
X132712548Y-114681000D01*
X134712885Y-114681000D01*
X134728124Y-114676525D01*
X134729329Y-114675135D01*
X134731000Y-114667452D01*
X134731000Y-114662885D01*
X135239000Y-114662885D01*
X135243475Y-114678124D01*
X135244865Y-114679329D01*
X135252548Y-114681000D01*
X137252885Y-114681000D01*
X137268124Y-114676525D01*
X137269329Y-114675135D01*
X137271000Y-114667452D01*
X137271000Y-114662885D01*
X137779000Y-114662885D01*
X137783475Y-114678124D01*
X137784865Y-114679329D01*
X137792548Y-114681000D01*
X139792885Y-114681000D01*
X139808124Y-114676525D01*
X139809329Y-114675135D01*
X139811000Y-114667452D01*
X139811000Y-114662885D01*
X140319000Y-114662885D01*
X140323475Y-114678124D01*
X140324865Y-114679329D01*
X140332548Y-114681000D01*
X142332885Y-114681000D01*
X142348124Y-114676525D01*
X142349329Y-114675135D01*
X142351000Y-114667452D01*
X142351000Y-114662885D01*
X142859000Y-114662885D01*
X142863475Y-114678124D01*
X142864865Y-114679329D01*
X142872548Y-114681000D01*
X143923344Y-114681000D01*
X143936875Y-114677027D01*
X143938180Y-114667947D01*
X143896214Y-114500875D01*
X143892894Y-114491124D01*
X143807972Y-114295814D01*
X143803105Y-114286739D01*
X143687426Y-114107926D01*
X143681136Y-114099757D01*
X143537806Y-113942240D01*
X143530273Y-113935215D01*
X143363139Y-113803222D01*
X143354552Y-113797517D01*
X143168117Y-113694599D01*
X143158705Y-113690369D01*
X142957959Y-113619280D01*
X142947988Y-113616646D01*
X142876837Y-113603972D01*
X142863540Y-113605432D01*
X142859000Y-113619989D01*
X142859000Y-114662885D01*
X142351000Y-114662885D01*
X142351000Y-113618102D01*
X142347082Y-113604758D01*
X142332806Y-113602771D01*
X142294324Y-113608660D01*
X142284288Y-113611051D01*
X142081868Y-113677212D01*
X142072359Y-113681209D01*
X141883463Y-113779542D01*
X141874738Y-113785036D01*
X141704433Y-113912905D01*
X141696726Y-113919748D01*
X141549590Y-114073717D01*
X141543104Y-114081727D01*
X141438193Y-114235521D01*
X141383282Y-114280524D01*
X141312757Y-114288695D01*
X141249010Y-114257441D01*
X141228313Y-114232957D01*
X141147427Y-114107926D01*
X141141136Y-114099757D01*
X140997806Y-113942240D01*
X140990273Y-113935215D01*
X140823139Y-113803222D01*
X140814552Y-113797517D01*
X140628117Y-113694599D01*
X140618705Y-113690369D01*
X140417959Y-113619280D01*
X140407988Y-113616646D01*
X140336837Y-113603972D01*
X140323540Y-113605432D01*
X140319000Y-113619989D01*
X140319000Y-114662885D01*
X139811000Y-114662885D01*
X139811000Y-113618102D01*
X139807082Y-113604758D01*
X139792806Y-113602771D01*
X139754324Y-113608660D01*
X139744288Y-113611051D01*
X139541868Y-113677212D01*
X139532359Y-113681209D01*
X139343463Y-113779542D01*
X139334738Y-113785036D01*
X139164433Y-113912905D01*
X139156726Y-113919748D01*
X139009590Y-114073717D01*
X139003104Y-114081727D01*
X138898193Y-114235521D01*
X138843282Y-114280524D01*
X138772757Y-114288695D01*
X138709010Y-114257441D01*
X138688313Y-114232957D01*
X138607427Y-114107926D01*
X138601136Y-114099757D01*
X138457806Y-113942240D01*
X138450273Y-113935215D01*
X138283139Y-113803222D01*
X138274552Y-113797517D01*
X138088117Y-113694599D01*
X138078705Y-113690369D01*
X137877959Y-113619280D01*
X137867988Y-113616646D01*
X137796837Y-113603972D01*
X137783540Y-113605432D01*
X137779000Y-113619989D01*
X137779000Y-114662885D01*
X137271000Y-114662885D01*
X137271000Y-113618102D01*
X137267082Y-113604758D01*
X137252806Y-113602771D01*
X137214324Y-113608660D01*
X137204288Y-113611051D01*
X137001868Y-113677212D01*
X136992359Y-113681209D01*
X136803463Y-113779542D01*
X136794738Y-113785036D01*
X136624433Y-113912905D01*
X136616726Y-113919748D01*
X136469590Y-114073717D01*
X136463104Y-114081727D01*
X136358193Y-114235521D01*
X136303282Y-114280524D01*
X136232757Y-114288695D01*
X136169010Y-114257441D01*
X136148313Y-114232957D01*
X136067427Y-114107926D01*
X136061136Y-114099757D01*
X135917806Y-113942240D01*
X135910273Y-113935215D01*
X135743139Y-113803222D01*
X135734552Y-113797517D01*
X135548117Y-113694599D01*
X135538705Y-113690369D01*
X135337959Y-113619280D01*
X135327988Y-113616646D01*
X135256837Y-113603972D01*
X135243540Y-113605432D01*
X135239000Y-113619989D01*
X135239000Y-114662885D01*
X134731000Y-114662885D01*
X134731000Y-113618102D01*
X134727082Y-113604758D01*
X134712806Y-113602771D01*
X134674324Y-113608660D01*
X134664288Y-113611051D01*
X134461868Y-113677212D01*
X134452359Y-113681209D01*
X134263463Y-113779542D01*
X134254738Y-113785036D01*
X134084433Y-113912905D01*
X134076726Y-113919748D01*
X133929590Y-114073717D01*
X133923104Y-114081727D01*
X133818193Y-114235521D01*
X133763282Y-114280524D01*
X133692757Y-114288695D01*
X133629010Y-114257441D01*
X133608313Y-114232957D01*
X133527427Y-114107926D01*
X133521136Y-114099757D01*
X133377806Y-113942240D01*
X133370273Y-113935215D01*
X133203139Y-113803222D01*
X133194552Y-113797517D01*
X133008117Y-113694599D01*
X132998705Y-113690369D01*
X132797959Y-113619280D01*
X132787988Y-113616646D01*
X132716837Y-113603972D01*
X132703540Y-113605432D01*
X132699000Y-113619989D01*
X132699000Y-114662885D01*
X132191000Y-114662885D01*
X132191000Y-113618102D01*
X132187082Y-113604758D01*
X132172806Y-113602771D01*
X132134324Y-113608660D01*
X132124288Y-113611051D01*
X131921868Y-113677212D01*
X131912359Y-113681209D01*
X131723463Y-113779542D01*
X131714738Y-113785036D01*
X131544433Y-113912905D01*
X131536726Y-113919748D01*
X131389590Y-114073717D01*
X131383104Y-114081727D01*
X131278193Y-114235521D01*
X131223282Y-114280524D01*
X131152757Y-114288695D01*
X131089010Y-114257441D01*
X131068313Y-114232957D01*
X130987427Y-114107926D01*
X130981136Y-114099757D01*
X130837806Y-113942240D01*
X130830273Y-113935215D01*
X130663139Y-113803222D01*
X130654552Y-113797517D01*
X130468117Y-113694599D01*
X130458705Y-113690369D01*
X130257959Y-113619280D01*
X130247988Y-113616646D01*
X130176837Y-113603972D01*
X130163540Y-113605432D01*
X130159000Y-113619989D01*
X130159000Y-114662885D01*
X129651000Y-114662885D01*
X129651000Y-113618102D01*
X129647082Y-113604758D01*
X129632806Y-113602771D01*
X129594324Y-113608660D01*
X129584288Y-113611051D01*
X129381868Y-113677212D01*
X129372359Y-113681209D01*
X129183463Y-113779542D01*
X129174738Y-113785036D01*
X129004433Y-113912905D01*
X128996726Y-113919748D01*
X128849590Y-114073717D01*
X128843104Y-114081727D01*
X128738193Y-114235521D01*
X128683282Y-114280524D01*
X128612757Y-114288695D01*
X128549010Y-114257441D01*
X128528313Y-114232957D01*
X128447427Y-114107926D01*
X128441136Y-114099757D01*
X128297806Y-113942240D01*
X128290273Y-113935215D01*
X128123139Y-113803222D01*
X128114552Y-113797517D01*
X127928117Y-113694599D01*
X127918705Y-113690369D01*
X127717959Y-113619280D01*
X127707988Y-113616646D01*
X127636837Y-113603972D01*
X127623540Y-113605432D01*
X127619000Y-113619989D01*
X127619000Y-114662885D01*
X127111000Y-114662885D01*
X127111000Y-113618102D01*
X127107082Y-113604758D01*
X127092806Y-113602771D01*
X127054324Y-113608660D01*
X127044288Y-113611051D01*
X126841868Y-113677212D01*
X126832359Y-113681209D01*
X126643463Y-113779542D01*
X126634738Y-113785036D01*
X126464433Y-113912905D01*
X126456726Y-113919748D01*
X126309590Y-114073717D01*
X126303104Y-114081727D01*
X126198193Y-114235521D01*
X126143282Y-114280524D01*
X126072757Y-114288695D01*
X126009010Y-114257441D01*
X125988313Y-114232957D01*
X125907427Y-114107926D01*
X125901136Y-114099757D01*
X125757806Y-113942240D01*
X125750273Y-113935215D01*
X125583139Y-113803222D01*
X125574552Y-113797517D01*
X125388117Y-113694599D01*
X125378705Y-113690369D01*
X125177959Y-113619280D01*
X125167988Y-113616646D01*
X125096837Y-113603972D01*
X125083540Y-113605432D01*
X125079000Y-113619989D01*
X125079000Y-114662885D01*
X124571000Y-114662885D01*
X124571000Y-113618102D01*
X124567082Y-113604758D01*
X124552806Y-113602771D01*
X124514324Y-113608660D01*
X124504288Y-113611051D01*
X124301868Y-113677212D01*
X124292359Y-113681209D01*
X124103463Y-113779542D01*
X124094738Y-113785036D01*
X123924433Y-113912905D01*
X123916726Y-113919748D01*
X123769590Y-114073717D01*
X123763104Y-114081727D01*
X123643098Y-114257649D01*
X123638000Y-114266623D01*
X123548338Y-114459783D01*
X123544775Y-114469470D01*
X123489389Y-114669183D01*
X122388002Y-114669183D01*
X122388180Y-114667947D01*
X122346214Y-114500875D01*
X122342894Y-114491124D01*
X122257972Y-114295814D01*
X122253105Y-114286739D01*
X122137426Y-114107926D01*
X122131136Y-114099757D01*
X121987806Y-113942240D01*
X121980273Y-113935215D01*
X121813139Y-113803222D01*
X121804552Y-113797517D01*
X121618117Y-113694599D01*
X121608705Y-113690369D01*
X121407959Y-113619280D01*
X121397988Y-113616646D01*
X121326837Y-113603972D01*
X121313540Y-113605432D01*
X121309000Y-113619989D01*
X121309000Y-114662885D01*
X120801000Y-114662885D01*
X120801000Y-113618102D01*
X120797082Y-113604758D01*
X120782806Y-113602771D01*
X120744324Y-113608660D01*
X120734288Y-113611051D01*
X120531868Y-113677212D01*
X120522359Y-113681209D01*
X120333463Y-113779542D01*
X120324738Y-113785036D01*
X120154433Y-113912905D01*
X120146726Y-113919748D01*
X119999590Y-114073717D01*
X119993104Y-114081727D01*
X119888193Y-114235521D01*
X119833282Y-114280524D01*
X119762757Y-114288695D01*
X119699010Y-114257441D01*
X119678313Y-114232957D01*
X119597427Y-114107926D01*
X119591136Y-114099757D01*
X119447806Y-113942240D01*
X119440273Y-113935215D01*
X119273139Y-113803222D01*
X119264552Y-113797517D01*
X119078117Y-113694599D01*
X119068705Y-113690369D01*
X118867959Y-113619280D01*
X118857988Y-113616646D01*
X118786837Y-113603972D01*
X118773540Y-113605432D01*
X118769000Y-113619989D01*
X118769000Y-114662885D01*
X118261000Y-114662885D01*
X118261000Y-113618102D01*
X118257082Y-113604758D01*
X118242806Y-113602771D01*
X118204324Y-113608660D01*
X118194288Y-113611051D01*
X117991868Y-113677212D01*
X117982359Y-113681209D01*
X117793463Y-113779542D01*
X117784738Y-113785036D01*
X117614433Y-113912905D01*
X117606726Y-113919748D01*
X117459590Y-114073717D01*
X117453104Y-114081727D01*
X117348193Y-114235521D01*
X117293282Y-114280524D01*
X117222757Y-114288695D01*
X117159010Y-114257441D01*
X117138313Y-114232957D01*
X117057427Y-114107926D01*
X117051136Y-114099757D01*
X116907806Y-113942240D01*
X116900273Y-113935215D01*
X116733139Y-113803222D01*
X116724552Y-113797517D01*
X116538117Y-113694599D01*
X116528705Y-113690369D01*
X116327959Y-113619280D01*
X116317988Y-113616646D01*
X116246837Y-113603972D01*
X116233540Y-113605432D01*
X116229000Y-113619989D01*
X116229000Y-114662885D01*
X115721000Y-114662885D01*
X115721000Y-113618102D01*
X115717082Y-113604758D01*
X115702806Y-113602771D01*
X115664324Y-113608660D01*
X115654288Y-113611051D01*
X115451868Y-113677212D01*
X115442359Y-113681209D01*
X115253463Y-113779542D01*
X115244738Y-113785036D01*
X115074433Y-113912905D01*
X115066726Y-113919748D01*
X114919590Y-114073717D01*
X114913104Y-114081727D01*
X114808193Y-114235521D01*
X114753282Y-114280524D01*
X114682757Y-114288695D01*
X114619010Y-114257441D01*
X114598313Y-114232957D01*
X114517427Y-114107926D01*
X114511136Y-114099757D01*
X114367806Y-113942240D01*
X114360273Y-113935215D01*
X114193139Y-113803222D01*
X114184552Y-113797517D01*
X113998117Y-113694599D01*
X113988705Y-113690369D01*
X113787959Y-113619280D01*
X113777988Y-113616646D01*
X113706837Y-113603972D01*
X113693540Y-113605432D01*
X113689000Y-113619989D01*
X113689000Y-114662885D01*
X113181000Y-114662885D01*
X113181000Y-113618102D01*
X113177082Y-113604758D01*
X113162806Y-113602771D01*
X113124324Y-113608660D01*
X113114288Y-113611051D01*
X112911868Y-113677212D01*
X112902359Y-113681209D01*
X112713463Y-113779542D01*
X112704738Y-113785036D01*
X112534433Y-113912905D01*
X112526726Y-113919748D01*
X112379590Y-114073717D01*
X112373104Y-114081727D01*
X112268193Y-114235521D01*
X112213282Y-114280524D01*
X112142757Y-114288695D01*
X112079010Y-114257441D01*
X112058313Y-114232957D01*
X111977427Y-114107926D01*
X111971136Y-114099757D01*
X111827806Y-113942240D01*
X111820273Y-113935215D01*
X111653139Y-113803222D01*
X111644552Y-113797517D01*
X111458117Y-113694599D01*
X111448705Y-113690369D01*
X111247959Y-113619280D01*
X111237988Y-113616646D01*
X111166837Y-113603972D01*
X111153540Y-113605432D01*
X111149000Y-113619989D01*
X111149000Y-114662885D01*
X110641000Y-114662885D01*
X110641000Y-113618102D01*
X110637082Y-113604758D01*
X110622806Y-113602771D01*
X110584324Y-113608660D01*
X110574288Y-113611051D01*
X110371868Y-113677212D01*
X110362359Y-113681209D01*
X110173463Y-113779542D01*
X110164738Y-113785036D01*
X109994433Y-113912905D01*
X109986726Y-113919748D01*
X109839590Y-114073717D01*
X109833104Y-114081727D01*
X109728193Y-114235521D01*
X109673282Y-114280524D01*
X109602757Y-114288695D01*
X109539010Y-114257441D01*
X109518313Y-114232957D01*
X109437427Y-114107926D01*
X109431136Y-114099757D01*
X109287806Y-113942240D01*
X109280273Y-113935215D01*
X109113139Y-113803222D01*
X109104552Y-113797517D01*
X108918117Y-113694599D01*
X108908705Y-113690369D01*
X108707959Y-113619280D01*
X108697988Y-113616646D01*
X108626837Y-113603972D01*
X108613540Y-113605432D01*
X108609000Y-113619989D01*
X108609000Y-114662885D01*
X108101000Y-114662885D01*
X108101000Y-113618102D01*
X108097082Y-113604758D01*
X108082806Y-113602771D01*
X108044324Y-113608660D01*
X108034288Y-113611051D01*
X107831868Y-113677212D01*
X107822359Y-113681209D01*
X107633463Y-113779542D01*
X107624738Y-113785036D01*
X107454433Y-113912905D01*
X107446726Y-113919748D01*
X107299590Y-114073717D01*
X107293104Y-114081727D01*
X107188193Y-114235521D01*
X107133282Y-114280524D01*
X107062757Y-114288695D01*
X106999010Y-114257441D01*
X106978313Y-114232957D01*
X106897427Y-114107926D01*
X106891136Y-114099757D01*
X106747806Y-113942240D01*
X106740273Y-113935215D01*
X106573139Y-113803222D01*
X106564552Y-113797517D01*
X106378117Y-113694599D01*
X106368705Y-113690369D01*
X106167959Y-113619280D01*
X106157988Y-113616646D01*
X106086837Y-113603972D01*
X106073540Y-113605432D01*
X106069000Y-113619989D01*
X106069000Y-114662885D01*
X105561000Y-114662885D01*
X105561000Y-113618102D01*
X105557082Y-113604758D01*
X105542806Y-113602771D01*
X105504324Y-113608660D01*
X105494288Y-113611051D01*
X105291868Y-113677212D01*
X105282359Y-113681209D01*
X105093463Y-113779542D01*
X105084738Y-113785036D01*
X104914433Y-113912905D01*
X104906726Y-113919748D01*
X104759590Y-114073717D01*
X104753104Y-114081727D01*
X104648193Y-114235521D01*
X104593282Y-114280524D01*
X104522757Y-114288695D01*
X104459010Y-114257441D01*
X104438313Y-114232957D01*
X104357427Y-114107926D01*
X104351136Y-114099757D01*
X104207806Y-113942240D01*
X104200273Y-113935215D01*
X104033139Y-113803222D01*
X104024552Y-113797517D01*
X103838117Y-113694599D01*
X103828705Y-113690369D01*
X103627959Y-113619280D01*
X103617988Y-113616646D01*
X103546837Y-113603972D01*
X103533540Y-113605432D01*
X103529000Y-113619989D01*
X103529000Y-114662885D01*
X103021000Y-114662885D01*
X103021000Y-113618102D01*
X103017082Y-113604758D01*
X103002806Y-113602771D01*
X102964324Y-113608660D01*
X102954288Y-113611051D01*
X102751868Y-113677212D01*
X102742359Y-113681209D01*
X102553463Y-113779542D01*
X102544738Y-113785036D01*
X102374433Y-113912905D01*
X102366726Y-113919748D01*
X102219590Y-114073717D01*
X102213104Y-114081727D01*
X102093098Y-114257649D01*
X102088000Y-114266623D01*
X101998338Y-114459783D01*
X101994775Y-114469470D01*
X101939389Y-114669183D01*
X90508500Y-114669183D01*
X90508500Y-109892966D01*
X91403257Y-109892966D01*
X91433565Y-110027446D01*
X91436645Y-110037275D01*
X91516770Y-110234603D01*
X91521413Y-110243794D01*
X91632694Y-110425388D01*
X91638777Y-110433699D01*
X91778213Y-110594667D01*
X91785580Y-110601883D01*
X91949434Y-110737916D01*
X91957881Y-110743831D01*
X92141756Y-110851279D01*
X92151042Y-110855729D01*
X92350001Y-110931703D01*
X92359899Y-110934579D01*
X92463250Y-110955606D01*
X92477299Y-110954410D01*
X92481000Y-110944065D01*
X92481000Y-110943517D01*
X92989000Y-110943517D01*
X92993064Y-110957359D01*
X93006478Y-110959393D01*
X93013184Y-110958534D01*
X93023262Y-110956392D01*
X93227255Y-110895191D01*
X93236842Y-110891433D01*
X93428095Y-110797739D01*
X93436945Y-110792464D01*
X93610328Y-110668792D01*
X93618193Y-110662145D01*
X93722897Y-110557805D01*
X93785268Y-110523889D01*
X93856075Y-110529077D01*
X93912837Y-110571723D01*
X93929819Y-110602826D01*
X93931314Y-110606814D01*
X93974385Y-110721705D01*
X94061739Y-110838261D01*
X94178295Y-110925615D01*
X94314684Y-110976745D01*
X94376866Y-110983500D01*
X96173134Y-110983500D01*
X96235316Y-110976745D01*
X96371705Y-110925615D01*
X96488261Y-110838261D01*
X96575615Y-110721705D01*
X96626745Y-110585316D01*
X96633500Y-110523134D01*
X96633500Y-110450000D01*
X96653502Y-110381879D01*
X96707158Y-110335386D01*
X96759500Y-110324000D01*
X111372901Y-110324000D01*
X111381471Y-110324292D01*
X111430777Y-110327654D01*
X111430781Y-110327654D01*
X111438352Y-110328170D01*
X111445828Y-110326865D01*
X111445832Y-110326865D01*
X111500424Y-110317337D01*
X111506949Y-110316374D01*
X111561918Y-110309722D01*
X111561920Y-110309721D01*
X111569460Y-110308809D01*
X111576562Y-110306125D01*
X111580000Y-110305281D01*
X111594123Y-110301417D01*
X111597534Y-110300387D01*
X111605017Y-110299081D01*
X111662697Y-110273761D01*
X111668804Y-110271270D01*
X111720617Y-110251691D01*
X111720618Y-110251690D01*
X111727722Y-110249006D01*
X111733977Y-110244707D01*
X111737118Y-110243065D01*
X111749872Y-110235967D01*
X111752978Y-110234130D01*
X111759933Y-110231077D01*
X111765960Y-110226452D01*
X111765964Y-110226450D01*
X111809902Y-110192735D01*
X111815220Y-110188871D01*
X111867152Y-110153179D01*
X111908019Y-110107311D01*
X111912999Y-110102036D01*
X116075973Y-105939063D01*
X116138870Y-105904911D01*
X116308788Y-105868794D01*
X116369782Y-105841638D01*
X116477222Y-105793803D01*
X116477224Y-105793802D01*
X116483252Y-105791118D01*
X116637753Y-105678866D01*
X116642175Y-105673955D01*
X116761121Y-105541852D01*
X116761122Y-105541851D01*
X116765540Y-105536944D01*
X116861027Y-105371556D01*
X116920042Y-105189928D01*
X116922866Y-105163065D01*
X116939314Y-105006565D01*
X116940004Y-105000000D01*
X116922995Y-104838170D01*
X116935767Y-104768332D01*
X116984269Y-104716485D01*
X117048305Y-104699000D01*
X134371401Y-104699000D01*
X134379971Y-104699292D01*
X134429277Y-104702654D01*
X134429281Y-104702654D01*
X134436852Y-104703170D01*
X134444328Y-104701865D01*
X134444332Y-104701865D01*
X134498924Y-104692337D01*
X134505449Y-104691374D01*
X134560418Y-104684722D01*
X134560420Y-104684721D01*
X134567960Y-104683809D01*
X134575062Y-104681125D01*
X134578500Y-104680281D01*
X134592623Y-104676417D01*
X134596034Y-104675387D01*
X134603517Y-104674081D01*
X134661197Y-104648761D01*
X134667304Y-104646270D01*
X134719117Y-104626691D01*
X134719118Y-104626690D01*
X134726222Y-104624006D01*
X134732477Y-104619707D01*
X134735618Y-104618065D01*
X134748372Y-104610967D01*
X134751478Y-104609130D01*
X134758433Y-104606077D01*
X134764460Y-104601452D01*
X134764464Y-104601450D01*
X134808402Y-104567735D01*
X134813720Y-104563871D01*
X134865652Y-104528179D01*
X134906519Y-104482311D01*
X134911499Y-104477036D01*
X137588535Y-101800000D01*
X152186496Y-101800000D01*
X152187186Y-101806565D01*
X152204542Y-101971695D01*
X152206458Y-101989928D01*
X152265473Y-102171556D01*
X152268776Y-102177278D01*
X152268777Y-102177279D01*
X152278844Y-102194715D01*
X152360960Y-102336944D01*
X152488747Y-102478866D01*
X152582807Y-102547205D01*
X152620625Y-102574681D01*
X152643248Y-102591118D01*
X152649276Y-102593802D01*
X152649278Y-102593803D01*
X152811681Y-102666109D01*
X152817712Y-102668794D01*
X152987631Y-102704912D01*
X153050528Y-102739063D01*
X153264095Y-102952630D01*
X153298121Y-103014942D01*
X153301000Y-103041725D01*
X153301000Y-108370221D01*
X153280998Y-108438342D01*
X153268641Y-108454525D01*
X153260960Y-108463056D01*
X153165473Y-108628444D01*
X153106458Y-108810072D01*
X153105768Y-108816633D01*
X153105768Y-108816635D01*
X153102015Y-108852342D01*
X153086496Y-109000000D01*
X153087186Y-109006565D01*
X153102239Y-109149783D01*
X153106458Y-109189928D01*
X153165473Y-109371556D01*
X153168776Y-109377278D01*
X153168777Y-109377279D01*
X153174859Y-109387813D01*
X153260960Y-109536944D01*
X153265378Y-109541851D01*
X153265379Y-109541852D01*
X153376361Y-109665110D01*
X153388747Y-109678866D01*
X153543248Y-109791118D01*
X153549276Y-109793802D01*
X153549278Y-109793803D01*
X153711681Y-109866109D01*
X153717712Y-109868794D01*
X153779258Y-109881876D01*
X153898056Y-109907128D01*
X153898061Y-109907128D01*
X153904513Y-109908500D01*
X154095487Y-109908500D01*
X154101939Y-109907128D01*
X154101944Y-109907128D01*
X154220742Y-109881876D01*
X154282288Y-109868794D01*
X154288319Y-109866109D01*
X154450722Y-109793803D01*
X154450724Y-109793802D01*
X154456752Y-109791118D01*
X154611253Y-109678866D01*
X154623639Y-109665110D01*
X154734621Y-109541852D01*
X154734622Y-109541851D01*
X154739040Y-109536944D01*
X154825141Y-109387813D01*
X154831223Y-109377279D01*
X154831224Y-109377278D01*
X154834527Y-109371556D01*
X154893542Y-109189928D01*
X154897762Y-109149783D01*
X154912814Y-109006565D01*
X154913504Y-109000000D01*
X154897985Y-108852342D01*
X154894232Y-108816635D01*
X154894232Y-108816633D01*
X154893542Y-108810072D01*
X154834527Y-108628444D01*
X154739040Y-108463056D01*
X154731363Y-108454530D01*
X154700647Y-108390524D01*
X154699000Y-108370221D01*
X154699000Y-102728589D01*
X154699292Y-102720019D01*
X154702653Y-102670724D01*
X154702653Y-102670720D01*
X154703169Y-102663148D01*
X154692336Y-102601081D01*
X154691380Y-102594607D01*
X154683809Y-102532040D01*
X154681124Y-102524934D01*
X154680281Y-102521501D01*
X154676419Y-102507385D01*
X154675388Y-102503970D01*
X154674081Y-102496483D01*
X154648761Y-102438802D01*
X154646270Y-102432696D01*
X154626691Y-102380883D01*
X154626690Y-102380882D01*
X154624006Y-102373778D01*
X154619707Y-102367523D01*
X154618065Y-102364382D01*
X154610971Y-102351635D01*
X154609130Y-102348523D01*
X154606077Y-102341567D01*
X154567732Y-102291593D01*
X154563861Y-102286266D01*
X154532481Y-102240607D01*
X154532480Y-102240605D01*
X154528179Y-102234348D01*
X154482320Y-102193489D01*
X154477045Y-102188509D01*
X154036243Y-101747707D01*
X154002217Y-101685395D01*
X154000028Y-101671782D01*
X153994232Y-101616637D01*
X153994232Y-101616635D01*
X153993542Y-101610072D01*
X153934527Y-101428444D01*
X153839040Y-101263056D01*
X153762111Y-101177617D01*
X153715675Y-101126045D01*
X153715674Y-101126044D01*
X153711253Y-101121134D01*
X153570329Y-101018746D01*
X153562094Y-101012763D01*
X153562093Y-101012762D01*
X153556752Y-101008882D01*
X153550724Y-101006198D01*
X153550722Y-101006197D01*
X153388319Y-100933891D01*
X153388318Y-100933891D01*
X153382288Y-100931206D01*
X153288887Y-100911353D01*
X153201944Y-100892872D01*
X153201939Y-100892872D01*
X153195487Y-100891500D01*
X153004513Y-100891500D01*
X152998061Y-100892872D01*
X152998056Y-100892872D01*
X152911113Y-100911353D01*
X152817712Y-100931206D01*
X152811682Y-100933891D01*
X152811681Y-100933891D01*
X152649278Y-101006197D01*
X152649276Y-101006198D01*
X152643248Y-101008882D01*
X152637907Y-101012762D01*
X152637906Y-101012763D01*
X152629671Y-101018746D01*
X152488747Y-101121134D01*
X152484326Y-101126044D01*
X152484325Y-101126045D01*
X152437890Y-101177617D01*
X152360960Y-101263056D01*
X152265473Y-101428444D01*
X152206458Y-101610072D01*
X152205768Y-101616633D01*
X152205768Y-101616635D01*
X152187186Y-101793435D01*
X152186496Y-101800000D01*
X137588535Y-101800000D01*
X152324770Y-87063765D01*
X152387082Y-87029739D01*
X152457897Y-87034804D01*
X152487926Y-87050924D01*
X152543248Y-87091118D01*
X152549276Y-87093802D01*
X152549278Y-87093803D01*
X152669963Y-87147535D01*
X152717712Y-87168794D01*
X152805881Y-87187535D01*
X152898056Y-87207128D01*
X152898061Y-87207128D01*
X152904513Y-87208500D01*
X153095487Y-87208500D01*
X153101939Y-87207128D01*
X153101944Y-87207128D01*
X153194119Y-87187535D01*
X153282288Y-87168794D01*
X153330037Y-87147535D01*
X153450722Y-87093803D01*
X153450724Y-87093802D01*
X153456752Y-87091118D01*
X153611253Y-86978866D01*
X153615675Y-86973955D01*
X153734621Y-86841852D01*
X153734622Y-86841851D01*
X153739040Y-86836944D01*
X153834527Y-86671556D01*
X153893542Y-86489928D01*
X153898492Y-86442837D01*
X153912814Y-86306565D01*
X153913504Y-86300000D01*
X153893542Y-86110072D01*
X153834527Y-85928444D01*
X153739040Y-85763056D01*
X153732799Y-85756124D01*
X153615675Y-85626045D01*
X153615674Y-85626044D01*
X153611253Y-85621134D01*
X153456752Y-85508882D01*
X153450724Y-85506198D01*
X153450722Y-85506197D01*
X153288319Y-85433891D01*
X153288318Y-85433891D01*
X153282288Y-85431206D01*
X153188887Y-85411353D01*
X153101944Y-85392872D01*
X153101939Y-85392872D01*
X153095487Y-85391500D01*
X152904513Y-85391500D01*
X152898061Y-85392872D01*
X152898056Y-85392872D01*
X152811112Y-85411353D01*
X152717712Y-85431206D01*
X152711682Y-85433891D01*
X152711681Y-85433891D01*
X152549278Y-85506197D01*
X152549276Y-85506198D01*
X152543248Y-85508882D01*
X152537907Y-85512762D01*
X152537906Y-85512763D01*
X152449580Y-85576936D01*
X152382712Y-85600794D01*
X152375519Y-85601000D01*
X152128599Y-85601000D01*
X152120029Y-85600708D01*
X152070723Y-85597346D01*
X152070719Y-85597346D01*
X152063148Y-85596830D01*
X152055672Y-85598135D01*
X152055668Y-85598135D01*
X152001076Y-85607663D01*
X151994551Y-85608626D01*
X151939582Y-85615278D01*
X151939580Y-85615279D01*
X151932040Y-85616191D01*
X151924938Y-85618875D01*
X151921500Y-85619719D01*
X151907377Y-85623583D01*
X151903966Y-85624613D01*
X151896483Y-85625919D01*
X151889528Y-85628972D01*
X151838802Y-85651239D01*
X151832696Y-85653730D01*
X151773778Y-85675994D01*
X151767523Y-85680293D01*
X151764382Y-85681935D01*
X151751628Y-85689033D01*
X151748522Y-85690870D01*
X151741567Y-85693923D01*
X151735540Y-85698548D01*
X151735536Y-85698550D01*
X151691598Y-85732265D01*
X151686280Y-85736129D01*
X151634348Y-85771821D01*
X151629296Y-85777491D01*
X151629295Y-85777492D01*
X151593482Y-85817688D01*
X151588501Y-85822964D01*
X134147370Y-103264095D01*
X134085058Y-103298121D01*
X134058275Y-103301000D01*
X115941725Y-103301000D01*
X115873604Y-103280998D01*
X115852630Y-103264095D01*
X115436243Y-102847708D01*
X115402217Y-102785396D01*
X115400028Y-102771783D01*
X115394232Y-102716637D01*
X115394232Y-102716635D01*
X115393542Y-102710072D01*
X115379258Y-102666109D01*
X115336569Y-102534729D01*
X115334527Y-102528444D01*
X115330519Y-102521501D01*
X115272015Y-102420170D01*
X115239040Y-102363056D01*
X115228757Y-102351635D01*
X115115675Y-102226045D01*
X115115674Y-102226044D01*
X115111253Y-102221134D01*
X114956752Y-102108882D01*
X114950724Y-102106198D01*
X114950722Y-102106197D01*
X114788319Y-102033891D01*
X114788318Y-102033891D01*
X114782288Y-102031206D01*
X114688888Y-102011353D01*
X114601944Y-101992872D01*
X114601939Y-101992872D01*
X114595487Y-101991500D01*
X114404513Y-101991500D01*
X114398061Y-101992872D01*
X114398056Y-101992872D01*
X114311112Y-102011353D01*
X114217712Y-102031206D01*
X114211682Y-102033891D01*
X114211681Y-102033891D01*
X114049278Y-102106197D01*
X114049276Y-102106198D01*
X114043248Y-102108882D01*
X113888747Y-102221134D01*
X113884326Y-102226044D01*
X113884325Y-102226045D01*
X113771244Y-102351635D01*
X113760960Y-102363056D01*
X113727985Y-102420170D01*
X113669482Y-102521501D01*
X113665473Y-102528444D01*
X113606458Y-102710072D01*
X113605768Y-102716633D01*
X113605768Y-102716635D01*
X113599972Y-102771783D01*
X113586496Y-102900000D01*
X113606458Y-103089928D01*
X113665473Y-103271556D01*
X113668776Y-103277278D01*
X113668777Y-103277279D01*
X113682841Y-103301638D01*
X113760960Y-103436944D01*
X113765378Y-103441851D01*
X113765379Y-103441852D01*
X113860731Y-103547751D01*
X113888747Y-103578866D01*
X113941450Y-103617157D01*
X114032627Y-103683401D01*
X114043248Y-103691118D01*
X114049276Y-103693802D01*
X114049278Y-103693803D01*
X114211681Y-103766109D01*
X114217712Y-103768794D01*
X114387631Y-103804912D01*
X114450528Y-103839063D01*
X115085503Y-104474038D01*
X115091356Y-104480303D01*
X115128842Y-104523274D01*
X115135056Y-104527642D01*
X115140703Y-104532726D01*
X115139122Y-104534482D01*
X115176149Y-104580975D01*
X115183331Y-104651608D01*
X115179299Y-104667451D01*
X115132958Y-104810072D01*
X115126472Y-104871783D01*
X115099459Y-104937440D01*
X115090257Y-104947708D01*
X111148870Y-108889095D01*
X111086558Y-108923121D01*
X111059775Y-108926000D01*
X96759500Y-108926000D01*
X96691379Y-108905998D01*
X96644886Y-108852342D01*
X96633500Y-108800000D01*
X96633500Y-108726866D01*
X96626745Y-108664684D01*
X96575615Y-108528295D01*
X96488261Y-108411739D01*
X96371705Y-108324385D01*
X96296362Y-108296140D01*
X96253203Y-108279960D01*
X96196439Y-108237318D01*
X96171739Y-108170756D01*
X96186947Y-108101408D01*
X96208493Y-108072727D01*
X96254653Y-108026728D01*
X96313096Y-107968489D01*
X96443453Y-107787077D01*
X96456995Y-107759678D01*
X96540136Y-107591453D01*
X96540137Y-107591451D01*
X96542430Y-107586811D01*
X96607370Y-107373069D01*
X96636529Y-107151590D01*
X96638156Y-107085000D01*
X96619852Y-106862361D01*
X96565431Y-106645702D01*
X96476354Y-106440840D01*
X96355014Y-106253277D01*
X96204670Y-106088051D01*
X96200619Y-106084852D01*
X96200615Y-106084848D01*
X96033414Y-105952800D01*
X96033410Y-105952798D01*
X96029359Y-105949598D01*
X95988053Y-105926796D01*
X95938084Y-105876364D01*
X95923312Y-105806921D01*
X95948428Y-105740516D01*
X95975780Y-105713909D01*
X96031793Y-105673955D01*
X96154860Y-105586173D01*
X96313096Y-105428489D01*
X96358523Y-105365271D01*
X96407958Y-105296474D01*
X96463953Y-105252826D01*
X96510281Y-105244000D01*
X108726401Y-105244000D01*
X108734971Y-105244292D01*
X108784277Y-105247654D01*
X108784281Y-105247654D01*
X108791852Y-105248170D01*
X108799328Y-105246865D01*
X108799332Y-105246865D01*
X108853924Y-105237337D01*
X108860449Y-105236374D01*
X108915418Y-105229722D01*
X108915420Y-105229721D01*
X108922960Y-105228809D01*
X108930062Y-105226125D01*
X108933500Y-105225281D01*
X108947623Y-105221417D01*
X108951034Y-105220387D01*
X108958517Y-105219081D01*
X109016197Y-105193761D01*
X109022304Y-105191270D01*
X109074117Y-105171691D01*
X109074118Y-105171690D01*
X109081222Y-105169006D01*
X109087477Y-105164707D01*
X109090618Y-105163065D01*
X109103372Y-105155967D01*
X109106478Y-105154130D01*
X109113433Y-105151077D01*
X109119460Y-105146452D01*
X109119464Y-105146450D01*
X109163402Y-105112735D01*
X109168720Y-105108871D01*
X109220652Y-105073179D01*
X109261519Y-105027311D01*
X109266499Y-105022036D01*
X118549472Y-95739063D01*
X118612369Y-95704912D01*
X118782288Y-95668794D01*
X118788319Y-95666109D01*
X118950722Y-95593803D01*
X118950724Y-95593802D01*
X118956752Y-95591118D01*
X118971345Y-95580516D01*
X119013346Y-95550000D01*
X131386693Y-95550000D01*
X131405885Y-95769371D01*
X131462880Y-95982076D01*
X131465205Y-95987061D01*
X131553618Y-96176666D01*
X131553621Y-96176671D01*
X131555944Y-96181653D01*
X131559100Y-96186160D01*
X131559101Y-96186162D01*
X131617854Y-96270069D01*
X131682251Y-96362038D01*
X131837962Y-96517749D01*
X132018346Y-96644056D01*
X132217924Y-96737120D01*
X132430629Y-96794115D01*
X132650000Y-96813307D01*
X132869371Y-96794115D01*
X133082076Y-96737120D01*
X133281654Y-96644056D01*
X133462038Y-96517749D01*
X133617749Y-96362038D01*
X133682147Y-96270069D01*
X133740899Y-96186162D01*
X133740900Y-96186160D01*
X133744056Y-96181653D01*
X133746379Y-96176671D01*
X133746382Y-96176666D01*
X133834795Y-95987061D01*
X133837120Y-95982076D01*
X133894115Y-95769371D01*
X133913307Y-95550000D01*
X133894115Y-95330629D01*
X133837120Y-95117924D01*
X133786331Y-95009006D01*
X133746382Y-94923334D01*
X133746379Y-94923329D01*
X133744056Y-94918347D01*
X133740899Y-94913838D01*
X133620908Y-94742473D01*
X133620906Y-94742470D01*
X133617749Y-94737962D01*
X133462038Y-94582251D01*
X133281654Y-94455944D01*
X133082076Y-94362880D01*
X132869371Y-94305885D01*
X132650000Y-94286693D01*
X132430629Y-94305885D01*
X132217924Y-94362880D01*
X132178180Y-94381413D01*
X132023334Y-94453618D01*
X132023329Y-94453621D01*
X132018347Y-94455944D01*
X132013840Y-94459100D01*
X132013838Y-94459101D01*
X131842473Y-94579092D01*
X131842470Y-94579094D01*
X131837962Y-94582251D01*
X131682251Y-94737962D01*
X131679094Y-94742470D01*
X131679092Y-94742473D01*
X131559101Y-94913838D01*
X131555944Y-94918347D01*
X131553621Y-94923329D01*
X131553618Y-94923334D01*
X131513669Y-95009006D01*
X131462880Y-95117924D01*
X131405885Y-95330629D01*
X131386693Y-95550000D01*
X119013346Y-95550000D01*
X119111253Y-95478866D01*
X119162330Y-95422139D01*
X119234621Y-95341852D01*
X119234622Y-95341851D01*
X119239040Y-95336944D01*
X119334527Y-95171556D01*
X119393542Y-94989928D01*
X119401066Y-94918347D01*
X119412814Y-94806565D01*
X119413504Y-94800000D01*
X119400028Y-94671782D01*
X119394232Y-94616635D01*
X119394232Y-94616633D01*
X119393542Y-94610072D01*
X119334527Y-94428444D01*
X119239040Y-94263056D01*
X119111253Y-94121134D01*
X118956752Y-94008882D01*
X118950724Y-94006198D01*
X118950722Y-94006197D01*
X118788319Y-93933891D01*
X118788318Y-93933891D01*
X118782288Y-93931206D01*
X118681501Y-93909783D01*
X118601944Y-93892872D01*
X118601939Y-93892872D01*
X118595487Y-93891500D01*
X118404513Y-93891500D01*
X118398061Y-93892872D01*
X118398056Y-93892872D01*
X118318499Y-93909783D01*
X118217712Y-93931206D01*
X118211682Y-93933891D01*
X118211681Y-93933891D01*
X118049278Y-94006197D01*
X118049276Y-94006198D01*
X118043248Y-94008882D01*
X117888747Y-94121134D01*
X117760960Y-94263056D01*
X117665473Y-94428444D01*
X117606458Y-94610072D01*
X117605768Y-94616635D01*
X117605768Y-94616637D01*
X117599972Y-94671782D01*
X117572959Y-94737439D01*
X117563757Y-94747707D01*
X108502370Y-103809095D01*
X108440058Y-103843121D01*
X108413275Y-103846000D01*
X96509431Y-103846000D01*
X96441310Y-103825998D01*
X96403639Y-103788440D01*
X96357822Y-103717617D01*
X96357820Y-103717614D01*
X96355014Y-103713277D01*
X96204670Y-103548051D01*
X96200619Y-103544852D01*
X96200615Y-103544848D01*
X96033414Y-103412800D01*
X96033410Y-103412798D01*
X96029359Y-103409598D01*
X95988053Y-103386796D01*
X95938084Y-103336364D01*
X95923312Y-103266921D01*
X95948428Y-103200516D01*
X95975780Y-103173909D01*
X96027196Y-103137234D01*
X96154860Y-103046173D01*
X96313096Y-102888489D01*
X96317209Y-102882766D01*
X96407958Y-102756474D01*
X96463953Y-102712826D01*
X96510281Y-102704000D01*
X108366401Y-102704000D01*
X108374971Y-102704292D01*
X108424277Y-102707654D01*
X108424281Y-102707654D01*
X108431852Y-102708170D01*
X108439328Y-102706865D01*
X108439332Y-102706865D01*
X108493924Y-102697337D01*
X108500449Y-102696374D01*
X108555418Y-102689722D01*
X108555420Y-102689721D01*
X108562960Y-102688809D01*
X108570062Y-102686125D01*
X108573500Y-102685281D01*
X108587623Y-102681417D01*
X108591034Y-102680387D01*
X108598517Y-102679081D01*
X108656197Y-102653761D01*
X108662304Y-102651270D01*
X108714117Y-102631691D01*
X108714118Y-102631690D01*
X108721222Y-102629006D01*
X108727477Y-102624707D01*
X108730618Y-102623065D01*
X108743372Y-102615967D01*
X108746478Y-102614130D01*
X108753433Y-102611077D01*
X108759460Y-102606452D01*
X108759464Y-102606450D01*
X108803402Y-102572735D01*
X108808720Y-102568871D01*
X108860652Y-102533179D01*
X108877719Y-102514024D01*
X108901518Y-102487312D01*
X108906499Y-102482036D01*
X117749472Y-93639063D01*
X117812369Y-93604912D01*
X117982288Y-93568794D01*
X118025720Y-93549457D01*
X118150722Y-93493803D01*
X118150724Y-93493802D01*
X118156752Y-93491118D01*
X118311253Y-93378866D01*
X118439040Y-93236944D01*
X118534527Y-93071556D01*
X118593542Y-92889928D01*
X118613504Y-92700000D01*
X118601181Y-92582749D01*
X118594232Y-92516635D01*
X118594232Y-92516633D01*
X118593542Y-92510072D01*
X118534527Y-92328444D01*
X118439040Y-92163056D01*
X118311253Y-92021134D01*
X118212157Y-91949136D01*
X118162094Y-91912763D01*
X118162093Y-91912762D01*
X118156752Y-91908882D01*
X118150724Y-91906198D01*
X118150722Y-91906197D01*
X117988319Y-91833891D01*
X117988318Y-91833891D01*
X117982288Y-91831206D01*
X117975827Y-91829833D01*
X117975822Y-91829831D01*
X117902546Y-91814255D01*
X117840072Y-91780527D01*
X117805751Y-91718378D01*
X117803433Y-91704180D01*
X117803393Y-91703794D01*
X117793542Y-91610072D01*
X117734527Y-91428444D01*
X117639040Y-91263056D01*
X117511253Y-91121134D01*
X117356752Y-91008882D01*
X117350724Y-91006198D01*
X117350722Y-91006197D01*
X117188319Y-90933891D01*
X117188318Y-90933891D01*
X117182288Y-90931206D01*
X117175833Y-90929834D01*
X117175830Y-90929833D01*
X117111483Y-90916156D01*
X117090875Y-90911776D01*
X117028402Y-90878048D01*
X116994080Y-90815193D01*
X116993542Y-90810072D01*
X116941531Y-90650000D01*
X131386693Y-90650000D01*
X131405885Y-90869371D01*
X131462880Y-91082076D01*
X131481093Y-91121134D01*
X131553618Y-91276666D01*
X131553621Y-91276671D01*
X131555944Y-91281653D01*
X131682251Y-91462038D01*
X131837962Y-91617749D01*
X132018346Y-91744056D01*
X132217924Y-91837120D01*
X132430629Y-91894115D01*
X132650000Y-91913307D01*
X132869371Y-91894115D01*
X133082076Y-91837120D01*
X133281654Y-91744056D01*
X133462038Y-91617749D01*
X133617749Y-91462038D01*
X133744056Y-91281653D01*
X133746379Y-91276671D01*
X133746382Y-91276666D01*
X133818907Y-91121134D01*
X133837120Y-91082076D01*
X133894115Y-90869371D01*
X133913307Y-90650000D01*
X133894115Y-90430629D01*
X133837120Y-90217924D01*
X133778168Y-90091500D01*
X133746382Y-90023334D01*
X133746379Y-90023329D01*
X133744056Y-90018347D01*
X133702250Y-89958642D01*
X133620908Y-89842473D01*
X133620906Y-89842470D01*
X133617749Y-89837962D01*
X133462038Y-89682251D01*
X133419493Y-89652460D01*
X133382759Y-89626739D01*
X133281654Y-89555944D01*
X133082076Y-89462880D01*
X132869371Y-89405885D01*
X132650000Y-89386693D01*
X132430629Y-89405885D01*
X132217924Y-89462880D01*
X132155965Y-89491772D01*
X132023334Y-89553618D01*
X132023329Y-89553621D01*
X132018347Y-89555944D01*
X132013840Y-89559100D01*
X132013838Y-89559101D01*
X131842473Y-89679092D01*
X131842470Y-89679094D01*
X131837962Y-89682251D01*
X131682251Y-89837962D01*
X131679094Y-89842470D01*
X131679092Y-89842473D01*
X131597750Y-89958642D01*
X131555944Y-90018347D01*
X131553621Y-90023329D01*
X131553618Y-90023334D01*
X131521832Y-90091500D01*
X131462880Y-90217924D01*
X131405885Y-90430629D01*
X131386693Y-90650000D01*
X116941531Y-90650000D01*
X116934527Y-90628444D01*
X116839040Y-90463056D01*
X116805062Y-90425319D01*
X116715675Y-90326045D01*
X116715674Y-90326044D01*
X116711253Y-90321134D01*
X116556752Y-90208882D01*
X116550724Y-90206198D01*
X116550722Y-90206197D01*
X116388319Y-90133891D01*
X116388318Y-90133891D01*
X116382288Y-90131206D01*
X116254800Y-90104107D01*
X116192328Y-90070380D01*
X116158006Y-90008230D01*
X116155688Y-89967690D01*
X116157960Y-89946081D01*
X116165928Y-89870265D01*
X116145966Y-89680337D01*
X116140637Y-89663936D01*
X116138610Y-89592968D01*
X116175272Y-89532171D01*
X116238984Y-89500845D01*
X116260470Y-89499000D01*
X119971401Y-89499000D01*
X119979971Y-89499292D01*
X120029277Y-89502654D01*
X120029281Y-89502654D01*
X120036852Y-89503170D01*
X120044328Y-89501865D01*
X120044332Y-89501865D01*
X120098924Y-89492337D01*
X120105449Y-89491374D01*
X120160418Y-89484722D01*
X120160420Y-89484721D01*
X120167960Y-89483809D01*
X120175062Y-89481125D01*
X120178500Y-89480281D01*
X120192623Y-89476417D01*
X120196034Y-89475387D01*
X120203517Y-89474081D01*
X120229034Y-89462880D01*
X120261198Y-89448761D01*
X120267304Y-89446270D01*
X120319117Y-89426691D01*
X120319118Y-89426690D01*
X120326222Y-89424006D01*
X120332477Y-89419707D01*
X120335618Y-89418065D01*
X120348372Y-89410967D01*
X120351478Y-89409130D01*
X120358433Y-89406077D01*
X120364460Y-89401452D01*
X120364464Y-89401450D01*
X120408402Y-89367735D01*
X120413720Y-89363871D01*
X120465652Y-89328179D01*
X120506519Y-89282311D01*
X120511499Y-89277036D01*
X124574046Y-85214490D01*
X124580312Y-85208636D01*
X124617547Y-85176154D01*
X124623274Y-85171158D01*
X124659498Y-85119617D01*
X124663423Y-85114332D01*
X124697607Y-85070735D01*
X124702292Y-85064760D01*
X124705416Y-85057842D01*
X124707245Y-85054821D01*
X124714500Y-85042102D01*
X124716188Y-85038954D01*
X124720556Y-85032739D01*
X124743438Y-84974050D01*
X124745978Y-84968005D01*
X124771913Y-84910565D01*
X124773298Y-84903092D01*
X124774369Y-84899674D01*
X124778354Y-84885685D01*
X124779251Y-84882193D01*
X124782012Y-84875111D01*
X124788052Y-84829232D01*
X124790233Y-84812670D01*
X124791265Y-84806157D01*
X124801361Y-84751682D01*
X124801361Y-84751680D01*
X124802745Y-84744213D01*
X124799209Y-84682887D01*
X124799000Y-84675635D01*
X124799000Y-81025000D01*
X124819002Y-80956879D01*
X124872658Y-80910386D01*
X124925000Y-80899000D01*
X135458275Y-80899000D01*
X135526396Y-80919002D01*
X135547370Y-80935905D01*
X138063757Y-83452292D01*
X138097783Y-83514604D01*
X138099972Y-83528215D01*
X138106458Y-83589928D01*
X138108498Y-83596205D01*
X138108498Y-83596207D01*
X138117322Y-83623365D01*
X138165473Y-83771556D01*
X138260960Y-83936944D01*
X138265378Y-83941851D01*
X138265379Y-83941852D01*
X138384325Y-84073955D01*
X138388747Y-84078866D01*
X138454245Y-84126453D01*
X138502911Y-84161811D01*
X138543248Y-84191118D01*
X138549276Y-84193802D01*
X138549278Y-84193803D01*
X138650838Y-84239020D01*
X138717712Y-84268794D01*
X138811113Y-84288647D01*
X138898056Y-84307128D01*
X138898061Y-84307128D01*
X138904513Y-84308500D01*
X139095487Y-84308500D01*
X139101939Y-84307128D01*
X139101944Y-84307128D01*
X139188887Y-84288647D01*
X139282288Y-84268794D01*
X139349162Y-84239020D01*
X139450722Y-84193803D01*
X139450724Y-84193802D01*
X139456752Y-84191118D01*
X139497090Y-84161811D01*
X139545755Y-84126453D01*
X139611253Y-84078866D01*
X139615675Y-84073955D01*
X139734621Y-83941852D01*
X139734622Y-83941851D01*
X139739040Y-83936944D01*
X139834527Y-83771556D01*
X139893542Y-83589928D01*
X139913504Y-83400000D01*
X139893542Y-83210072D01*
X139834527Y-83028444D01*
X139829993Y-83020590D01*
X139742341Y-82868774D01*
X139739040Y-82863056D01*
X139704286Y-82824457D01*
X139615675Y-82726045D01*
X139615674Y-82726044D01*
X139611253Y-82721134D01*
X139500456Y-82640635D01*
X139462094Y-82612763D01*
X139462093Y-82612762D01*
X139456752Y-82608882D01*
X139450724Y-82606198D01*
X139450722Y-82606197D01*
X139288319Y-82533891D01*
X139288318Y-82533891D01*
X139282288Y-82531206D01*
X139112370Y-82495089D01*
X139049473Y-82460937D01*
X136314497Y-79725962D01*
X136308643Y-79719696D01*
X136276152Y-79682451D01*
X136271158Y-79676726D01*
X136219622Y-79640506D01*
X136214326Y-79636573D01*
X136170737Y-79602394D01*
X136170734Y-79602392D01*
X136164760Y-79597708D01*
X136157836Y-79594582D01*
X136154801Y-79592744D01*
X136142102Y-79585500D01*
X136138954Y-79583812D01*
X136132739Y-79579444D01*
X136074050Y-79556562D01*
X136068005Y-79554022D01*
X136010565Y-79528087D01*
X136003092Y-79526702D01*
X135999674Y-79525631D01*
X135985685Y-79521646D01*
X135982193Y-79520749D01*
X135975111Y-79517988D01*
X135967578Y-79516996D01*
X135967577Y-79516996D01*
X135912670Y-79509767D01*
X135906157Y-79508735D01*
X135851682Y-79498639D01*
X135851680Y-79498639D01*
X135844213Y-79497255D01*
X135836633Y-79497692D01*
X135836632Y-79497692D01*
X135782888Y-79500791D01*
X135775635Y-79501000D01*
X124724481Y-79501000D01*
X124656360Y-79480998D01*
X124650420Y-79476936D01*
X124562094Y-79412763D01*
X124562093Y-79412762D01*
X124556752Y-79408882D01*
X124550724Y-79406198D01*
X124550722Y-79406197D01*
X124388319Y-79333891D01*
X124388318Y-79333891D01*
X124382288Y-79331206D01*
X124288887Y-79311353D01*
X124201944Y-79292872D01*
X124201939Y-79292872D01*
X124195487Y-79291500D01*
X124004513Y-79291500D01*
X123998061Y-79292872D01*
X123998056Y-79292872D01*
X123911113Y-79311353D01*
X123817712Y-79331206D01*
X123811682Y-79333891D01*
X123811681Y-79333891D01*
X123649278Y-79406197D01*
X123649276Y-79406198D01*
X123643248Y-79408882D01*
X123488747Y-79521134D01*
X123484326Y-79526044D01*
X123484325Y-79526045D01*
X123419800Y-79597708D01*
X123360960Y-79663056D01*
X123265473Y-79828444D01*
X123206458Y-80010072D01*
X123205768Y-80016633D01*
X123205768Y-80016635D01*
X123200711Y-80064748D01*
X123186496Y-80200000D01*
X123206458Y-80389928D01*
X123265473Y-80571556D01*
X123360960Y-80736944D01*
X123368637Y-80745470D01*
X123399353Y-80809476D01*
X123401000Y-80829779D01*
X123401000Y-84358275D01*
X123380998Y-84426396D01*
X123364095Y-84447370D01*
X119747370Y-88064095D01*
X119685058Y-88098121D01*
X119658275Y-88101000D01*
X115028599Y-88101000D01*
X115020029Y-88100708D01*
X114970723Y-88097346D01*
X114970719Y-88097346D01*
X114963148Y-88096830D01*
X114955672Y-88098135D01*
X114955668Y-88098135D01*
X114901076Y-88107663D01*
X114894551Y-88108626D01*
X114839582Y-88115278D01*
X114839580Y-88115279D01*
X114832040Y-88116191D01*
X114824938Y-88118875D01*
X114821500Y-88119719D01*
X114807377Y-88123583D01*
X114803966Y-88124613D01*
X114796483Y-88125919D01*
X114789528Y-88128972D01*
X114738802Y-88151239D01*
X114732696Y-88153730D01*
X114673778Y-88175994D01*
X114667523Y-88180293D01*
X114664382Y-88181935D01*
X114651628Y-88189033D01*
X114648522Y-88190870D01*
X114641567Y-88193923D01*
X114635540Y-88198548D01*
X114635536Y-88198550D01*
X114591598Y-88232265D01*
X114586280Y-88236129D01*
X114534348Y-88271821D01*
X114529296Y-88277491D01*
X114529295Y-88277492D01*
X114493482Y-88317688D01*
X114488501Y-88322964D01*
X111850528Y-90960937D01*
X111787631Y-90995088D01*
X111617712Y-91031206D01*
X111611682Y-91033891D01*
X111611681Y-91033891D01*
X111449278Y-91106197D01*
X111449276Y-91106198D01*
X111443248Y-91108882D01*
X111437907Y-91112762D01*
X111437906Y-91112763D01*
X111419625Y-91126045D01*
X111288747Y-91221134D01*
X111284326Y-91226044D01*
X111284325Y-91226045D01*
X111230196Y-91286162D01*
X111160960Y-91363056D01*
X111065473Y-91528444D01*
X111006458Y-91710072D01*
X110986496Y-91900000D01*
X110987186Y-91906565D01*
X110999228Y-92021134D01*
X111006458Y-92089928D01*
X111065473Y-92271556D01*
X111160960Y-92436944D01*
X111288747Y-92578866D01*
X111294089Y-92582747D01*
X111294091Y-92582749D01*
X111310633Y-92594767D01*
X111353987Y-92650989D01*
X111360062Y-92721725D01*
X111325667Y-92785798D01*
X110462370Y-93649095D01*
X110400058Y-93683121D01*
X110373275Y-93686000D01*
X96509431Y-93686000D01*
X96441310Y-93665998D01*
X96403639Y-93628440D01*
X96357822Y-93557617D01*
X96357820Y-93557614D01*
X96355014Y-93553277D01*
X96204670Y-93388051D01*
X96200619Y-93384852D01*
X96200615Y-93384848D01*
X96033414Y-93252800D01*
X96033410Y-93252798D01*
X96029359Y-93249598D01*
X95993028Y-93229542D01*
X95977136Y-93220769D01*
X95833789Y-93141638D01*
X95828920Y-93139914D01*
X95828916Y-93139912D01*
X95628087Y-93068795D01*
X95628083Y-93068794D01*
X95623212Y-93067069D01*
X95618119Y-93066162D01*
X95618116Y-93066161D01*
X95408373Y-93028800D01*
X95408367Y-93028799D01*
X95403284Y-93027894D01*
X95329452Y-93026992D01*
X95185081Y-93025228D01*
X95185079Y-93025228D01*
X95179911Y-93025165D01*
X94959091Y-93058955D01*
X94746756Y-93128357D01*
X94548607Y-93231507D01*
X94544474Y-93234610D01*
X94544471Y-93234612D01*
X94374100Y-93362530D01*
X94369965Y-93365635D01*
X94351605Y-93384848D01*
X94250051Y-93491118D01*
X94215629Y-93527138D01*
X94212715Y-93531410D01*
X94212714Y-93531411D01*
X94200404Y-93549457D01*
X94146526Y-93628440D01*
X94107898Y-93685066D01*
X94052987Y-93730069D01*
X93982462Y-93738240D01*
X93918715Y-93706986D01*
X93898018Y-93682502D01*
X93817426Y-93557926D01*
X93811136Y-93549757D01*
X93667806Y-93392240D01*
X93660273Y-93385215D01*
X93493139Y-93253222D01*
X93484552Y-93247517D01*
X93298117Y-93144599D01*
X93288705Y-93140369D01*
X93087959Y-93069280D01*
X93077988Y-93066646D01*
X93006837Y-93053972D01*
X92993540Y-93055432D01*
X92989000Y-93069989D01*
X92989000Y-110943517D01*
X92481000Y-110943517D01*
X92481000Y-109897115D01*
X92476525Y-109881876D01*
X92475135Y-109880671D01*
X92467452Y-109879000D01*
X91418225Y-109879000D01*
X91404694Y-109882973D01*
X91403257Y-109892966D01*
X90508500Y-109892966D01*
X90508500Y-109359183D01*
X91399389Y-109359183D01*
X91400912Y-109367607D01*
X91413292Y-109371000D01*
X92462885Y-109371000D01*
X92478124Y-109366525D01*
X92479329Y-109365135D01*
X92481000Y-109357452D01*
X92481000Y-107357115D01*
X92476525Y-107341876D01*
X92475135Y-107340671D01*
X92467452Y-107339000D01*
X91418225Y-107339000D01*
X91404694Y-107342973D01*
X91403257Y-107352966D01*
X91433565Y-107487446D01*
X91436645Y-107497275D01*
X91516770Y-107694603D01*
X91521413Y-107703794D01*
X91632694Y-107885388D01*
X91638777Y-107893699D01*
X91778213Y-108054667D01*
X91785580Y-108061883D01*
X91949434Y-108197916D01*
X91957881Y-108203831D01*
X92027479Y-108244501D01*
X92076203Y-108296140D01*
X92089274Y-108365923D01*
X92062543Y-108431694D01*
X92022087Y-108465053D01*
X92013462Y-108469542D01*
X92004738Y-108475036D01*
X91834433Y-108602905D01*
X91826726Y-108609748D01*
X91679590Y-108763717D01*
X91673104Y-108771727D01*
X91553098Y-108947649D01*
X91548000Y-108956623D01*
X91458338Y-109149783D01*
X91454775Y-109159470D01*
X91399389Y-109359183D01*
X90508500Y-109359183D01*
X90508500Y-106819183D01*
X91399389Y-106819183D01*
X91400912Y-106827607D01*
X91413292Y-106831000D01*
X92462885Y-106831000D01*
X92478124Y-106826525D01*
X92479329Y-106825135D01*
X92481000Y-106817452D01*
X92481000Y-104817115D01*
X92476525Y-104801876D01*
X92475135Y-104800671D01*
X92467452Y-104799000D01*
X91418225Y-104799000D01*
X91404694Y-104802973D01*
X91403257Y-104812966D01*
X91433565Y-104947446D01*
X91436645Y-104957275D01*
X91516770Y-105154603D01*
X91521413Y-105163794D01*
X91632694Y-105345388D01*
X91638777Y-105353699D01*
X91778213Y-105514667D01*
X91785580Y-105521883D01*
X91949434Y-105657916D01*
X91957881Y-105663831D01*
X92027479Y-105704501D01*
X92076203Y-105756140D01*
X92089274Y-105825923D01*
X92062543Y-105891694D01*
X92022087Y-105925053D01*
X92013462Y-105929542D01*
X92004738Y-105935036D01*
X91834433Y-106062905D01*
X91826726Y-106069748D01*
X91679590Y-106223717D01*
X91673104Y-106231727D01*
X91553098Y-106407649D01*
X91548000Y-106416623D01*
X91458338Y-106609783D01*
X91454775Y-106619470D01*
X91399389Y-106819183D01*
X90508500Y-106819183D01*
X90508500Y-104279183D01*
X91399389Y-104279183D01*
X91400912Y-104287607D01*
X91413292Y-104291000D01*
X92462885Y-104291000D01*
X92478124Y-104286525D01*
X92479329Y-104285135D01*
X92481000Y-104277452D01*
X92481000Y-102277115D01*
X92476525Y-102261876D01*
X92475135Y-102260671D01*
X92467452Y-102259000D01*
X91418225Y-102259000D01*
X91404694Y-102262973D01*
X91403257Y-102272966D01*
X91433565Y-102407446D01*
X91436645Y-102417275D01*
X91516770Y-102614603D01*
X91521413Y-102623794D01*
X91632694Y-102805388D01*
X91638777Y-102813699D01*
X91778213Y-102974667D01*
X91785580Y-102981883D01*
X91949434Y-103117916D01*
X91957881Y-103123831D01*
X92027479Y-103164501D01*
X92076203Y-103216140D01*
X92089274Y-103285923D01*
X92062543Y-103351694D01*
X92022087Y-103385053D01*
X92013462Y-103389542D01*
X92004738Y-103395036D01*
X91834433Y-103522905D01*
X91826726Y-103529748D01*
X91679590Y-103683717D01*
X91673104Y-103691727D01*
X91553098Y-103867649D01*
X91548000Y-103876623D01*
X91458338Y-104069783D01*
X91454775Y-104079470D01*
X91399389Y-104279183D01*
X90508500Y-104279183D01*
X90508500Y-101739183D01*
X91399389Y-101739183D01*
X91400912Y-101747607D01*
X91413292Y-101751000D01*
X92462885Y-101751000D01*
X92478124Y-101746525D01*
X92479329Y-101745135D01*
X92481000Y-101737452D01*
X92481000Y-99737115D01*
X92476525Y-99721876D01*
X92475135Y-99720671D01*
X92467452Y-99719000D01*
X91418225Y-99719000D01*
X91404694Y-99722973D01*
X91403257Y-99732966D01*
X91433565Y-99867446D01*
X91436645Y-99877275D01*
X91516770Y-100074603D01*
X91521413Y-100083794D01*
X91632694Y-100265388D01*
X91638777Y-100273699D01*
X91778213Y-100434667D01*
X91785580Y-100441883D01*
X91949434Y-100577916D01*
X91957881Y-100583831D01*
X92027479Y-100624501D01*
X92076203Y-100676140D01*
X92089274Y-100745923D01*
X92062543Y-100811694D01*
X92022087Y-100845053D01*
X92013462Y-100849542D01*
X92004738Y-100855036D01*
X91834433Y-100982905D01*
X91826726Y-100989748D01*
X91679590Y-101143717D01*
X91673104Y-101151727D01*
X91553098Y-101327649D01*
X91548000Y-101336623D01*
X91458338Y-101529783D01*
X91454775Y-101539470D01*
X91399389Y-101739183D01*
X90508500Y-101739183D01*
X90508500Y-99199183D01*
X91399389Y-99199183D01*
X91400912Y-99207607D01*
X91413292Y-99211000D01*
X92462885Y-99211000D01*
X92478124Y-99206525D01*
X92479329Y-99205135D01*
X92481000Y-99197452D01*
X92481000Y-97197115D01*
X92476525Y-97181876D01*
X92475135Y-97180671D01*
X92467452Y-97179000D01*
X91418225Y-97179000D01*
X91404694Y-97182973D01*
X91403257Y-97192966D01*
X91433565Y-97327446D01*
X91436645Y-97337275D01*
X91516770Y-97534603D01*
X91521413Y-97543794D01*
X91632694Y-97725388D01*
X91638777Y-97733699D01*
X91778213Y-97894667D01*
X91785580Y-97901883D01*
X91949434Y-98037916D01*
X91957881Y-98043831D01*
X92027479Y-98084501D01*
X92076203Y-98136140D01*
X92089274Y-98205923D01*
X92062543Y-98271694D01*
X92022087Y-98305053D01*
X92013462Y-98309542D01*
X92004738Y-98315036D01*
X91834433Y-98442905D01*
X91826726Y-98449748D01*
X91679590Y-98603717D01*
X91673104Y-98611727D01*
X91553098Y-98787649D01*
X91548000Y-98796623D01*
X91458338Y-98989783D01*
X91454775Y-98999470D01*
X91399389Y-99199183D01*
X90508500Y-99199183D01*
X90508500Y-96659183D01*
X91399389Y-96659183D01*
X91400912Y-96667607D01*
X91413292Y-96671000D01*
X92462885Y-96671000D01*
X92478124Y-96666525D01*
X92479329Y-96665135D01*
X92481000Y-96657452D01*
X92481000Y-94657115D01*
X92476525Y-94641876D01*
X92475135Y-94640671D01*
X92467452Y-94639000D01*
X91418225Y-94639000D01*
X91404694Y-94642973D01*
X91403257Y-94652966D01*
X91433565Y-94787446D01*
X91436645Y-94797275D01*
X91516770Y-94994603D01*
X91521413Y-95003794D01*
X91632694Y-95185388D01*
X91638777Y-95193699D01*
X91778213Y-95354667D01*
X91785580Y-95361883D01*
X91949434Y-95497916D01*
X91957881Y-95503831D01*
X92027479Y-95544501D01*
X92076203Y-95596140D01*
X92089274Y-95665923D01*
X92062543Y-95731694D01*
X92022087Y-95765053D01*
X92013462Y-95769542D01*
X92004738Y-95775036D01*
X91834433Y-95902905D01*
X91826726Y-95909748D01*
X91679590Y-96063717D01*
X91673104Y-96071727D01*
X91553098Y-96247649D01*
X91548000Y-96256623D01*
X91458338Y-96449783D01*
X91454775Y-96459470D01*
X91399389Y-96659183D01*
X90508500Y-96659183D01*
X90508500Y-94119183D01*
X91399389Y-94119183D01*
X91400912Y-94127607D01*
X91413292Y-94131000D01*
X92462885Y-94131000D01*
X92478124Y-94126525D01*
X92479329Y-94125135D01*
X92481000Y-94117452D01*
X92481000Y-93068102D01*
X92477082Y-93054758D01*
X92462806Y-93052771D01*
X92424324Y-93058660D01*
X92414288Y-93061051D01*
X92211868Y-93127212D01*
X92202359Y-93131209D01*
X92013463Y-93229542D01*
X92004738Y-93235036D01*
X91834433Y-93362905D01*
X91826726Y-93369748D01*
X91679590Y-93523717D01*
X91673104Y-93531727D01*
X91553098Y-93707649D01*
X91548000Y-93716623D01*
X91458338Y-93909783D01*
X91454775Y-93919470D01*
X91399389Y-94119183D01*
X90508500Y-94119183D01*
X90508500Y-89638134D01*
X91391500Y-89638134D01*
X91398255Y-89700316D01*
X91449385Y-89836705D01*
X91536739Y-89953261D01*
X91653295Y-90040615D01*
X91789684Y-90091745D01*
X91851866Y-90098500D01*
X93648134Y-90098500D01*
X93710316Y-90091745D01*
X93846705Y-90040615D01*
X93963261Y-89953261D01*
X94050615Y-89836705D01*
X94101745Y-89700316D01*
X94108500Y-89638134D01*
X94108500Y-89598134D01*
X94991500Y-89598134D01*
X94998255Y-89660316D01*
X95049385Y-89796705D01*
X95136739Y-89913261D01*
X95253295Y-90000615D01*
X95389684Y-90051745D01*
X95451866Y-90058500D01*
X97248134Y-90058500D01*
X97310316Y-90051745D01*
X97446705Y-90000615D01*
X97563261Y-89913261D01*
X97650615Y-89796705D01*
X97701745Y-89660316D01*
X97708500Y-89598134D01*
X98691500Y-89598134D01*
X98698255Y-89660316D01*
X98749385Y-89796705D01*
X98836739Y-89913261D01*
X98953295Y-90000615D01*
X99089684Y-90051745D01*
X99151866Y-90058500D01*
X100948134Y-90058500D01*
X101010316Y-90051745D01*
X101146705Y-90000615D01*
X101263261Y-89913261D01*
X101350615Y-89796705D01*
X101401745Y-89660316D01*
X101408500Y-89598134D01*
X101408500Y-87801866D01*
X101401745Y-87739684D01*
X101350615Y-87603295D01*
X101263261Y-87486739D01*
X101146705Y-87399385D01*
X101027687Y-87354767D01*
X100970923Y-87312125D01*
X100946223Y-87245564D01*
X100961430Y-87176215D01*
X100982977Y-87147535D01*
X101084052Y-87046812D01*
X101090730Y-87038965D01*
X101215003Y-86866020D01*
X101220313Y-86857183D01*
X101314670Y-86666267D01*
X101318469Y-86656672D01*
X101380377Y-86452910D01*
X101382555Y-86442837D01*
X101383986Y-86431962D01*
X101381775Y-86417778D01*
X101368617Y-86414000D01*
X98733225Y-86414000D01*
X98719694Y-86417973D01*
X98718257Y-86427966D01*
X98748565Y-86562446D01*
X98751645Y-86572275D01*
X98831770Y-86769603D01*
X98836413Y-86778794D01*
X98947694Y-86960388D01*
X98953777Y-86968699D01*
X99093213Y-87129667D01*
X99100577Y-87136879D01*
X99105522Y-87140985D01*
X99145156Y-87199889D01*
X99146653Y-87270870D01*
X99109537Y-87331392D01*
X99069264Y-87355910D01*
X98961705Y-87396232D01*
X98961704Y-87396233D01*
X98953295Y-87399385D01*
X98836739Y-87486739D01*
X98749385Y-87603295D01*
X98698255Y-87739684D01*
X98691500Y-87801866D01*
X98691500Y-89598134D01*
X97708500Y-89598134D01*
X97708500Y-87801866D01*
X97701745Y-87739684D01*
X97650615Y-87603295D01*
X97563261Y-87486739D01*
X97446705Y-87399385D01*
X97327687Y-87354767D01*
X97270923Y-87312125D01*
X97246223Y-87245564D01*
X97261430Y-87176215D01*
X97282977Y-87147535D01*
X97384052Y-87046812D01*
X97390730Y-87038965D01*
X97515003Y-86866020D01*
X97520313Y-86857183D01*
X97614670Y-86666267D01*
X97618469Y-86656672D01*
X97680377Y-86452910D01*
X97682555Y-86442837D01*
X97683986Y-86431962D01*
X97681775Y-86417778D01*
X97668617Y-86414000D01*
X95033225Y-86414000D01*
X95019694Y-86417973D01*
X95018257Y-86427966D01*
X95048565Y-86562446D01*
X95051645Y-86572275D01*
X95131770Y-86769603D01*
X95136413Y-86778794D01*
X95247694Y-86960388D01*
X95253777Y-86968699D01*
X95393213Y-87129667D01*
X95400577Y-87136879D01*
X95405522Y-87140985D01*
X95445156Y-87199889D01*
X95446653Y-87270870D01*
X95409537Y-87331392D01*
X95369264Y-87355910D01*
X95261705Y-87396232D01*
X95261704Y-87396233D01*
X95253295Y-87399385D01*
X95136739Y-87486739D01*
X95049385Y-87603295D01*
X94998255Y-87739684D01*
X94991500Y-87801866D01*
X94991500Y-89598134D01*
X94108500Y-89598134D01*
X94108500Y-87841866D01*
X94101745Y-87779684D01*
X94050615Y-87643295D01*
X93963261Y-87526739D01*
X93846705Y-87439385D01*
X93819321Y-87429119D01*
X93727687Y-87394767D01*
X93670923Y-87352125D01*
X93646223Y-87285564D01*
X93661430Y-87216215D01*
X93682977Y-87187535D01*
X93784052Y-87086812D01*
X93790730Y-87078965D01*
X93915003Y-86906020D01*
X93920313Y-86897183D01*
X94014670Y-86706267D01*
X94018469Y-86696672D01*
X94080377Y-86492910D01*
X94082555Y-86482837D01*
X94083986Y-86471962D01*
X94081775Y-86457778D01*
X94068617Y-86454000D01*
X91433225Y-86454000D01*
X91419694Y-86457973D01*
X91418257Y-86467966D01*
X91448565Y-86602446D01*
X91451645Y-86612275D01*
X91531770Y-86809603D01*
X91536413Y-86818794D01*
X91647694Y-87000388D01*
X91653777Y-87008699D01*
X91793213Y-87169667D01*
X91800577Y-87176879D01*
X91805522Y-87180985D01*
X91845156Y-87239889D01*
X91846653Y-87310870D01*
X91809537Y-87371392D01*
X91769264Y-87395910D01*
X91661705Y-87436232D01*
X91661704Y-87436233D01*
X91653295Y-87439385D01*
X91536739Y-87526739D01*
X91449385Y-87643295D01*
X91398255Y-87779684D01*
X91391500Y-87841866D01*
X91391500Y-89638134D01*
X90508500Y-89638134D01*
X90508500Y-83626695D01*
X91387251Y-83626695D01*
X91387548Y-83631848D01*
X91387548Y-83631851D01*
X91393011Y-83726590D01*
X91400110Y-83849715D01*
X91401247Y-83854761D01*
X91401248Y-83854767D01*
X91419768Y-83936944D01*
X91449222Y-84067639D01*
X91510673Y-84218976D01*
X91529812Y-84266109D01*
X91533266Y-84274616D01*
X91535965Y-84279020D01*
X91626277Y-84426396D01*
X91649987Y-84465088D01*
X91796250Y-84633938D01*
X91968126Y-84776632D01*
X92029798Y-84812670D01*
X92041955Y-84819774D01*
X92090679Y-84871412D01*
X92103750Y-84941195D01*
X92077019Y-85006967D01*
X92036562Y-85040327D01*
X92028457Y-85044546D01*
X92019738Y-85050036D01*
X91849433Y-85177905D01*
X91841726Y-85184748D01*
X91694590Y-85338717D01*
X91688104Y-85346727D01*
X91568098Y-85522649D01*
X91563000Y-85531623D01*
X91473338Y-85724783D01*
X91469775Y-85734470D01*
X91414389Y-85934183D01*
X91415912Y-85942607D01*
X91428292Y-85946000D01*
X94068344Y-85946000D01*
X94081875Y-85942027D01*
X94083180Y-85932947D01*
X94041214Y-85765875D01*
X94037894Y-85756124D01*
X93952972Y-85560814D01*
X93948105Y-85551739D01*
X93832426Y-85372926D01*
X93826136Y-85364757D01*
X93682806Y-85207240D01*
X93675273Y-85200215D01*
X93508139Y-85068222D01*
X93499556Y-85062520D01*
X93462602Y-85042120D01*
X93412631Y-84991687D01*
X93397859Y-84922245D01*
X93422975Y-84855839D01*
X93450327Y-84829232D01*
X93519665Y-84779774D01*
X93629860Y-84701173D01*
X93655488Y-84675635D01*
X93784435Y-84547137D01*
X93788096Y-84543489D01*
X93814218Y-84507137D01*
X93915435Y-84366277D01*
X93918453Y-84362077D01*
X93936147Y-84326277D01*
X94015136Y-84166453D01*
X94015137Y-84166451D01*
X94017430Y-84161811D01*
X94082370Y-83948069D01*
X94111529Y-83726590D01*
X94112425Y-83689908D01*
X94113074Y-83663365D01*
X94113074Y-83663361D01*
X94113156Y-83660000D01*
X94107129Y-83586695D01*
X94987251Y-83586695D01*
X94987548Y-83591848D01*
X94987548Y-83591851D01*
X94993011Y-83686590D01*
X95000110Y-83809715D01*
X95001247Y-83814761D01*
X95001248Y-83814767D01*
X95010263Y-83854767D01*
X95049222Y-84027639D01*
X95087461Y-84121811D01*
X95114028Y-84187237D01*
X95133266Y-84234616D01*
X95249987Y-84425088D01*
X95396250Y-84593938D01*
X95568126Y-84736632D01*
X95593881Y-84751682D01*
X95641955Y-84779774D01*
X95690679Y-84831412D01*
X95703750Y-84901195D01*
X95677019Y-84966967D01*
X95636562Y-85000327D01*
X95628457Y-85004546D01*
X95619738Y-85010036D01*
X95449433Y-85137905D01*
X95441726Y-85144748D01*
X95294590Y-85298717D01*
X95288104Y-85306727D01*
X95168098Y-85482649D01*
X95163000Y-85491623D01*
X95073338Y-85684783D01*
X95069775Y-85694470D01*
X95014389Y-85894183D01*
X95015912Y-85902607D01*
X95028292Y-85906000D01*
X97668344Y-85906000D01*
X97681875Y-85902027D01*
X97683180Y-85892947D01*
X97641214Y-85725875D01*
X97637894Y-85716124D01*
X97552972Y-85520814D01*
X97548105Y-85511739D01*
X97432426Y-85332926D01*
X97426136Y-85324757D01*
X97282806Y-85167240D01*
X97275273Y-85160215D01*
X97108139Y-85028222D01*
X97099556Y-85022520D01*
X97062602Y-85002120D01*
X97012631Y-84951687D01*
X96997859Y-84882245D01*
X97022975Y-84815839D01*
X97050327Y-84789232D01*
X97102970Y-84751682D01*
X97229860Y-84661173D01*
X97257191Y-84633938D01*
X97384435Y-84507137D01*
X97388096Y-84503489D01*
X97447594Y-84420689D01*
X97515435Y-84326277D01*
X97518453Y-84322077D01*
X97544276Y-84269829D01*
X97615136Y-84126453D01*
X97615137Y-84126451D01*
X97617430Y-84121811D01*
X97682370Y-83908069D01*
X97711529Y-83686590D01*
X97711611Y-83683240D01*
X97713074Y-83623365D01*
X97713074Y-83623361D01*
X97713156Y-83620000D01*
X97710418Y-83586695D01*
X98687251Y-83586695D01*
X98687548Y-83591848D01*
X98687548Y-83591851D01*
X98693011Y-83686590D01*
X98700110Y-83809715D01*
X98701247Y-83814761D01*
X98701248Y-83814767D01*
X98710263Y-83854767D01*
X98749222Y-84027639D01*
X98787461Y-84121811D01*
X98814028Y-84187237D01*
X98833266Y-84234616D01*
X98949987Y-84425088D01*
X99096250Y-84593938D01*
X99268126Y-84736632D01*
X99293881Y-84751682D01*
X99341955Y-84779774D01*
X99390679Y-84831412D01*
X99403750Y-84901195D01*
X99377019Y-84966967D01*
X99336562Y-85000327D01*
X99328457Y-85004546D01*
X99319738Y-85010036D01*
X99149433Y-85137905D01*
X99141726Y-85144748D01*
X98994590Y-85298717D01*
X98988104Y-85306727D01*
X98868098Y-85482649D01*
X98863000Y-85491623D01*
X98773338Y-85684783D01*
X98769775Y-85694470D01*
X98714389Y-85894183D01*
X98715912Y-85902607D01*
X98728292Y-85906000D01*
X101368344Y-85906000D01*
X101381875Y-85902027D01*
X101383180Y-85892947D01*
X101341214Y-85725875D01*
X101337894Y-85716124D01*
X101252972Y-85520814D01*
X101248105Y-85511739D01*
X101132426Y-85332926D01*
X101126136Y-85324757D01*
X100982806Y-85167240D01*
X100975273Y-85160215D01*
X100808139Y-85028222D01*
X100799556Y-85022520D01*
X100762602Y-85002120D01*
X100712631Y-84951687D01*
X100697859Y-84882245D01*
X100722975Y-84815839D01*
X100750327Y-84789232D01*
X100802970Y-84751682D01*
X100929860Y-84661173D01*
X100957191Y-84633938D01*
X101084435Y-84507137D01*
X101088096Y-84503489D01*
X101147594Y-84420689D01*
X101215435Y-84326277D01*
X101218453Y-84322077D01*
X101244276Y-84269829D01*
X101315136Y-84126453D01*
X101315137Y-84126451D01*
X101317430Y-84121811D01*
X101382370Y-83908069D01*
X101411529Y-83686590D01*
X101411611Y-83683240D01*
X101413074Y-83623365D01*
X101413074Y-83623361D01*
X101413156Y-83620000D01*
X101394852Y-83397361D01*
X101340431Y-83180702D01*
X101251354Y-82975840D01*
X101153420Y-82824457D01*
X101132822Y-82792617D01*
X101132820Y-82792614D01*
X101130014Y-82788277D01*
X100979670Y-82623051D01*
X100975619Y-82619852D01*
X100975615Y-82619848D01*
X100808414Y-82487800D01*
X100808410Y-82487798D01*
X100804359Y-82484598D01*
X100762569Y-82461529D01*
X100712598Y-82411097D01*
X100697826Y-82341654D01*
X100722942Y-82275248D01*
X100750294Y-82248641D01*
X100925328Y-82123792D01*
X100933200Y-82117139D01*
X101084052Y-81966812D01*
X101090730Y-81958965D01*
X101215003Y-81786020D01*
X101220313Y-81777183D01*
X101314670Y-81586267D01*
X101318469Y-81576672D01*
X101380377Y-81372910D01*
X101382555Y-81362837D01*
X101383986Y-81351962D01*
X101381775Y-81337778D01*
X101368617Y-81334000D01*
X98733225Y-81334000D01*
X98719694Y-81337973D01*
X98718257Y-81347966D01*
X98748565Y-81482446D01*
X98751645Y-81492275D01*
X98831770Y-81689603D01*
X98836413Y-81698794D01*
X98947694Y-81880388D01*
X98953777Y-81888699D01*
X99093213Y-82049667D01*
X99100580Y-82056883D01*
X99264434Y-82192916D01*
X99272881Y-82198831D01*
X99341969Y-82239203D01*
X99390693Y-82290842D01*
X99403764Y-82360625D01*
X99377033Y-82426396D01*
X99336584Y-82459752D01*
X99323607Y-82466507D01*
X99319474Y-82469610D01*
X99319471Y-82469612D01*
X99149100Y-82597530D01*
X99144965Y-82600635D01*
X98990629Y-82762138D01*
X98864743Y-82946680D01*
X98770688Y-83149305D01*
X98710989Y-83364570D01*
X98687251Y-83586695D01*
X97710418Y-83586695D01*
X97694852Y-83397361D01*
X97640431Y-83180702D01*
X97551354Y-82975840D01*
X97453420Y-82824457D01*
X97432822Y-82792617D01*
X97432820Y-82792614D01*
X97430014Y-82788277D01*
X97279670Y-82623051D01*
X97275619Y-82619852D01*
X97275615Y-82619848D01*
X97108414Y-82487800D01*
X97108410Y-82487798D01*
X97104359Y-82484598D01*
X97062569Y-82461529D01*
X97012598Y-82411097D01*
X96997826Y-82341654D01*
X97022942Y-82275248D01*
X97050294Y-82248641D01*
X97225328Y-82123792D01*
X97233200Y-82117139D01*
X97384052Y-81966812D01*
X97390730Y-81958965D01*
X97515003Y-81786020D01*
X97520313Y-81777183D01*
X97614670Y-81586267D01*
X97618469Y-81576672D01*
X97680377Y-81372910D01*
X97682555Y-81362837D01*
X97683986Y-81351962D01*
X97681775Y-81337778D01*
X97668617Y-81334000D01*
X95033225Y-81334000D01*
X95019694Y-81337973D01*
X95018257Y-81347966D01*
X95048565Y-81482446D01*
X95051645Y-81492275D01*
X95131770Y-81689603D01*
X95136413Y-81698794D01*
X95247694Y-81880388D01*
X95253777Y-81888699D01*
X95393213Y-82049667D01*
X95400580Y-82056883D01*
X95564434Y-82192916D01*
X95572881Y-82198831D01*
X95641969Y-82239203D01*
X95690693Y-82290842D01*
X95703764Y-82360625D01*
X95677033Y-82426396D01*
X95636584Y-82459752D01*
X95623607Y-82466507D01*
X95619474Y-82469610D01*
X95619471Y-82469612D01*
X95449100Y-82597530D01*
X95444965Y-82600635D01*
X95290629Y-82762138D01*
X95164743Y-82946680D01*
X95070688Y-83149305D01*
X95010989Y-83364570D01*
X94987251Y-83586695D01*
X94107129Y-83586695D01*
X94094852Y-83437361D01*
X94040431Y-83220702D01*
X93951354Y-83015840D01*
X93852514Y-82863056D01*
X93832822Y-82832617D01*
X93832820Y-82832614D01*
X93830014Y-82828277D01*
X93679670Y-82663051D01*
X93675619Y-82659852D01*
X93675615Y-82659848D01*
X93508414Y-82527800D01*
X93508410Y-82527798D01*
X93504359Y-82524598D01*
X93462569Y-82501529D01*
X93412598Y-82451097D01*
X93397826Y-82381654D01*
X93422942Y-82315248D01*
X93450294Y-82288641D01*
X93625328Y-82163792D01*
X93633200Y-82157139D01*
X93784052Y-82006812D01*
X93790730Y-81998965D01*
X93915003Y-81826020D01*
X93920313Y-81817183D01*
X94014670Y-81626267D01*
X94018469Y-81616672D01*
X94080377Y-81412910D01*
X94082555Y-81402837D01*
X94083986Y-81391962D01*
X94081775Y-81377778D01*
X94068617Y-81374000D01*
X91433225Y-81374000D01*
X91419694Y-81377973D01*
X91418257Y-81387966D01*
X91448565Y-81522446D01*
X91451645Y-81532275D01*
X91531770Y-81729603D01*
X91536413Y-81738794D01*
X91647694Y-81920388D01*
X91653777Y-81928699D01*
X91793213Y-82089667D01*
X91800580Y-82096883D01*
X91964434Y-82232916D01*
X91972881Y-82238831D01*
X92041969Y-82279203D01*
X92090693Y-82330842D01*
X92103764Y-82400625D01*
X92077033Y-82466396D01*
X92036584Y-82499752D01*
X92023607Y-82506507D01*
X92019474Y-82509610D01*
X92019471Y-82509612D01*
X91863298Y-82626870D01*
X91844965Y-82640635D01*
X91841393Y-82644373D01*
X91724771Y-82766411D01*
X91690629Y-82802138D01*
X91687715Y-82806410D01*
X91687714Y-82806411D01*
X91645173Y-82868774D01*
X91564743Y-82986680D01*
X91517716Y-83087992D01*
X91491435Y-83144610D01*
X91470688Y-83189305D01*
X91410989Y-83404570D01*
X91387251Y-83626695D01*
X90508500Y-83626695D01*
X90508500Y-80854183D01*
X91414389Y-80854183D01*
X91415912Y-80862607D01*
X91428292Y-80866000D01*
X92477885Y-80866000D01*
X92493124Y-80861525D01*
X92494329Y-80860135D01*
X92496000Y-80852452D01*
X92496000Y-80847885D01*
X93004000Y-80847885D01*
X93008475Y-80863124D01*
X93009865Y-80864329D01*
X93017548Y-80866000D01*
X94068344Y-80866000D01*
X94081875Y-80862027D01*
X94083180Y-80852947D01*
X94073443Y-80814183D01*
X95014389Y-80814183D01*
X95015912Y-80822607D01*
X95028292Y-80826000D01*
X96077885Y-80826000D01*
X96093124Y-80821525D01*
X96094329Y-80820135D01*
X96096000Y-80812452D01*
X96096000Y-80807885D01*
X96604000Y-80807885D01*
X96608475Y-80823124D01*
X96609865Y-80824329D01*
X96617548Y-80826000D01*
X97668344Y-80826000D01*
X97681875Y-80822027D01*
X97683002Y-80814183D01*
X98714389Y-80814183D01*
X98715912Y-80822607D01*
X98728292Y-80826000D01*
X99777885Y-80826000D01*
X99793124Y-80821525D01*
X99794329Y-80820135D01*
X99796000Y-80812452D01*
X99796000Y-80807885D01*
X100304000Y-80807885D01*
X100308475Y-80823124D01*
X100309865Y-80824329D01*
X100317548Y-80826000D01*
X101368344Y-80826000D01*
X101381875Y-80822027D01*
X101383180Y-80812947D01*
X101341214Y-80645875D01*
X101337894Y-80636124D01*
X101252972Y-80440814D01*
X101248105Y-80431739D01*
X101132426Y-80252926D01*
X101126136Y-80244757D01*
X100982806Y-80087240D01*
X100975273Y-80080215D01*
X100808139Y-79948222D01*
X100799552Y-79942517D01*
X100613117Y-79839599D01*
X100603705Y-79835369D01*
X100402959Y-79764280D01*
X100392988Y-79761646D01*
X100321837Y-79748972D01*
X100308540Y-79750432D01*
X100304000Y-79764989D01*
X100304000Y-80807885D01*
X99796000Y-80807885D01*
X99796000Y-79763102D01*
X99792082Y-79749758D01*
X99777806Y-79747771D01*
X99739324Y-79753660D01*
X99729288Y-79756051D01*
X99526868Y-79822212D01*
X99517359Y-79826209D01*
X99328463Y-79924542D01*
X99319738Y-79930036D01*
X99149433Y-80057905D01*
X99141726Y-80064748D01*
X98994590Y-80218717D01*
X98988104Y-80226727D01*
X98868098Y-80402649D01*
X98863000Y-80411623D01*
X98773338Y-80604783D01*
X98769775Y-80614470D01*
X98714389Y-80814183D01*
X97683002Y-80814183D01*
X97683180Y-80812947D01*
X97641214Y-80645875D01*
X97637894Y-80636124D01*
X97552972Y-80440814D01*
X97548105Y-80431739D01*
X97432426Y-80252926D01*
X97426136Y-80244757D01*
X97282806Y-80087240D01*
X97275273Y-80080215D01*
X97108139Y-79948222D01*
X97099552Y-79942517D01*
X96913117Y-79839599D01*
X96903705Y-79835369D01*
X96702959Y-79764280D01*
X96692988Y-79761646D01*
X96621837Y-79748972D01*
X96608540Y-79750432D01*
X96604000Y-79764989D01*
X96604000Y-80807885D01*
X96096000Y-80807885D01*
X96096000Y-79763102D01*
X96092082Y-79749758D01*
X96077806Y-79747771D01*
X96039324Y-79753660D01*
X96029288Y-79756051D01*
X95826868Y-79822212D01*
X95817359Y-79826209D01*
X95628463Y-79924542D01*
X95619738Y-79930036D01*
X95449433Y-80057905D01*
X95441726Y-80064748D01*
X95294590Y-80218717D01*
X95288104Y-80226727D01*
X95168098Y-80402649D01*
X95163000Y-80411623D01*
X95073338Y-80604783D01*
X95069775Y-80614470D01*
X95014389Y-80814183D01*
X94073443Y-80814183D01*
X94041214Y-80685875D01*
X94037894Y-80676124D01*
X93952972Y-80480814D01*
X93948105Y-80471739D01*
X93832426Y-80292926D01*
X93826136Y-80284757D01*
X93682806Y-80127240D01*
X93675273Y-80120215D01*
X93508139Y-79988222D01*
X93499552Y-79982517D01*
X93313117Y-79879599D01*
X93303705Y-79875369D01*
X93102959Y-79804280D01*
X93092988Y-79801646D01*
X93021837Y-79788972D01*
X93008540Y-79790432D01*
X93004000Y-79804989D01*
X93004000Y-80847885D01*
X92496000Y-80847885D01*
X92496000Y-79803102D01*
X92492082Y-79789758D01*
X92477806Y-79787771D01*
X92439324Y-79793660D01*
X92429288Y-79796051D01*
X92226868Y-79862212D01*
X92217359Y-79866209D01*
X92028463Y-79964542D01*
X92019738Y-79970036D01*
X91849433Y-80097905D01*
X91841726Y-80104748D01*
X91694590Y-80258717D01*
X91688104Y-80266727D01*
X91568098Y-80442649D01*
X91563000Y-80451623D01*
X91473338Y-80644783D01*
X91469775Y-80654470D01*
X91414389Y-80854183D01*
X90508500Y-80854183D01*
X90508500Y-70419669D01*
X100717001Y-70419669D01*
X100717371Y-70426490D01*
X100722895Y-70477352D01*
X100726521Y-70492604D01*
X100771676Y-70613054D01*
X100780214Y-70628649D01*
X100856715Y-70730724D01*
X100869276Y-70743285D01*
X100971351Y-70819786D01*
X100986946Y-70828324D01*
X101107394Y-70873478D01*
X101122649Y-70877105D01*
X101173514Y-70882631D01*
X101180328Y-70883000D01*
X101802885Y-70883000D01*
X101818124Y-70878525D01*
X101819329Y-70877135D01*
X101821000Y-70869452D01*
X101821000Y-70864884D01*
X102329000Y-70864884D01*
X102333475Y-70880123D01*
X102334865Y-70881328D01*
X102342548Y-70882999D01*
X102969669Y-70882999D01*
X102976490Y-70882629D01*
X103027352Y-70877105D01*
X103042604Y-70873479D01*
X103163054Y-70828324D01*
X103178649Y-70819786D01*
X103280724Y-70743285D01*
X103293285Y-70730724D01*
X103369786Y-70628649D01*
X103378325Y-70613052D01*
X103419425Y-70503418D01*
X103462066Y-70446653D01*
X103528628Y-70421953D01*
X103597977Y-70437160D01*
X103632645Y-70465150D01*
X103658219Y-70494674D01*
X103665580Y-70501883D01*
X103829434Y-70637916D01*
X103837881Y-70643831D01*
X104021756Y-70751279D01*
X104031042Y-70755729D01*
X104230001Y-70831703D01*
X104239899Y-70834579D01*
X104343250Y-70855606D01*
X104357299Y-70854410D01*
X104361000Y-70844065D01*
X104361000Y-70843517D01*
X104869000Y-70843517D01*
X104873064Y-70857359D01*
X104886478Y-70859393D01*
X104893184Y-70858534D01*
X104903262Y-70856392D01*
X105107255Y-70795191D01*
X105116842Y-70791433D01*
X105308095Y-70697739D01*
X105316945Y-70692464D01*
X105490328Y-70568792D01*
X105498200Y-70562139D01*
X105649052Y-70411812D01*
X105655730Y-70403965D01*
X105783022Y-70226819D01*
X105784147Y-70227627D01*
X105831669Y-70183876D01*
X105901607Y-70171661D01*
X105967046Y-70199197D01*
X105994870Y-70231028D01*
X106052690Y-70325383D01*
X106058777Y-70333699D01*
X106198213Y-70494667D01*
X106205580Y-70501883D01*
X106369434Y-70637916D01*
X106377881Y-70643831D01*
X106561756Y-70751279D01*
X106571042Y-70755729D01*
X106770001Y-70831703D01*
X106779899Y-70834579D01*
X106883250Y-70855606D01*
X106897299Y-70854410D01*
X106901000Y-70844065D01*
X106901000Y-70843517D01*
X107409000Y-70843517D01*
X107413064Y-70857359D01*
X107426478Y-70859393D01*
X107433184Y-70858534D01*
X107443262Y-70856392D01*
X107647255Y-70795191D01*
X107656842Y-70791433D01*
X107848095Y-70697739D01*
X107856945Y-70692464D01*
X108030328Y-70568792D01*
X108038200Y-70562139D01*
X108189052Y-70411812D01*
X108195730Y-70403965D01*
X108323022Y-70226819D01*
X108324147Y-70227627D01*
X108371669Y-70183876D01*
X108441607Y-70171661D01*
X108507046Y-70199197D01*
X108534870Y-70231028D01*
X108592690Y-70325383D01*
X108598777Y-70333699D01*
X108738213Y-70494667D01*
X108745580Y-70501883D01*
X108909434Y-70637916D01*
X108917881Y-70643831D01*
X109101756Y-70751279D01*
X109111042Y-70755729D01*
X109310001Y-70831703D01*
X109319899Y-70834579D01*
X109423250Y-70855606D01*
X109437299Y-70854410D01*
X109441000Y-70844065D01*
X109441000Y-70843517D01*
X109949000Y-70843517D01*
X109953064Y-70857359D01*
X109966478Y-70859393D01*
X109973184Y-70858534D01*
X109983262Y-70856392D01*
X110187255Y-70795191D01*
X110196842Y-70791433D01*
X110388095Y-70697739D01*
X110396945Y-70692464D01*
X110570328Y-70568792D01*
X110578200Y-70562139D01*
X110729052Y-70411812D01*
X110735730Y-70403965D01*
X110863022Y-70226819D01*
X110864147Y-70227627D01*
X110911669Y-70183876D01*
X110981607Y-70171661D01*
X111047046Y-70199197D01*
X111074870Y-70231028D01*
X111132690Y-70325383D01*
X111138777Y-70333699D01*
X111278213Y-70494667D01*
X111285580Y-70501883D01*
X111449434Y-70637916D01*
X111457881Y-70643831D01*
X111641756Y-70751279D01*
X111651042Y-70755729D01*
X111850001Y-70831703D01*
X111859899Y-70834579D01*
X111963250Y-70855606D01*
X111977299Y-70854410D01*
X111981000Y-70844065D01*
X111981000Y-70843517D01*
X112489000Y-70843517D01*
X112493064Y-70857359D01*
X112506478Y-70859393D01*
X112513184Y-70858534D01*
X112523262Y-70856392D01*
X112727255Y-70795191D01*
X112736842Y-70791433D01*
X112928095Y-70697739D01*
X112936945Y-70692464D01*
X113110328Y-70568792D01*
X113118200Y-70562139D01*
X113269052Y-70411812D01*
X113275730Y-70403965D01*
X113403022Y-70226819D01*
X113404147Y-70227627D01*
X113451669Y-70183876D01*
X113521607Y-70171661D01*
X113587046Y-70199197D01*
X113614870Y-70231028D01*
X113672690Y-70325383D01*
X113678777Y-70333699D01*
X113818213Y-70494667D01*
X113825580Y-70501883D01*
X113989434Y-70637916D01*
X113997881Y-70643831D01*
X114181756Y-70751279D01*
X114191042Y-70755729D01*
X114390001Y-70831703D01*
X114399899Y-70834579D01*
X114503250Y-70855606D01*
X114517299Y-70854410D01*
X114521000Y-70844065D01*
X114521000Y-70843517D01*
X115029000Y-70843517D01*
X115033064Y-70857359D01*
X115046478Y-70859393D01*
X115053184Y-70858534D01*
X115063262Y-70856392D01*
X115267255Y-70795191D01*
X115276842Y-70791433D01*
X115468095Y-70697739D01*
X115476945Y-70692464D01*
X115650328Y-70568792D01*
X115658200Y-70562139D01*
X115809052Y-70411812D01*
X115815730Y-70403965D01*
X115943022Y-70226819D01*
X115944147Y-70227627D01*
X115991669Y-70183876D01*
X116061607Y-70171661D01*
X116127046Y-70199197D01*
X116154870Y-70231028D01*
X116212690Y-70325383D01*
X116218777Y-70333699D01*
X116358213Y-70494667D01*
X116365580Y-70501883D01*
X116529434Y-70637916D01*
X116537881Y-70643831D01*
X116721756Y-70751279D01*
X116731042Y-70755729D01*
X116930001Y-70831703D01*
X116939899Y-70834579D01*
X117043250Y-70855606D01*
X117057299Y-70854410D01*
X117061000Y-70844065D01*
X117061000Y-70843517D01*
X117569000Y-70843517D01*
X117573064Y-70857359D01*
X117586478Y-70859393D01*
X117593184Y-70858534D01*
X117603262Y-70856392D01*
X117807255Y-70795191D01*
X117816842Y-70791433D01*
X118008095Y-70697739D01*
X118016945Y-70692464D01*
X118190328Y-70568792D01*
X118198200Y-70562139D01*
X118349052Y-70411812D01*
X118355730Y-70403965D01*
X118483022Y-70226819D01*
X118484147Y-70227627D01*
X118531669Y-70183876D01*
X118601607Y-70171661D01*
X118667046Y-70199197D01*
X118694870Y-70231028D01*
X118752690Y-70325383D01*
X118758777Y-70333699D01*
X118898213Y-70494667D01*
X118905580Y-70501883D01*
X119069434Y-70637916D01*
X119077881Y-70643831D01*
X119261756Y-70751279D01*
X119271042Y-70755729D01*
X119470001Y-70831703D01*
X119479899Y-70834579D01*
X119583250Y-70855606D01*
X119597299Y-70854410D01*
X119601000Y-70844065D01*
X119601000Y-70843517D01*
X120109000Y-70843517D01*
X120113064Y-70857359D01*
X120126478Y-70859393D01*
X120133184Y-70858534D01*
X120143262Y-70856392D01*
X120347255Y-70795191D01*
X120356842Y-70791433D01*
X120548095Y-70697739D01*
X120556945Y-70692464D01*
X120730328Y-70568792D01*
X120738200Y-70562139D01*
X120889052Y-70411812D01*
X120895730Y-70403965D01*
X120902410Y-70394669D01*
X122192001Y-70394669D01*
X122192371Y-70401490D01*
X122197895Y-70452352D01*
X122201521Y-70467604D01*
X122246676Y-70588054D01*
X122255214Y-70603649D01*
X122331715Y-70705724D01*
X122344276Y-70718285D01*
X122446351Y-70794786D01*
X122461946Y-70803324D01*
X122582394Y-70848478D01*
X122597649Y-70852105D01*
X122648514Y-70857631D01*
X122655328Y-70858000D01*
X123277885Y-70858000D01*
X123293124Y-70853525D01*
X123294329Y-70852135D01*
X123296000Y-70844452D01*
X123296000Y-70839884D01*
X123804000Y-70839884D01*
X123808475Y-70855123D01*
X123809865Y-70856328D01*
X123817548Y-70857999D01*
X124444669Y-70857999D01*
X124451490Y-70857629D01*
X124502352Y-70852105D01*
X124517604Y-70848479D01*
X124638054Y-70803324D01*
X124653649Y-70794786D01*
X124755724Y-70718285D01*
X124768285Y-70705724D01*
X124844786Y-70603649D01*
X124853325Y-70588052D01*
X124894425Y-70478418D01*
X124937066Y-70421653D01*
X125003628Y-70396953D01*
X125072977Y-70412160D01*
X125107645Y-70440150D01*
X125133219Y-70469674D01*
X125140580Y-70476883D01*
X125304434Y-70612916D01*
X125312881Y-70618831D01*
X125496756Y-70726279D01*
X125506042Y-70730729D01*
X125705001Y-70806703D01*
X125714899Y-70809579D01*
X125818250Y-70830606D01*
X125832299Y-70829410D01*
X125836000Y-70819065D01*
X125836000Y-70818517D01*
X126344000Y-70818517D01*
X126348064Y-70832359D01*
X126361478Y-70834393D01*
X126368184Y-70833534D01*
X126378262Y-70831392D01*
X126582255Y-70770191D01*
X126591842Y-70766433D01*
X126783095Y-70672739D01*
X126791945Y-70667464D01*
X126965328Y-70543792D01*
X126973200Y-70537139D01*
X127124052Y-70386812D01*
X127130730Y-70378965D01*
X127258022Y-70201819D01*
X127259147Y-70202627D01*
X127306669Y-70158876D01*
X127376607Y-70146661D01*
X127442046Y-70174197D01*
X127469870Y-70206028D01*
X127527690Y-70300383D01*
X127533777Y-70308699D01*
X127673213Y-70469667D01*
X127680580Y-70476883D01*
X127844434Y-70612916D01*
X127852881Y-70618831D01*
X128036756Y-70726279D01*
X128046042Y-70730729D01*
X128245001Y-70806703D01*
X128254899Y-70809579D01*
X128358250Y-70830606D01*
X128372299Y-70829410D01*
X128376000Y-70819065D01*
X128376000Y-70818517D01*
X128884000Y-70818517D01*
X128888064Y-70832359D01*
X128901478Y-70834393D01*
X128908184Y-70833534D01*
X128918262Y-70831392D01*
X129122255Y-70770191D01*
X129131842Y-70766433D01*
X129323095Y-70672739D01*
X129331945Y-70667464D01*
X129505328Y-70543792D01*
X129513200Y-70537139D01*
X129664052Y-70386812D01*
X129670730Y-70378965D01*
X129798022Y-70201819D01*
X129799147Y-70202627D01*
X129846669Y-70158876D01*
X129916607Y-70146661D01*
X129982046Y-70174197D01*
X130009870Y-70206028D01*
X130067690Y-70300383D01*
X130073777Y-70308699D01*
X130213213Y-70469667D01*
X130220580Y-70476883D01*
X130384434Y-70612916D01*
X130392881Y-70618831D01*
X130576756Y-70726279D01*
X130586042Y-70730729D01*
X130785001Y-70806703D01*
X130794899Y-70809579D01*
X130898250Y-70830606D01*
X130912299Y-70829410D01*
X130916000Y-70819065D01*
X130916000Y-70818517D01*
X131424000Y-70818517D01*
X131428064Y-70832359D01*
X131441478Y-70834393D01*
X131448184Y-70833534D01*
X131458262Y-70831392D01*
X131662255Y-70770191D01*
X131671842Y-70766433D01*
X131863095Y-70672739D01*
X131871945Y-70667464D01*
X132045328Y-70543792D01*
X132053200Y-70537139D01*
X132204052Y-70386812D01*
X132210730Y-70378965D01*
X132338022Y-70201819D01*
X132339147Y-70202627D01*
X132386669Y-70158876D01*
X132456607Y-70146661D01*
X132522046Y-70174197D01*
X132549870Y-70206028D01*
X132607690Y-70300383D01*
X132613777Y-70308699D01*
X132753213Y-70469667D01*
X132760580Y-70476883D01*
X132924434Y-70612916D01*
X132932881Y-70618831D01*
X133116756Y-70726279D01*
X133126042Y-70730729D01*
X133325001Y-70806703D01*
X133334899Y-70809579D01*
X133438250Y-70830606D01*
X133452299Y-70829410D01*
X133456000Y-70819065D01*
X133456000Y-70818517D01*
X133964000Y-70818517D01*
X133968064Y-70832359D01*
X133981478Y-70834393D01*
X133988184Y-70833534D01*
X133998262Y-70831392D01*
X134202255Y-70770191D01*
X134211842Y-70766433D01*
X134403095Y-70672739D01*
X134411945Y-70667464D01*
X134585328Y-70543792D01*
X134593200Y-70537139D01*
X134744052Y-70386812D01*
X134750730Y-70378965D01*
X134878022Y-70201819D01*
X134879147Y-70202627D01*
X134926669Y-70158876D01*
X134996607Y-70146661D01*
X135062046Y-70174197D01*
X135089870Y-70206028D01*
X135147690Y-70300383D01*
X135153777Y-70308699D01*
X135293213Y-70469667D01*
X135300580Y-70476883D01*
X135464434Y-70612916D01*
X135472881Y-70618831D01*
X135656756Y-70726279D01*
X135666042Y-70730729D01*
X135865001Y-70806703D01*
X135874899Y-70809579D01*
X135978250Y-70830606D01*
X135992299Y-70829410D01*
X135996000Y-70819065D01*
X135996000Y-70818517D01*
X136504000Y-70818517D01*
X136508064Y-70832359D01*
X136521478Y-70834393D01*
X136528184Y-70833534D01*
X136538262Y-70831392D01*
X136742255Y-70770191D01*
X136751842Y-70766433D01*
X136943095Y-70672739D01*
X136951945Y-70667464D01*
X137125328Y-70543792D01*
X137133200Y-70537139D01*
X137284052Y-70386812D01*
X137290730Y-70378965D01*
X137418022Y-70201819D01*
X137419147Y-70202627D01*
X137466669Y-70158876D01*
X137536607Y-70146661D01*
X137602046Y-70174197D01*
X137629870Y-70206028D01*
X137687690Y-70300383D01*
X137693777Y-70308699D01*
X137833213Y-70469667D01*
X137840580Y-70476883D01*
X138004434Y-70612916D01*
X138012881Y-70618831D01*
X138196756Y-70726279D01*
X138206042Y-70730729D01*
X138405001Y-70806703D01*
X138414899Y-70809579D01*
X138518250Y-70830606D01*
X138532299Y-70829410D01*
X138536000Y-70819065D01*
X138536000Y-70818517D01*
X139044000Y-70818517D01*
X139048064Y-70832359D01*
X139061478Y-70834393D01*
X139068184Y-70833534D01*
X139078262Y-70831392D01*
X139282255Y-70770191D01*
X139291842Y-70766433D01*
X139483095Y-70672739D01*
X139491945Y-70667464D01*
X139665328Y-70543792D01*
X139673200Y-70537139D01*
X139824052Y-70386812D01*
X139830730Y-70378965D01*
X139958022Y-70201819D01*
X139959147Y-70202627D01*
X140006669Y-70158876D01*
X140076607Y-70146661D01*
X140142046Y-70174197D01*
X140169870Y-70206028D01*
X140227690Y-70300383D01*
X140233777Y-70308699D01*
X140373213Y-70469667D01*
X140380580Y-70476883D01*
X140544434Y-70612916D01*
X140552881Y-70618831D01*
X140736756Y-70726279D01*
X140746042Y-70730729D01*
X140945001Y-70806703D01*
X140954899Y-70809579D01*
X141058250Y-70830606D01*
X141072299Y-70829410D01*
X141076000Y-70819065D01*
X141076000Y-70818517D01*
X141584000Y-70818517D01*
X141588064Y-70832359D01*
X141601478Y-70834393D01*
X141608184Y-70833534D01*
X141618262Y-70831392D01*
X141822255Y-70770191D01*
X141831842Y-70766433D01*
X142023095Y-70672739D01*
X142031945Y-70667464D01*
X142205328Y-70543792D01*
X142213200Y-70537139D01*
X142364052Y-70386812D01*
X142370730Y-70378965D01*
X142495003Y-70206020D01*
X142500313Y-70197183D01*
X142594670Y-70006267D01*
X142598469Y-69996672D01*
X142660377Y-69792910D01*
X142662555Y-69782837D01*
X142663986Y-69771962D01*
X142661775Y-69757778D01*
X142648617Y-69754000D01*
X141602115Y-69754000D01*
X141586876Y-69758475D01*
X141585671Y-69759865D01*
X141584000Y-69767548D01*
X141584000Y-70818517D01*
X141076000Y-70818517D01*
X141076000Y-69772115D01*
X141071525Y-69756876D01*
X141070135Y-69755671D01*
X141062452Y-69754000D01*
X139062115Y-69754000D01*
X139046876Y-69758475D01*
X139045671Y-69759865D01*
X139044000Y-69767548D01*
X139044000Y-70818517D01*
X138536000Y-70818517D01*
X138536000Y-69772115D01*
X138531525Y-69756876D01*
X138530135Y-69755671D01*
X138522452Y-69754000D01*
X136522115Y-69754000D01*
X136506876Y-69758475D01*
X136505671Y-69759865D01*
X136504000Y-69767548D01*
X136504000Y-70818517D01*
X135996000Y-70818517D01*
X135996000Y-69772115D01*
X135991525Y-69756876D01*
X135990135Y-69755671D01*
X135982452Y-69754000D01*
X133982115Y-69754000D01*
X133966876Y-69758475D01*
X133965671Y-69759865D01*
X133964000Y-69767548D01*
X133964000Y-70818517D01*
X133456000Y-70818517D01*
X133456000Y-69772115D01*
X133451525Y-69756876D01*
X133450135Y-69755671D01*
X133442452Y-69754000D01*
X131442115Y-69754000D01*
X131426876Y-69758475D01*
X131425671Y-69759865D01*
X131424000Y-69767548D01*
X131424000Y-70818517D01*
X130916000Y-70818517D01*
X130916000Y-69772115D01*
X130911525Y-69756876D01*
X130910135Y-69755671D01*
X130902452Y-69754000D01*
X128902115Y-69754000D01*
X128886876Y-69758475D01*
X128885671Y-69759865D01*
X128884000Y-69767548D01*
X128884000Y-70818517D01*
X128376000Y-70818517D01*
X128376000Y-69772115D01*
X128371525Y-69756876D01*
X128370135Y-69755671D01*
X128362452Y-69754000D01*
X126362115Y-69754000D01*
X126346876Y-69758475D01*
X126345671Y-69759865D01*
X126344000Y-69767548D01*
X126344000Y-70818517D01*
X125836000Y-70818517D01*
X125836000Y-69772115D01*
X125831525Y-69756876D01*
X125830135Y-69755671D01*
X125822452Y-69754000D01*
X123822115Y-69754000D01*
X123806876Y-69758475D01*
X123805671Y-69759865D01*
X123804000Y-69767548D01*
X123804000Y-70839884D01*
X123296000Y-70839884D01*
X123296000Y-69772115D01*
X123291525Y-69756876D01*
X123290135Y-69755671D01*
X123282452Y-69754000D01*
X122210116Y-69754000D01*
X122194877Y-69758475D01*
X122193672Y-69759865D01*
X122192001Y-69767548D01*
X122192001Y-70394669D01*
X120902410Y-70394669D01*
X121020003Y-70231020D01*
X121025313Y-70222183D01*
X121119670Y-70031267D01*
X121123469Y-70021672D01*
X121185377Y-69817910D01*
X121187555Y-69807837D01*
X121188986Y-69796962D01*
X121186775Y-69782778D01*
X121173617Y-69779000D01*
X120127115Y-69779000D01*
X120111876Y-69783475D01*
X120110671Y-69784865D01*
X120109000Y-69792548D01*
X120109000Y-70843517D01*
X119601000Y-70843517D01*
X119601000Y-69797115D01*
X119596525Y-69781876D01*
X119595135Y-69780671D01*
X119587452Y-69779000D01*
X117587115Y-69779000D01*
X117571876Y-69783475D01*
X117570671Y-69784865D01*
X117569000Y-69792548D01*
X117569000Y-70843517D01*
X117061000Y-70843517D01*
X117061000Y-69797115D01*
X117056525Y-69781876D01*
X117055135Y-69780671D01*
X117047452Y-69779000D01*
X115047115Y-69779000D01*
X115031876Y-69783475D01*
X115030671Y-69784865D01*
X115029000Y-69792548D01*
X115029000Y-70843517D01*
X114521000Y-70843517D01*
X114521000Y-69797115D01*
X114516525Y-69781876D01*
X114515135Y-69780671D01*
X114507452Y-69779000D01*
X112507115Y-69779000D01*
X112491876Y-69783475D01*
X112490671Y-69784865D01*
X112489000Y-69792548D01*
X112489000Y-70843517D01*
X111981000Y-70843517D01*
X111981000Y-69797115D01*
X111976525Y-69781876D01*
X111975135Y-69780671D01*
X111967452Y-69779000D01*
X109967115Y-69779000D01*
X109951876Y-69783475D01*
X109950671Y-69784865D01*
X109949000Y-69792548D01*
X109949000Y-70843517D01*
X109441000Y-70843517D01*
X109441000Y-69797115D01*
X109436525Y-69781876D01*
X109435135Y-69780671D01*
X109427452Y-69779000D01*
X107427115Y-69779000D01*
X107411876Y-69783475D01*
X107410671Y-69784865D01*
X107409000Y-69792548D01*
X107409000Y-70843517D01*
X106901000Y-70843517D01*
X106901000Y-69797115D01*
X106896525Y-69781876D01*
X106895135Y-69780671D01*
X106887452Y-69779000D01*
X104887115Y-69779000D01*
X104871876Y-69783475D01*
X104870671Y-69784865D01*
X104869000Y-69792548D01*
X104869000Y-70843517D01*
X104361000Y-70843517D01*
X104361000Y-69797115D01*
X104356525Y-69781876D01*
X104355135Y-69780671D01*
X104347452Y-69779000D01*
X102347115Y-69779000D01*
X102331876Y-69783475D01*
X102330671Y-69784865D01*
X102329000Y-69792548D01*
X102329000Y-70864884D01*
X101821000Y-70864884D01*
X101821000Y-69797115D01*
X101816525Y-69781876D01*
X101815135Y-69780671D01*
X101807452Y-69779000D01*
X100735116Y-69779000D01*
X100719877Y-69783475D01*
X100718672Y-69784865D01*
X100717001Y-69792548D01*
X100717001Y-70419669D01*
X90508500Y-70419669D01*
X90508500Y-65634500D01*
X90528502Y-65566379D01*
X90582158Y-65519886D01*
X90634500Y-65508500D01*
X101454179Y-65508500D01*
X101522300Y-65528502D01*
G37*
%TD.AperFunction*%
%TD*%
M02*
