%TF.GenerationSoftware,KiCad,Pcbnew,(6.0.4)*%
%TF.CreationDate,2022-05-14T14:59:47+08:00*%
%TF.ProjectId,51,35312e6b-6963-4616-945f-706362585858,rev?*%
%TF.SameCoordinates,Original*%
%TF.FileFunction,Paste,Top*%
%TF.FilePolarity,Positive*%
%FSLAX46Y46*%
G04 Gerber Fmt 4.6, Leading zero omitted, Abs format (unit mm)*
G04 Created by KiCad (PCBNEW (6.0.4)) date 2022-05-14 14:59:47*
%MOMM*%
%LPD*%
G01*
G04 APERTURE LIST*
G04 Aperture macros list*
%AMRoundRect*
0 Rectangle with rounded corners*
0 $1 Rounding radius*
0 $2 $3 $4 $5 $6 $7 $8 $9 X,Y pos of 4 corners*
0 Add a 4 corners polygon primitive as box body*
4,1,4,$2,$3,$4,$5,$6,$7,$8,$9,$2,$3,0*
0 Add four circle primitives for the rounded corners*
1,1,$1+$1,$2,$3*
1,1,$1+$1,$4,$5*
1,1,$1+$1,$6,$7*
1,1,$1+$1,$8,$9*
0 Add four rect primitives between the rounded corners*
20,1,$1+$1,$2,$3,$4,$5,0*
20,1,$1+$1,$4,$5,$6,$7,0*
20,1,$1+$1,$6,$7,$8,$9,0*
20,1,$1+$1,$8,$9,$2,$3,0*%
G04 Aperture macros list end*
%ADD10RoundRect,0.249999X-1.450001X0.450001X-1.450001X-0.450001X1.450001X-0.450001X1.450001X0.450001X0*%
%ADD11RoundRect,0.250000X0.250000X0.475000X-0.250000X0.475000X-0.250000X-0.475000X0.250000X-0.475000X0*%
%ADD12RoundRect,0.243750X-0.243750X-0.456250X0.243750X-0.456250X0.243750X0.456250X-0.243750X0.456250X0*%
%ADD13RoundRect,0.250000X-0.250000X-0.475000X0.250000X-0.475000X0.250000X0.475000X-0.250000X0.475000X0*%
%ADD14RoundRect,0.243750X0.243750X0.456250X-0.243750X0.456250X-0.243750X-0.456250X0.243750X-0.456250X0*%
%ADD15RoundRect,0.250000X0.262500X0.450000X-0.262500X0.450000X-0.262500X-0.450000X0.262500X-0.450000X0*%
%ADD16R,1.150000X0.300000*%
%ADD17R,1.500000X1.500000*%
%ADD18RoundRect,0.137500X0.137500X-0.600000X0.137500X0.600000X-0.137500X0.600000X-0.137500X-0.600000X0*%
%ADD19RoundRect,0.137500X0.600000X-0.137500X0.600000X0.137500X-0.600000X0.137500X-0.600000X-0.137500X0*%
%ADD20RoundRect,0.250000X-0.262500X-0.450000X0.262500X-0.450000X0.262500X0.450000X-0.262500X0.450000X0*%
%ADD21R,0.800000X1.000000*%
%ADD22R,1.500000X0.700000*%
%ADD23RoundRect,0.150000X-0.825000X-0.150000X0.825000X-0.150000X0.825000X0.150000X-0.825000X0.150000X0*%
%ADD24RoundRect,0.250000X-0.450000X0.262500X-0.450000X-0.262500X0.450000X-0.262500X0.450000X0.262500X0*%
%ADD25R,2.300000X2.500000*%
%ADD26RoundRect,0.250000X0.375000X0.625000X-0.375000X0.625000X-0.375000X-0.625000X0.375000X-0.625000X0*%
G04 APERTURE END LIST*
D10*
%TO.C,TH1*%
X167000000Y-86950000D03*
X167000000Y-91050000D03*
%TD*%
D11*
%TO.C,C7*%
X106950000Y-91900000D03*
X105050000Y-91900000D03*
%TD*%
D12*
%TO.C,D2*%
X150962500Y-93800000D03*
X152837500Y-93800000D03*
%TD*%
D13*
%TO.C,C10*%
X151050000Y-88900000D03*
X152950000Y-88900000D03*
%TD*%
D11*
%TO.C,C1*%
X157100000Y-96150000D03*
X155200000Y-96150000D03*
%TD*%
D14*
%TO.C,D5*%
X144725000Y-93850000D03*
X142850000Y-93850000D03*
%TD*%
D15*
%TO.C,R2*%
X153712500Y-113200000D03*
X151887500Y-113200000D03*
%TD*%
D16*
%TO.C,USBC1*%
X162565000Y-109250000D03*
X162565000Y-108450000D03*
X162565000Y-107150000D03*
X162565000Y-106150000D03*
X162565000Y-105650000D03*
X162565000Y-104650000D03*
X162565000Y-103350000D03*
X162565000Y-102550000D03*
X162565000Y-102850000D03*
X162565000Y-103650000D03*
X162565000Y-104150000D03*
X162565000Y-105150000D03*
X162565000Y-106650000D03*
X162565000Y-107650000D03*
X162565000Y-108150000D03*
X162565000Y-108950000D03*
%TD*%
D11*
%TO.C,C2*%
X152850000Y-96150000D03*
X150950000Y-96150000D03*
%TD*%
D15*
%TO.C,R8*%
X140862500Y-91550000D03*
X139037500Y-91550000D03*
%TD*%
D13*
%TO.C,C6*%
X152050000Y-71700000D03*
X153950000Y-71700000D03*
%TD*%
D11*
%TO.C,C9*%
X133600000Y-102100000D03*
X131700000Y-102100000D03*
%TD*%
D17*
%TO.C,SW1*%
X158200000Y-75450000D03*
X150400000Y-75450000D03*
%TD*%
D11*
%TO.C,C8*%
X133600000Y-85100000D03*
X131700000Y-85100000D03*
%TD*%
D14*
%TO.C,D6*%
X144737500Y-91550000D03*
X142862500Y-91550000D03*
%TD*%
D17*
%TO.C,SW3*%
X158150000Y-84850000D03*
X150350000Y-84850000D03*
%TD*%
D18*
%TO.C,U2*%
X112100000Y-98362500D03*
X112900000Y-98362500D03*
X113700000Y-98362500D03*
X114500000Y-98362500D03*
X115300000Y-98362500D03*
X116100000Y-98362500D03*
X116900000Y-98362500D03*
X117700000Y-98362500D03*
X118500000Y-98362500D03*
X119300000Y-98362500D03*
X120100000Y-98362500D03*
D19*
X121762500Y-96700000D03*
X121762500Y-95900000D03*
X121762500Y-95100000D03*
X121762500Y-94300000D03*
X121762500Y-93500000D03*
X121762500Y-92700000D03*
X121762500Y-91900000D03*
X121762500Y-91100000D03*
X121762500Y-90300000D03*
X121762500Y-89500000D03*
X121762500Y-88700000D03*
D18*
X120100000Y-87037500D03*
X119300000Y-87037500D03*
X118500000Y-87037500D03*
X117700000Y-87037500D03*
X116900000Y-87037500D03*
X116100000Y-87037500D03*
X115300000Y-87037500D03*
X114500000Y-87037500D03*
X113700000Y-87037500D03*
X112900000Y-87037500D03*
X112100000Y-87037500D03*
D19*
X110437500Y-88700000D03*
X110437500Y-89500000D03*
X110437500Y-90300000D03*
X110437500Y-91100000D03*
X110437500Y-91900000D03*
X110437500Y-92700000D03*
X110437500Y-93500000D03*
X110437500Y-94300000D03*
X110437500Y-95100000D03*
X110437500Y-95900000D03*
X110437500Y-96700000D03*
%TD*%
D15*
%TO.C,R6*%
X140762500Y-89300000D03*
X138937500Y-89300000D03*
%TD*%
D20*
%TO.C,R4*%
X155250000Y-91500000D03*
X157075000Y-91500000D03*
%TD*%
D13*
%TO.C,C3*%
X151750000Y-80200000D03*
X153650000Y-80200000D03*
%TD*%
D20*
%TO.C,R3*%
X155287500Y-93800000D03*
X157112500Y-93800000D03*
%TD*%
D21*
%TO.C,S1*%
X169430000Y-74350000D03*
X167220000Y-74350000D03*
X167220000Y-81650000D03*
X169430000Y-81650000D03*
D22*
X166570000Y-80250000D03*
X166570000Y-77250000D03*
X166570000Y-75750000D03*
%TD*%
D23*
%TO.C,U1*%
X151525000Y-100555000D03*
X151525000Y-101825000D03*
X151525000Y-103095000D03*
X151525000Y-104365000D03*
X151525000Y-105635000D03*
X151525000Y-106905000D03*
X151525000Y-108175000D03*
X151525000Y-109445000D03*
X156475000Y-109445000D03*
X156475000Y-108175000D03*
X156475000Y-106905000D03*
X156475000Y-105635000D03*
X156475000Y-104365000D03*
X156475000Y-103095000D03*
X156475000Y-101825000D03*
X156475000Y-100555000D03*
%TD*%
D14*
%TO.C,D4*%
X144737500Y-89300000D03*
X142862500Y-89300000D03*
%TD*%
D15*
%TO.C,R5*%
X158200000Y-71700000D03*
X156375000Y-71700000D03*
%TD*%
D24*
%TO.C,R9*%
X115300000Y-80187500D03*
X115300000Y-82012500D03*
%TD*%
D15*
%TO.C,R7*%
X140812500Y-93850000D03*
X138987500Y-93850000D03*
%TD*%
%TO.C,R1*%
X158162500Y-80200000D03*
X156337500Y-80200000D03*
%TD*%
D25*
%TO.C,DR1*%
X162000000Y-86850000D03*
X162000000Y-91150000D03*
%TD*%
D26*
%TO.C,D1*%
X159400000Y-113000000D03*
X156600000Y-113000000D03*
%TD*%
D15*
%TO.C,R10*%
X157112500Y-88850000D03*
X155287500Y-88850000D03*
%TD*%
D12*
%TO.C,D3*%
X150962500Y-91550000D03*
X152837500Y-91550000D03*
%TD*%
D17*
%TO.C,SW2*%
X150350000Y-67650000D03*
X158150000Y-67650000D03*
%TD*%
M02*
