M48
; DRILL file {KiCad (6.0.4)} date Sat May 14 14:59:44 2022
; FORMAT={-:-/ absolute / inch / decimal}
; #@! TF.CreationDate,2022-05-14T14:59:44+08:00
; #@! TF.GenerationSoftware,Kicad,Pcbnew,(6.0.4)
; #@! TF.FileFunction,Plated,1,2,PTH
FMAT,2
INCH
; #@! TA.AperFunction,Plated,PTH,ViaDrill
T1C0.0157
; #@! TA.AperFunction,Plated,PTH,ComponentDrill
T2C0.0236
; #@! TA.AperFunction,Plated,PTH,ComponentDrill
T3C0.0315
; #@! TA.AperFunction,Plated,PTH,ComponentDrill
T4C0.0394
%
G90
G05
T1
X3.6614Y-2.6772
X3.6614Y-2.7953
X3.6614Y-2.9921
X3.6614Y-4.5276
X3.6614Y-4.6063
X3.7008Y-2.9134
X3.7402Y-2.8346
X3.7402Y-3.0315
X3.7402Y-4.5669
X3.7795Y-4.6063
X3.7795Y-4.6457
X3.8189Y-2.7559
X3.8189Y-2.874
X3.8583Y-2.9921
X3.8583Y-3.622
X3.8976Y-4.4094
X3.937Y-3.622
X4.0157Y-3.0709
X4.0157Y-4.3701
X4.0472Y-3.6142
X4.0551Y-2.9528
X4.0945Y-3.1102
X4.0945Y-3.2283
X4.0945Y-3.3858
X4.1339Y-2.9921
X4.1339Y-3.3071
X4.4055Y-3.6181
X4.5079Y-4.0512
X4.5375Y-3.5382
X4.568Y-4.1339
X4.5709Y-3.5827
X4.6024Y-3.6142
X4.6063Y-2.9134
X4.6063Y-3.0315
X4.6339Y-3.6496
X4.6654Y-3.7323
X4.685Y-2.9921
X4.7244Y-2.9134
X4.7244Y-3.0709
X4.7638Y-2.9921
X4.8425Y-2.9134
X4.8425Y-3.0315
X4.8858Y-3.1575
X5.0Y-3.8976
X5.0394Y-3.9764
X5.0394Y-4.2126
X5.0787Y-3.937
X5.1181Y-4.1732
X5.1181Y-4.252
X5.1575Y-2.9528
X5.1575Y-3.0315
X5.1969Y-2.9134
X5.1969Y-3.0709
X5.2126Y-4.1654
X5.2362Y-2.9921
X5.2756Y-2.9134
X5.2756Y-3.0709
X5.3543Y-2.9528
X5.3543Y-3.0315
X5.3543Y-4.2126
X5.378Y-3.3465
X5.3937Y-4.1339
X5.3937Y-4.252
X5.4331Y-2.9134
X5.4331Y-2.9921
X5.4331Y-3.0709
X5.4724Y-3.1496
X5.4724Y-3.2835
X5.4724Y-3.7795
X5.4724Y-4.0945
X5.4724Y-4.1732
X5.4724Y-4.252
X5.5118Y-2.8346
X5.5118Y-2.9134
X5.5118Y-2.9921
X5.5118Y-3.0709
X5.5394Y-3.3465
X5.5512Y-3.189
X5.5512Y-3.9764
X5.5512Y-4.0551
X5.5512Y-4.1339
X5.5512Y-4.2126
X5.5512Y-4.2913
X5.5906Y-2.8346
X5.5906Y-2.9921
X5.5906Y-4.3701
X5.6299Y-2.9134
X5.6299Y-3.0709
X5.6299Y-3.189
X5.6299Y-4.1339
X5.6299Y-4.252
X5.7087Y-2.9921
X5.7087Y-3.1102
X5.7087Y-3.189
X5.748Y-2.7165
X5.7795Y-3.9528
X5.7874Y-2.7953
X5.7874Y-3.1102
X5.8268Y-2.7559
X5.8268Y-2.9724
X5.8819Y-3.9528
X6.0236Y-3.248
X6.0236Y-3.3976
X6.0276Y-4.0079
X6.063Y-4.2913
X6.0649Y-3.5039
X6.0669Y-3.7323
X6.1063Y-2.937
X6.252Y-3.6929
X6.3622Y-2.7441
X6.4567Y-2.6772
X6.4567Y-2.7559
X6.4567Y-3.8976
X6.4567Y-4.6063
X6.4961Y-3.8189
X6.4961Y-4.5276
X6.5354Y-2.7559
X6.5354Y-4.4882
X6.5748Y-2.6772
X6.5748Y-3.7795
X6.5748Y-3.8976
X6.5748Y-4.6063
T3
X5.2224Y-3.5689
X5.2224Y-3.7618
T4
X3.651Y-3.7159
X3.651Y-3.8159
X3.651Y-3.9159
X3.651Y-4.0159
X3.651Y-4.1159
X3.651Y-4.2159
X3.651Y-4.3159
X3.6516Y-3.1937
X3.6516Y-3.2937
X3.6516Y-3.3937
X3.6516Y-3.4937
X3.751Y-3.7159
X3.751Y-3.8159
X3.751Y-3.9159
X3.751Y-4.0159
X3.751Y-4.1159
X3.751Y-4.2159
X3.751Y-4.3159
X3.7933Y-3.1921
X3.7933Y-3.2921
X3.7933Y-3.3921
X3.7933Y-3.4921
X3.939Y-3.1921
X3.939Y-3.2921
X3.939Y-3.3921
X3.939Y-3.4921
X4.0187Y-2.6372
X4.0187Y-2.7372
X4.0659Y-4.525
X4.0659Y-4.625
X4.1187Y-2.6372
X4.1187Y-2.7372
X4.1659Y-4.525
X4.1659Y-4.625
X4.2187Y-2.6372
X4.2187Y-2.7372
X4.2659Y-4.525
X4.2659Y-4.625
X4.3187Y-2.6372
X4.3187Y-2.7372
X4.3659Y-4.525
X4.3659Y-4.625
X4.4187Y-2.6372
X4.4187Y-2.7372
X4.4659Y-4.525
X4.4659Y-4.625
X4.5187Y-2.6372
X4.5187Y-2.7372
X4.5659Y-4.525
X4.5659Y-4.625
X4.6187Y-2.6372
X4.6187Y-2.7372
X4.6659Y-4.525
X4.6659Y-4.625
X4.7187Y-2.6372
X4.7187Y-2.7372
X4.7659Y-4.525
X4.7659Y-4.625
X4.8642Y-2.6362
X4.8642Y-2.7362
X4.9144Y-4.525
X4.9144Y-4.625
X4.9642Y-2.6362
X4.9642Y-2.7362
X5.0144Y-4.525
X5.0144Y-4.625
X5.0642Y-2.6362
X5.0642Y-2.7362
X5.1144Y-4.525
X5.1144Y-4.625
X5.1642Y-2.6362
X5.1642Y-2.7362
X5.2144Y-4.525
X5.2144Y-4.625
X5.2642Y-2.6362
X5.2642Y-2.7362
X5.3144Y-4.525
X5.3144Y-4.625
X5.3642Y-2.6362
X5.3642Y-2.7362
X5.4144Y-4.525
X5.4144Y-4.625
X5.4642Y-2.6362
X5.4642Y-2.7362
X5.5144Y-4.525
X5.5144Y-4.625
X5.5642Y-2.6362
X5.5642Y-2.7362
X5.6144Y-4.525
X5.6144Y-4.625
X5.952Y-4.6201
X6.052Y-4.6201
X6.152Y-4.6201
X6.252Y-4.6201
T2
G00X6.4008Y-3.9992
M15
G01X6.4441Y-3.9992
M16
G05
G00X6.4008Y-4.3394
M15
G01X6.4441Y-4.3394
M16
G05
G00X6.5752Y-3.9992
M15
G01X6.5988Y-3.9992
M16
G05
G00X6.5752Y-4.3394
M15
G01X6.5988Y-4.3394
M16
G05
T0
M30
